<svg width="119" height="24" viewBox="0 0 119 24" fill="none" xmlns="http://www.w3.org/2000/svg">
<path d="M3.49609 6.096C1.96009 6.096 0.712094 7.344 0.712094 8.88C0.712094 10.416 1.96009 11.664 3.49609 11.664C5.03209 11.664 6.2801 10.416 6.2801 8.88C6.2801 7.344 5.03209 6.096 3.49609 6.096ZM23.2147 18H29.1187C33.0307 18 35.8867 16.32 35.8867 12.816C35.8867 10.416 34.4227 9.048 32.4067 8.616V8.496C33.9907 7.968 34.9267 6.36 34.9267 4.68C34.9267 1.488 32.3107 0.311999 28.6867 0.311999H23.2147V18ZM25.9987 7.704V2.496H28.4467C30.9427 2.496 32.1907 3.192 32.1907 5.04C32.1907 6.696 31.0627 7.704 28.3747 7.704H25.9987ZM25.9987 15.816V9.792H28.8067C31.6147 9.792 33.1507 10.68 33.1507 12.672C33.1507 14.832 31.5667 15.816 28.8067 15.816H25.9987ZM42.1025 18.312C43.6865 18.312 45.1025 17.52 46.3025 16.488H46.3985L46.6145 18H48.8705V10.056C48.8705 6.552 47.3585 4.464 44.0705 4.464C41.9585 4.464 40.1105 5.328 38.7425 6.192L39.7745 8.064C40.9025 7.344 42.1985 6.72 43.5905 6.72C45.5345 6.72 46.0865 8.064 46.1105 9.6C40.6145 10.2 38.2145 11.664 38.2145 14.496C38.2145 16.824 39.8225 18.312 42.1025 18.312ZM42.9425 16.128C41.7665 16.128 40.8785 15.6 40.8785 14.304C40.8785 12.816 42.1985 11.808 46.1105 11.352V14.592C45.0305 15.576 44.0945 16.128 42.9425 16.128ZM52.7872 18H55.5472V8.64C56.6992 7.464 57.5392 6.84 58.7632 6.84C60.3232 6.84 60.9952 7.752 60.9952 10.032V18H63.7552V9.696C63.7552 6.336 62.5072 4.464 59.6992 4.464C57.8992 4.464 56.5552 5.448 55.3312 6.624H55.2592L55.0432 4.8H52.7872V18ZM75.9718 23.352H78.7318V4.8H76.5478L76.3078 6.072H76.2358C75.1078 5.016 74.0278 4.464 72.5398 4.464C69.5878 4.464 66.8758 7.128 66.8758 11.4C66.8758 15.792 69.0118 18.312 72.3238 18.312C73.7398 18.312 75.0838 17.568 76.0918 16.584L75.9718 18.864V23.352ZM72.9718 16.032C70.9078 16.032 69.7318 14.376 69.7318 11.376C69.7318 8.52 71.2198 6.768 73.0678 6.768C74.0518 6.768 74.9878 7.08 75.9718 7.968V14.424C75.0118 15.528 74.0758 16.032 72.9718 16.032ZM86.769 18.312C88.569 18.312 89.865 17.4 91.065 16.008H91.137L91.353 18H93.609V4.8H90.849V13.968C89.745 15.36 88.905 15.936 87.681 15.936C86.121 15.936 85.473 15.024 85.473 12.768V4.8H82.713V13.104C82.713 16.464 83.937 18.312 86.769 18.312ZM103.26 18.312C104.988 18.312 106.5 17.736 107.724 16.92L106.764 15.168C105.804 15.792 104.796 16.152 103.62 16.152C101.34 16.152 99.7558 14.64 99.5398 12.12H108.108C108.18 11.784 108.252 11.256 108.252 10.704C108.252 6.984 106.356 4.464 102.852 4.464C99.7798 4.464 96.8278 7.128 96.8278 11.4C96.8278 15.768 99.6838 18.312 103.26 18.312ZM99.5158 10.2C99.7798 7.896 101.244 6.624 102.9 6.624C104.82 6.624 105.852 7.944 105.852 10.2H99.5158ZM115.516 18.312C116.476 18.312 117.364 18.072 118.108 17.832L117.604 15.792C117.22 15.96 116.644 16.104 116.188 16.104C114.82 16.104 114.268 15.288 114.268 13.704V7.008H117.7V4.8H114.268V1.152H111.964L111.652 4.8L109.588 4.944V7.008H111.508V13.68C111.508 16.464 112.54 18.312 115.516 18.312Z" fill="white"/>
</svg>
