<svg width="138" height="24" viewBox="0 0 138 24" fill="none" xmlns="http://www.w3.org/2000/svg">
<path d="M3 6.096C1.464 6.096 0.216 7.344 0.216 8.88C0.216 10.416 1.464 11.664 3 11.664C4.536 11.664 5.784 10.416 5.784 8.88C5.784 7.344 4.536 6.096 3 6.096ZM29.6066 18.312C31.8866 18.312 33.6866 17.4 35.1026 15.768L33.6146 14.016C32.5586 15.168 31.3346 15.888 29.7026 15.888C26.5826 15.888 24.6146 13.32 24.6146 9.12C24.6146 4.968 26.7266 2.424 29.7746 2.424C31.2146 2.424 32.3186 3.072 33.2306 4.008L34.7426 2.232C33.6626 1.056 31.9346 -1.43051e-06 29.7266 -1.43051e-06C25.2626 -1.43051e-06 21.7586 3.456 21.7586 9.216C21.7586 15 25.1666 18.312 29.6066 18.312ZM43.4903 18.312C45.2183 18.312 46.7303 17.736 47.9543 16.92L46.9943 15.168C46.0343 15.792 45.0263 16.152 43.8503 16.152C41.5703 16.152 39.9863 14.64 39.7703 12.12H48.3383C48.4103 11.784 48.4823 11.256 48.4823 10.704C48.4823 6.984 46.5863 4.464 43.0823 4.464C40.0103 4.464 37.0583 7.128 37.0583 11.4C37.0583 15.768 39.9143 18.312 43.4903 18.312ZM39.7463 10.2C40.0103 7.896 41.4743 6.624 43.1303 6.624C45.0503 6.624 46.0823 7.944 46.0823 10.2H39.7463ZM51.5646 18H54.3246V9.768C55.1406 7.68 56.4366 6.936 57.5166 6.936C58.0446 6.936 58.3806 7.008 58.8366 7.152L59.3406 4.752C58.9326 4.56 58.5006 4.464 57.8526 4.464C56.4366 4.464 55.0446 5.472 54.1086 7.176H54.0366L53.8206 4.8H51.5646V18ZM66.6231 18.312C68.3511 18.312 69.8631 17.736 71.0871 16.92L70.1271 15.168C69.1671 15.792 68.1591 16.152 66.9831 16.152C64.7031 16.152 63.1191 14.64 62.9031 12.12H71.4711C71.5431 11.784 71.6151 11.256 71.6151 10.704C71.6151 6.984 69.7191 4.464 66.2151 4.464C63.1431 4.464 60.1911 7.128 60.1911 11.4C60.1911 15.768 63.0471 18.312 66.6231 18.312ZM62.8791 10.2C63.1431 7.896 64.6071 6.624 66.2631 6.624C68.1831 6.624 69.2151 7.944 69.2151 10.2H62.8791ZM74.6974 18H77.4574V8.64C78.5374 7.44 79.5214 6.84 80.4094 6.84C81.9214 6.84 82.6174 7.752 82.6174 10.032V18H85.3774V8.64C86.4814 7.44 87.4414 6.84 88.3534 6.84C89.8414 6.84 90.5614 7.752 90.5614 10.032V18H93.3214V9.696C93.3214 6.336 92.0254 4.464 89.2654 4.464C87.6094 4.464 86.2654 5.496 84.9694 6.888C84.3934 5.376 83.2894 4.464 81.3214 4.464C79.6894 4.464 78.3694 5.448 77.2414 6.648H77.1694L76.9534 4.8H74.6974V18ZM102.595 18.312C105.859 18.312 108.811 15.792 108.811 11.4C108.811 7.008 105.859 4.464 102.595 4.464C99.3306 4.464 96.3786 7.008 96.3786 11.4C96.3786 15.792 99.3306 18.312 102.595 18.312ZM102.595 16.056C100.531 16.056 99.2346 14.208 99.2346 11.4C99.2346 8.616 100.531 6.744 102.595 6.744C104.683 6.744 105.979 8.616 105.979 11.4C105.979 14.208 104.683 16.056 102.595 16.056ZM112.057 18H114.817V8.64C115.969 7.464 116.809 6.84 118.033 6.84C119.593 6.84 120.265 7.752 120.265 10.032V18H123.025V9.696C123.025 6.336 121.777 4.464 118.969 4.464C117.169 4.464 115.825 5.448 114.601 6.624H114.529L114.313 4.8H112.057V18ZM127.633 23.52C130.417 23.52 131.809 21.624 132.841 18.792L137.689 4.8H135.001L132.889 11.592C132.553 12.792 132.193 14.112 131.857 15.312H131.737C131.329 14.088 130.921 12.768 130.537 11.592L128.089 4.8H125.257L130.489 17.904L130.225 18.816C129.745 20.232 128.905 21.288 127.465 21.288C127.129 21.288 126.745 21.168 126.505 21.096L125.977 23.256C126.433 23.424 126.961 23.52 127.633 23.52Z" fill="white"/>
</svg>
