<svg width="125" height="24" viewBox="0 0 125 24" fill="none" xmlns="http://www.w3.org/2000/svg">
<path d="M3.30859 6.096C1.77259 6.096 0.524594 7.344 0.524594 8.88C0.524594 10.416 1.77259 11.664 3.30859 11.664C4.84459 11.664 6.0926 10.416 6.0926 8.88C6.0926 7.344 4.84459 6.096 3.30859 6.096ZM24.3566 18.312C28.8926 18.312 32.0606 14.784 32.0606 9.096C32.0606 3.408 28.8926 -1.43051e-06 24.3566 -1.43051e-06C19.8206 -1.43051e-06 16.6766 3.408 16.6766 9.096C16.6766 14.784 19.8206 18.312 24.3566 18.312ZM24.3566 15.888C21.4286 15.888 19.5326 13.224 19.5326 9.096C19.5326 4.944 21.4286 2.424 24.3566 2.424C27.2846 2.424 29.2046 4.944 29.2046 9.096C29.2046 13.224 27.2846 15.888 24.3566 15.888ZM39.3783 18.312C41.1783 18.312 42.4743 17.4 43.6743 16.008H43.7463L43.9623 18H46.2183V4.8H43.4583V13.968C42.3543 15.36 41.5143 15.936 40.2903 15.936C38.7303 15.936 38.0823 15.024 38.0823 12.768V4.8H35.3223V13.104C35.3223 16.464 36.5463 18.312 39.3783 18.312ZM50.3732 18H53.1332V9.768C53.9492 7.68 55.2452 6.936 56.3252 6.936C56.8532 6.936 57.1892 7.008 57.6452 7.152L58.1492 4.752C57.7412 4.56 57.3092 4.464 56.6612 4.464C55.2452 4.464 53.8532 5.472 52.9172 7.176H52.8452L52.6292 4.8H50.3732V18ZM70.8641 18.312C74.7281 18.312 77.0801 16.008 77.0801 13.176C77.0801 10.584 75.5681 9.288 73.4801 8.4L71.0561 7.368C69.6161 6.792 68.2001 6.216 68.2001 4.68C68.2001 3.288 69.3761 2.424 71.1761 2.424C72.7361 2.424 73.9601 3.024 75.0641 4.008L76.5281 2.232C75.1841 0.863999 73.2401 -1.43051e-06 71.1761 -1.43051e-06C67.8161 -1.43051e-06 65.3681 2.088 65.3681 4.872C65.3681 7.44 67.2641 8.784 68.9681 9.504L71.4161 10.56C73.0481 11.28 74.2481 11.784 74.2481 13.392C74.2481 14.88 73.0481 15.888 70.9121 15.888C69.2081 15.888 67.4801 15.072 66.2081 13.8L64.5761 15.72C66.1841 17.352 68.4401 18.312 70.8641 18.312ZM83.946 18.312C84.906 18.312 85.794 18.072 86.538 17.832L86.034 15.792C85.65 15.96 85.074 16.104 84.618 16.104C83.25 16.104 82.698 15.288 82.698 13.704V7.008H86.13V4.8H82.698V1.152H80.394L80.082 4.8L78.018 4.944V7.008H79.938V13.68C79.938 16.464 80.97 18.312 83.946 18.312ZM93.9032 18.312C97.1672 18.312 100.119 15.792 100.119 11.4C100.119 7.008 97.1672 4.464 93.9032 4.464C90.6392 4.464 87.6872 7.008 87.6872 11.4C87.6872 15.792 90.6392 18.312 93.9032 18.312ZM93.9032 16.056C91.8392 16.056 90.5432 14.208 90.5432 11.4C90.5432 8.616 91.8392 6.744 93.9032 6.744C95.9912 6.744 97.2872 8.616 97.2872 11.4C97.2872 14.208 95.9912 16.056 93.9032 16.056ZM103.365 18H106.125V9.768C106.941 7.68 108.237 6.936 109.317 6.936C109.845 6.936 110.181 7.008 110.637 7.152L111.141 4.752C110.733 4.56 110.301 4.464 109.653 4.464C108.237 4.464 106.845 5.472 105.909 7.176H105.837L105.621 4.8H103.365V18ZM114.325 23.52C117.109 23.52 118.501 21.624 119.533 18.792L124.381 4.8H121.693L119.581 11.592C119.245 12.792 118.885 14.112 118.549 15.312H118.429C118.021 14.088 117.613 12.768 117.229 11.592L114.781 4.8H111.949L117.181 17.904L116.917 18.816C116.437 20.232 115.597 21.288 114.157 21.288C113.821 21.288 113.437 21.168 113.197 21.096L112.669 23.256C113.125 23.424 113.653 23.52 114.325 23.52Z" fill="white"/>
</svg>
