<svg width="477" height="91" viewBox="0 0 477 91" fill="none" xmlns="http://www.w3.org/2000/svg">
<path d="M6.146 59.098H12.25V57.754H6.174C6.342 57.516 6.496 57.278 6.65 57.026H13.524V55.598H7.406C7.574 55.248 7.714 54.898 7.854 54.562L6.258 54.128C5.768 55.598 4.872 57.054 3.864 57.964C4.228 58.188 4.886 58.692 5.194 58.986C5.516 58.636 5.838 58.244 6.146 57.796V59.098ZM4.536 55.71C3.99 55.304 2.898 54.73 2.142 54.38L1.218 55.584C1.988 56.004 3.066 56.634 3.57 57.068L4.536 55.71ZM3.752 59.364C3.164 59 2.03 58.44 1.274 58.132L0.392 59.364C1.176 59.77 2.282 60.372 2.814 60.75L3.752 59.364ZM2.31 66.952C3.066 65.622 3.878 64.068 4.536 62.64L3.276 61.562C2.52 63.144 1.54 64.838 0.854 65.874L2.31 66.952ZM4.788 59.868V61.324H10.402C10.458 64.922 10.696 67.232 12.362 67.246C13.328 67.232 13.594 66.504 13.706 64.922C13.398 64.67 13.006 64.25 12.726 63.886C12.712 64.922 12.656 65.678 12.488 65.678C11.998 65.678 11.984 63.284 12.012 59.868H4.788ZM17.654 61.758V60.904H20.09V61.758H17.654ZM17.654 58.804H20.09V59.658H17.654V58.804ZM24.248 58.804V59.658H21.798V58.804H24.248ZM24.248 61.758H21.798V60.904H24.248V61.758ZM27.384 63.844H21.798V63.088H25.928V57.474H21.798V56.802H26.978V55.29H21.798V54.156H20.09V55.29H15.008V56.802H20.09V57.474H16.058V63.088H20.09V63.844H14.672V65.342H20.09V67.232H21.798V65.342H27.384V63.844ZM3.96 78.312C3.444 77.976 2.424 77.436 1.728 77.1L1.104 77.892C1.812 78.288 2.808 78.864 3.3 79.212L3.96 78.312ZM3.348 81.528C2.844 81.204 1.824 80.676 1.14 80.34L0.528 81.168C1.248 81.54 2.244 82.116 2.736 82.452L3.348 81.528ZM1.704 87.792C2.412 86.676 3.216 85.236 3.828 84L3.024 83.256C2.328 84.612 1.404 86.148 0.768 87.048L1.704 87.792ZM9.708 86.424H5.736V84.264H9.708V86.424ZM11.472 81.48V80.412H8.292V78.528C9.288 78.348 10.224 78.12 10.992 77.832L10.116 76.968C8.796 77.46 6.468 77.844 4.416 78.06C4.548 78.312 4.692 78.732 4.74 78.996C5.532 78.936 6.396 78.84 7.236 78.708V80.412H3.9V81.48H7.236V83.256H4.716V87.936H5.736V87.432H9.708V87.876H10.764V83.256H8.292V81.48H11.472ZM16.032 85.464H18.288V84.648H16.032V84.036H18.264V80.424H16.032V79.8H18.408V80.7H19.68C19.584 82.884 19.284 84.696 18.3 86.052C17.544 86.136 16.776 86.208 16.032 86.28V85.464ZM13.776 83.304V82.572H15.012V83.304H13.776ZM17.316 82.572V83.304H16.032V82.572H17.316ZM16.032 81.888V81.156H17.316V81.888H16.032ZM13.776 81.156H15.012V81.888H13.776V81.156ZM20.772 79.668C20.784 78.852 20.796 77.988 20.796 77.1H19.728C19.728 78 19.728 78.852 19.716 79.668H18.456V78.972H16.032V78.204C16.86 78.12 17.652 78 18.288 77.868L17.76 77.028C16.512 77.304 14.388 77.52 12.612 77.616C12.72 77.832 12.84 78.192 12.876 78.42C13.548 78.396 14.28 78.36 15.012 78.3V78.972H12.54V79.8H15.012V80.424H12.864V84.036H15.012V84.648H12.828V85.464H15.012V86.376C14.064 86.46 13.2 86.532 12.504 86.58L12.648 87.528C13.932 87.408 15.66 87.228 17.388 87.024C17.316 87.084 17.244 87.144 17.172 87.192C17.436 87.372 17.808 87.768 17.976 88.02C20.04 86.436 20.58 83.892 20.736 80.7H22.152C22.056 84.828 21.936 86.352 21.672 86.688C21.552 86.844 21.444 86.88 21.24 86.88C21.024 86.88 20.532 86.88 19.98 86.832C20.148 87.132 20.268 87.588 20.292 87.888C20.856 87.924 21.408 87.924 21.768 87.876C22.14 87.816 22.392 87.72 22.62 87.36C23.004 86.844 23.112 85.14 23.244 80.184C23.244 80.052 23.256 79.668 23.256 79.668H20.772ZM27.06 83.832V80.808H28.272V79.752H27.06V77.088H26.016V79.752H24.648V80.808H26.016V84.264C25.404 84.516 24.852 84.732 24.42 84.888L24.864 86.004C25.908 85.536 27.252 84.912 28.512 84.312L28.248 83.328L27.06 83.832ZM31.08 86.7C30.312 86.7 30.18 86.568 30.18 85.896V81.96L31.524 81.384V85.248H32.568V80.94L33.84 80.388C33.78 81.852 33.648 83.52 33.468 84.552L34.38 84.804C34.68 83.436 34.86 81.24 34.956 79.572L35.004 79.392L34.176 79.116L32.568 79.8V76.944H31.524V80.244L30.18 80.808V78.072H29.124V81.252L27.876 81.78L28.296 82.776L29.124 82.416V85.884C29.124 87.324 29.544 87.696 31.02 87.696H33.78C35.076 87.696 35.412 87.156 35.568 85.5C35.268 85.44 34.836 85.26 34.584 85.092C34.488 86.4 34.368 86.7 33.708 86.7H31.08ZM40.536 83.376L39.144 83.904V80.808H40.632V79.752H39.144V77.1H38.112V79.752H36.552V80.808H38.112V84.288C37.476 84.528 36.9 84.732 36.432 84.888L36.84 85.992C37.944 85.548 39.396 84.936 40.74 84.348L40.536 83.376ZM44.88 86.448V82.056H47.328V80.988H44.88V77.028H43.764V86.448H42.228V79.548H41.136V86.448H39.768V87.516H47.532V86.448H44.88ZM54 80.616C54.552 80.616 55.008 80.208 55.008 79.62C55.008 79.032 54.552 78.612 54 78.612C53.448 78.612 52.992 79.032 52.992 79.62C52.992 80.208 53.448 80.616 54 80.616ZM54 86.424C54.552 86.424 55.008 86.016 55.008 85.44C55.008 84.84 54.552 84.432 54 84.432C53.448 84.432 52.992 84.84 52.992 85.44C52.992 86.016 53.448 86.424 54 86.424ZM63.504 80.196C62.82 81.66 61.644 83.088 60.408 83.976C60.672 84.168 61.116 84.552 61.332 84.768C61.74 84.42 62.172 84.012 62.568 83.556V87.948H63.672V82.128C64.02 81.624 64.344 81.084 64.62 80.532L63.504 80.196ZM64.608 76.944H63.516V78.072H60.732V79.128H63.516V80.196H64.608V79.128H65.784V78.072H64.608V76.944ZM67.428 80.244H68.544V79.116H71.244V78.072H68.544V76.944H67.428V78.072H66.204V79.116H67.428V80.244ZM67.98 86.76C67.416 86.76 67.32 86.664 67.32 86.16V83.292H71.232V82.236H67.32V80.364H66.216V86.16C66.216 87.444 66.564 87.792 67.848 87.792H69.9C71.064 87.792 71.364 87.24 71.496 85.404C71.196 85.32 70.74 85.14 70.488 84.948C70.416 86.448 70.332 86.76 69.804 86.76H67.98ZM81.648 81.744V82.392H80.016V81.744H81.648ZM81.648 83.736H80.016V83.064H81.648V83.736ZM77.412 83.736V83.064H79.02V83.736H77.412ZM77.412 81.744H79.02V82.392H77.412V81.744ZM79.92 79.104H79.02V79.716H76.008V80.508H79.02V81.048H76.488V84.432H79.02V84.984H75.9V85.812H79.02V86.58H80.016V85.812H83.22V84.984H80.016V84.432H82.632V81.048H80.016V80.508H83.028V79.716H80.016V79.128H81.024V78.504H83.292V77.628H81.024V76.92H79.92V77.628H78.228V78.504H79.92V79.104ZM75.036 79.272H76.128V78.504H77.736V77.628H76.128V76.92H75.036V77.628H72.744V78.504H75.036V79.272ZM73.272 79.392C73.668 79.824 74.16 80.436 74.4 80.82L75.336 80.364C75.096 80.016 74.616 79.452 74.184 79.02L73.272 79.392ZM75.372 83.4L75.192 83.436H74.256C74.868 82.764 75.6 81.852 76.032 81.3L75.324 80.94L75.132 81.024H72.804V81.924H74.4C73.98 82.452 73.512 83.028 73.296 83.22C73.068 83.424 72.876 83.508 72.708 83.556C72.816 83.748 73.02 84.24 73.08 84.492C73.176 84.396 73.512 84.312 73.8 84.312H74.664C74.196 85.584 73.368 86.568 72.348 87.132C72.54 87.288 72.864 87.72 72.972 87.96C73.632 87.576 74.232 87.012 74.736 86.292C75.648 87.612 77.052 87.852 79.344 87.852C80.628 87.852 82.092 87.816 83.22 87.756C83.28 87.456 83.412 86.964 83.568 86.736C82.344 86.856 80.568 86.916 79.356 86.916C77.328 86.904 75.936 86.736 75.204 85.512C75.48 84.972 75.72 84.36 75.876 83.676L75.372 83.4ZM93.432 76.8C92.568 77.436 91.056 78.06 89.7 78.492C89.832 78.708 89.988 79.068 90.048 79.284C91.464 78.888 93.06 78.324 94.176 77.628L93.432 76.8ZM85.38 84.504C85.152 85.308 84.792 86.208 84.408 86.808C84.624 86.904 85.02 87.132 85.2 87.264C85.584 86.616 86.004 85.62 86.268 84.72L85.38 84.504ZM85.98 82.428H88.356V83.148H85.98V82.428ZM88.356 78.168V78.912H85.98V78.168H88.356ZM85.98 81.048H88.356V81.708H85.98V81.048ZM88.356 80.34H85.98V79.632H88.356V80.34ZM89.796 84.036V83.148H89.304V77.34H85.068V83.148H84.552V84.036H86.772V87.852H87.708V84.036H89.796ZM88.08 84.756C88.404 85.332 88.752 86.1 88.896 86.592L89.676 86.232C89.52 85.74 89.16 84.996 88.824 84.432L88.08 84.756ZM90.66 84.24C90.432 85.068 89.988 86.136 89.46 86.844C89.676 86.952 90.036 87.18 90.228 87.324C90.792 86.568 91.284 85.428 91.62 84.48L90.66 84.24ZM94.488 83.616C94.584 83.82 94.656 84 94.716 84.168L95.52 83.748C95.28 83.124 94.716 82.116 94.224 81.384L93.468 81.744C93.672 82.056 93.876 82.428 94.08 82.8L91.74 82.92C92.88 82.056 94.02 81.012 95.04 79.872L94.272 79.332C94.008 79.644 93.72 79.956 93.444 80.256L91.788 80.34C92.352 79.956 92.916 79.476 93.432 78.984L92.604 78.564C91.944 79.332 90.984 80.028 90.684 80.22C90.408 80.4 90.18 80.52 89.964 80.556C90.072 80.784 90.192 81.216 90.228 81.408C90.444 81.324 90.768 81.264 92.556 81.132C91.884 81.78 91.272 82.284 90.984 82.488C90.528 82.836 90.18 83.076 89.88 83.112C89.988 83.364 90.12 83.82 90.168 84.012C90.384 83.928 90.672 83.88 92.064 83.772V87.06C92.064 87.168 92.04 87.204 91.92 87.204H91.14C91.236 87.408 91.356 87.684 91.404 87.924C91.968 87.924 92.364 87.912 92.652 87.792C92.94 87.684 93.012 87.504 93.012 87.084V83.724L94.488 83.616ZM93.36 84.504C93.804 85.32 94.332 86.448 94.572 87.108L95.448 86.688C95.196 86.064 94.632 84.972 94.188 84.144L93.36 84.504ZM104.808 84.384V86.472H99.252V84.384H104.808ZM98.1 88.008H99.252V87.504H104.808V88.008H106.02V83.376H98.1V88.008ZM107.208 79.572V78.516H102.564V76.944H101.4V78.516H96.792V79.572H101.4V81.12H97.548V82.176H106.56V81.12H102.564V79.572H107.208ZM110.22 79.308H117.744V80.784H118.932V78.264H114.864C114.684 77.844 114.396 77.28 114.168 76.836L112.944 77.136C113.1 77.472 113.292 77.904 113.448 78.264H109.092V80.784H110.22V79.308ZM115.548 82.752C115.284 83.544 114.924 84.192 114.42 84.72C113.628 84.408 112.812 84.12 112.032 83.856C112.248 83.52 112.464 83.148 112.692 82.752H115.548ZM119.22 82.752V81.696H117.168C117.24 81.372 117.3 81.024 117.36 80.664L116.004 80.556C115.956 80.964 115.896 81.348 115.824 81.696H113.268C113.568 81.108 113.844 80.508 114.06 79.944L112.788 79.716C112.56 80.34 112.248 81.024 111.888 81.696H108.816V82.752H111.288C110.94 83.352 110.568 83.904 110.244 84.36C111.252 84.684 112.368 85.08 113.46 85.524C112.356 86.232 110.856 86.628 108.876 86.856C109.116 87.144 109.464 87.684 109.572 87.972C111.828 87.624 113.508 87.06 114.732 86.076C116.148 86.7 117.42 87.372 118.26 87.948L119.1 86.964C118.224 86.412 116.964 85.788 115.608 85.212C116.16 84.54 116.568 83.736 116.88 82.752H119.22ZM123.336 81.972C123.288 82.332 123.228 82.68 123.156 83.016L121.968 83.16C122.772 82.116 123.564 80.772 124.188 79.488L123.276 79.116C123.12 79.476 122.94 79.848 122.772 80.208L121.836 80.28C122.34 79.44 122.856 78.384 123.228 77.34L122.184 77.088C121.884 78.264 121.272 79.5 121.08 79.824C120.9 80.148 120.732 80.388 120.54 80.424C120.66 80.676 120.816 81.168 120.876 81.372C121.032 81.3 121.284 81.228 122.28 81.12C121.86 81.852 121.488 82.44 121.308 82.668C121.008 83.088 120.768 83.376 120.516 83.424C120.624 83.676 120.78 84.132 120.828 84.324C121.032 84.216 121.332 84.156 122.916 83.904C122.46 85.308 121.692 86.364 120.504 87.048C120.696 87.228 120.996 87.612 121.092 87.804C122.916 86.628 123.864 84.768 124.248 82.08L123.336 81.972ZM126.624 79.092V80.412H125.28V79.092H126.624ZM125.28 82.572V81.312H126.624V82.572H125.28ZM125.928 84.228C126.12 84.672 126.312 85.176 126.48 85.668L125.28 86.04V83.52H127.524V78.144H126.612C126.444 77.772 126.168 77.304 125.88 76.944L125.016 77.268C125.184 77.532 125.376 77.844 125.532 78.144H124.308V85.896C124.308 86.376 123.996 86.604 123.768 86.7C123.912 86.88 124.08 87.264 124.14 87.48C124.344 87.336 124.68 87.204 126.744 86.508C126.852 86.844 126.912 87.156 126.96 87.408L127.908 87.048C127.74 86.244 127.26 84.936 126.804 83.928L125.928 84.228ZM130.812 77.484L130.644 77.532H128.04V87.924H128.976V78.516H130.296C130.044 79.452 129.696 80.7 129.36 81.648C130.188 82.692 130.404 83.556 130.404 84.264C130.404 84.684 130.344 85.032 130.152 85.164C130.056 85.248 129.924 85.284 129.78 85.296C129.6 85.296 129.372 85.296 129.12 85.272C129.276 85.548 129.348 85.992 129.348 86.268C129.648 86.28 129.948 86.28 130.176 86.256C130.44 86.22 130.668 86.136 130.86 86.004C131.196 85.728 131.364 85.152 131.352 84.396C131.352 83.58 131.148 82.644 130.308 81.54C130.704 80.472 131.16 79.068 131.52 77.94L130.812 77.484ZM140.808 84.384V86.472H135.252V84.384H140.808ZM134.1 88.008H135.252V87.504H140.808V88.008H142.02V83.376H134.1V88.008ZM143.208 79.572V78.516H138.564V76.944H137.4V78.516H132.792V79.572H137.4V81.12H133.548V82.176H142.56V81.12H138.564V79.572H143.208ZM147.984 85.236C147.216 85.86 145.776 86.64 144.648 87.084C144.864 87.312 145.14 87.696 145.284 87.924C146.448 87.432 147.9 86.652 148.908 85.944L147.984 85.236ZM151.056 85.932C152.304 86.52 153.612 87.3 154.404 87.852L155.124 87.012C154.308 86.472 152.928 85.728 151.68 85.152L151.056 85.932ZM149.628 81.228H150.36V82.584H149.628V81.228ZM149.124 83.268H150.876V80.544H149.124V83.268ZM149.004 79.116V79.848H150.936V79.116H149.004ZM148.692 78.384H151.26V84.108H148.692V78.384ZM154.476 84.108C154.584 82.26 154.668 79.548 154.692 77.448H152.424V78.372H153.708C153.708 78.816 153.696 79.284 153.696 79.752H152.484V80.652H153.672C153.66 81.084 153.648 81.516 153.636 81.936H152.4V82.836H153.588C153.576 83.28 153.552 83.724 153.528 84.108H152.1V77.52H147.888V84.108H146.472L146.436 82.812H147.6V81.912H146.412L146.364 80.628H147.552V79.728H146.34L146.304 78.444C146.82 78.324 147.36 78.168 147.84 78L147.336 77.052C146.808 77.316 146.004 77.592 145.332 77.796L145.512 84.108H144.6V85.14H155.376V84.108H154.476ZM162.708 83.592C163.296 83.244 163.86 82.812 164.364 82.32C164.844 82.788 165.396 83.232 166.02 83.592H162.708ZM163.008 86.532V84.54H165.684V86.532H163.008ZM161.148 82.764H159.744V81.18H161.04V80.64C161.292 80.832 161.64 81.12 161.808 81.3C162.12 80.976 162.444 80.592 162.732 80.172C162.996 80.628 163.296 81.096 163.68 81.552C162.924 82.296 162.048 82.872 161.148 83.256V82.764ZM158.052 78.372H160.008V80.22H158.052V78.372ZM165.396 79.068C165.12 79.704 164.76 80.292 164.328 80.82C163.896 80.316 163.56 79.8 163.284 79.284L163.392 79.068H165.396ZM166.068 78.072L165.876 78.12H163.836C163.968 77.82 164.088 77.508 164.196 77.196L163.116 76.932C162.696 78.312 161.94 79.608 161.04 80.484V77.412H157.08V81.18H158.748V85.86L157.956 86.04V82.188H157.044V86.232C156.84 86.268 156.648 86.304 156.468 86.34L156.66 87.42C157.956 87.12 159.696 86.7 161.34 86.28L161.232 85.296L159.744 85.644V83.748H161.148V83.736C161.268 83.904 161.388 84.084 161.46 84.228C161.64 84.156 161.808 84.072 161.988 83.988V87.912H163.008V87.492H165.684V87.876H166.752V83.976L166.992 84.072C167.136 83.796 167.46 83.352 167.676 83.148C166.656 82.788 165.792 82.236 165.06 81.576C165.804 80.688 166.404 79.62 166.776 78.372L166.068 78.072ZM169.512 78.072V79.212H178.512V78.072H169.512ZM170.292 81.924V83.064H177.576V81.924H170.292ZM168.828 86.016V87.144H179.148V86.016H168.828ZM187.392 78.348H188.856V80.292C188.856 81.216 189.036 81.6 189.972 81.6H190.764C191.016 81.6 191.268 81.6 191.412 81.54C191.376 81.3 191.352 80.928 191.34 80.664C191.184 80.712 190.92 80.736 190.764 80.736H190.068C189.912 80.736 189.876 80.628 189.876 80.304V77.388H186.36V78.828C186.36 79.692 186.216 80.712 185.052 81.48C185.256 81.624 185.676 81.996 185.832 82.2C187.128 81.324 187.392 79.956 187.392 78.852V78.348ZM185.208 84.312C184.272 84.456 183.336 84.588 182.472 84.696V83.196H185.016V82.212H182.472V80.76H185.028V79.788H182.472V78.708C183.492 78.42 184.596 78.072 185.448 77.676L184.572 76.836C183.804 77.244 182.544 77.724 181.428 78.048L181.392 78.036V84.84L180.42 84.972L180.588 86.028L181.392 85.896V87.732H182.472V85.728C183.36 85.584 184.32 85.428 185.256 85.272L185.208 84.312ZM189.408 83.244C189.12 84.012 188.712 84.66 188.196 85.2C187.644 84.636 187.2 83.976 186.9 83.244H189.408ZM190.056 82.26L189.852 82.296H185.568V83.244H186.552L185.964 83.4C186.324 84.336 186.816 85.164 187.428 85.86C186.66 86.412 185.748 86.796 184.728 87.036C184.944 87.264 185.208 87.696 185.304 87.996C186.396 87.672 187.38 87.228 188.22 86.592C188.952 87.18 189.816 87.648 190.824 87.924C190.98 87.636 191.292 87.192 191.52 86.976C190.56 86.76 189.708 86.388 189.012 85.884C189.804 85.032 190.392 83.928 190.74 82.5L190.056 82.26ZM193.632 83.556L195.372 80.892C195.624 80.436 195.864 79.98 196.08 79.524H196.128C196.104 80.016 196.068 80.76 196.068 81.24V83.556H193.632ZM196.068 87H197.364V84.624H198.48V83.556H197.364V78.156H195.756L192.24 83.7V84.624H196.068V87ZM200.644 80.904C200.644 79.752 201.244 79.068 202 79.068C202.96 79.068 203.62 79.86 203.752 81.6C203.248 82.356 202.624 82.68 202.072 82.68C201.148 82.68 200.644 82.032 200.644 80.904ZM201.76 87.156C203.464 87.156 205.048 85.764 205.048 82.284C205.048 79.356 203.68 78 201.988 78C200.56 78 199.36 79.152 199.36 80.904C199.36 82.752 200.356 83.676 201.832 83.676C202.504 83.676 203.26 83.28 203.776 82.644C203.692 85.164 202.768 86.028 201.7 86.028C201.148 86.028 200.608 85.764 200.26 85.368L199.504 86.22C200.02 86.748 200.74 87.156 201.76 87.156ZM206.72 87H211.76V85.86H210.032V78.156H208.988C208.484 78.48 207.896 78.684 207.068 78.84V79.716H208.652V85.86H206.72V87ZM216.251 79.86H214.403V78.228H216.251V79.86ZM217.115 77.412H213.587V80.664H217.115V77.412ZM214.727 83.496C214.799 83.172 214.871 82.812 214.943 82.464H217.379V81.492H213.023V82.464H213.995C213.875 83.136 213.695 83.844 213.551 84.372H215.927C215.819 85.968 215.675 86.604 215.495 86.796C215.399 86.892 215.291 86.916 215.123 86.916C214.943 86.916 214.511 86.904 214.067 86.868C214.223 87.12 214.319 87.516 214.343 87.792C214.823 87.828 215.291 87.828 215.555 87.792C215.879 87.756 216.095 87.672 216.287 87.444C216.611 87.108 216.755 86.172 216.911 83.904C216.923 83.76 216.935 83.496 216.935 83.496H214.727ZM219.611 83.784C219.539 85.392 219.347 86.556 218.267 87.228C218.483 87.372 218.759 87.732 218.867 87.96C220.187 87.12 220.451 85.728 220.535 83.784H219.611ZM221.387 82.452C221.135 82.452 221.099 82.332 221.099 82.044V81.744L222.551 81.6L222.455 80.832L221.099 80.964V80.16H223.019C222.947 80.592 222.875 81.024 222.803 81.336L223.631 81.54C223.787 80.988 223.979 80.124 224.111 79.392L223.427 79.224L223.271 79.272H221.219V78.576H223.571V77.676H221.219V76.932H220.163V79.272H217.835V82.296C217.835 83.832 217.739 85.896 216.803 87.372C217.019 87.48 217.463 87.78 217.619 87.96C218.639 86.376 218.807 83.976 218.807 82.308V80.16H220.151V81.06L219.023 81.168L219.131 81.948L220.151 81.84V82.02C220.151 82.872 220.343 83.28 221.207 83.28H222.563C222.851 83.28 223.187 83.268 223.367 83.196C223.331 82.944 223.307 82.668 223.283 82.38C223.127 82.44 222.731 82.452 222.527 82.452H221.387ZM222.599 86.736C222.503 86.736 222.419 86.712 222.383 86.676C222.323 86.64 222.311 86.568 222.311 86.496V83.796H221.387V86.532C221.387 87.132 221.423 87.312 221.615 87.492C221.795 87.66 222.083 87.72 222.347 87.72H222.995C223.223 87.72 223.487 87.66 223.643 87.576C223.811 87.48 223.931 87.324 224.015 87.084C224.087 86.88 224.135 86.292 224.147 85.728C223.883 85.644 223.535 85.452 223.355 85.284C223.367 85.812 223.343 86.256 223.319 86.448C223.295 86.556 223.235 86.64 223.187 86.676C223.139 86.724 223.019 86.736 222.911 86.736H222.599Z" fill="white"/>
<path d="M22.512 10.696H14.016L14.088 10.672C13.776 9.76 12.984 8.392 12.336 7.36L9.6 8.32C10.032 9.04 10.488 9.904 10.824 10.696H1.464V13.48H22.512V10.696ZM14.28 15.16C16.416 16.72 19.08 18.976 20.256 20.464L22.704 18.616C21.384 17.08 18.6 14.968 16.536 13.552L14.28 15.16ZM7.152 13.696C5.76 15.424 3.432 17.176 1.296 18.256C1.944 18.736 3.024 19.768 3.552 20.344C5.688 19.048 8.28 16.864 9.912 14.752L7.152 13.696ZM15.144 17.824C14.448 19.696 13.392 21.256 12.024 22.552C10.704 21.256 9.672 19.696 8.952 17.944L6.384 18.736C7.296 20.872 8.472 22.72 9.888 24.256C7.536 25.816 4.584 26.848 1.104 27.52C1.656 28.144 2.496 29.416 2.832 30.064C6.36 29.2 9.456 27.976 12 26.176C14.424 28 17.424 29.224 21.216 29.944C21.576 29.176 22.32 28 22.944 27.376C19.416 26.848 16.536 25.816 14.232 24.304C15.792 22.768 17.064 20.896 18.024 18.664L15.144 17.824ZM38.064 15.736V17.032H35.136V15.736H38.064ZM43.608 17.032H40.512V15.736H43.608V17.032ZM40.512 20.368V19.024H43.608V20.368H40.512ZM35.136 20.368V19.024H38.064V20.368H35.136ZM35.136 22.432H38.064V25.936H40.512V22.432H43.608V23.608C43.608 23.872 43.536 23.968 43.248 23.968C42.984 23.968 42.168 23.968 41.4 23.944C41.688 24.52 42 25.408 42.072 26.056C43.488 26.056 44.52 26.032 45.216 25.696C45.96 25.312 46.152 24.76 46.152 23.632V13.672H43.32C42.912 13.432 42.408 13.192 41.88 12.928C43.44 11.968 44.952 10.816 46.152 9.664L44.472 8.32L43.896 8.464H32.88V10.576H41.472C40.848 11.032 40.176 11.488 39.504 11.872C38.52 11.464 37.512 11.08 36.648 10.768L34.824 12.28C35.832 12.664 36.936 13.168 38.04 13.672H32.616V26.008H35.136V22.432ZM30.984 11.248C30.264 10.288 28.944 8.8 27.792 7.648L25.68 8.968C26.76 10.144 28.152 11.824 28.824 12.832L30.984 11.248ZM30.48 18.976L30.024 19.048H28.272C29.544 17.44 31.08 15.232 31.968 13.912L30.24 13.12L29.952 13.24H25.08V15.52H28.176C27.264 16.792 26.304 18.112 25.848 18.544C25.392 19.024 24.984 19.216 24.6 19.312C24.84 19.816 25.368 21.04 25.512 21.616C25.728 21.424 26.424 21.256 26.976 21.256H29.016C28.224 24.52 26.664 26.872 24.456 28.192C25.008 28.552 25.944 29.56 26.304 30.112C27.456 29.32 28.512 28.264 29.352 26.872C31.2 29.224 33.936 29.68 38.28 29.68C41.088 29.68 44.112 29.632 46.584 29.464C46.728 28.696 47.112 27.4 47.52 26.824C44.808 27.088 40.896 27.232 38.328 27.232C34.536 27.208 31.92 26.92 30.456 24.688C31.08 23.2 31.536 21.472 31.824 19.48L30.48 18.976Z" fill="white"/>
<line y1="42.75" x2="477" y2="42.75" stroke="white" stroke-width="0.5"/>
</svg>
