<svg width="477" height="324" viewBox="0 0 477 324" fill="none" xmlns="http://www.w3.org/2000/svg">
<path d="M3.864 66.196C5.782 66.196 7.49 64.866 7.49 62.556C7.49 60.302 6.034 59.266 4.298 59.266C3.822 59.266 3.472 59.364 3.052 59.56L3.248 57.362H7.014V55.626H1.47L1.19 60.666L2.128 61.282C2.73 60.89 3.066 60.736 3.682 60.736C4.732 60.736 5.432 61.408 5.432 62.612C5.432 63.83 4.676 64.516 3.598 64.516C2.632 64.516 1.904 64.04 1.316 63.466L0.364 64.782C1.134 65.552 2.226 66.196 3.864 66.196ZM15.686 61.422C15.742 60.834 15.77 60.246 15.784 59.714H21.398V61.422H15.686ZM21.398 56.424V58.132H15.784V56.424H21.398ZM23.162 54.8H14.062V59.406C14.062 61.534 13.866 64.208 11.752 66.014C12.116 66.252 12.788 66.868 13.04 67.218C14.342 66.126 15.042 64.6 15.406 63.032H21.398V65.062C21.398 65.356 21.286 65.468 20.95 65.468C20.642 65.468 19.466 65.482 18.486 65.426C18.752 65.888 19.088 66.686 19.186 67.176C20.628 67.176 21.608 67.148 22.28 66.854C22.924 66.574 23.162 66.098 23.162 65.09V54.8ZM29.1899 66H36.1339V64.264H33.8939C33.4039 64.264 32.7179 64.32 32.1999 64.376C34.0899 62.528 35.6439 60.512 35.6439 58.636C35.6439 56.704 34.3419 55.444 32.3819 55.444C30.9679 55.444 30.0439 55.99 29.0919 57.012L30.2119 58.132C30.7439 57.558 31.3599 57.068 32.1159 57.068C33.1099 57.068 33.6699 57.698 33.6699 58.748C33.6699 60.344 32.0039 62.29 29.1899 64.81V66ZM40.668 66.196C42.642 66.196 44.308 65.09 44.308 63.186C44.308 61.828 43.412 60.96 42.25 60.638V60.568C43.342 60.134 43.972 59.322 43.972 58.202C43.972 56.438 42.614 55.444 40.612 55.444C39.394 55.444 38.4 55.934 37.504 56.718L38.554 57.978C39.17 57.404 39.772 57.068 40.514 57.068C41.396 57.068 41.9 57.544 41.9 58.356C41.9 59.28 41.284 59.938 39.38 59.938V61.408C41.634 61.408 42.236 62.052 42.236 63.06C42.236 63.998 41.522 64.516 40.472 64.516C39.534 64.516 38.778 64.054 38.162 63.452L37.196 64.754C37.924 65.58 39.03 66.196 40.668 66.196ZM52.14 64.46V61.324H58.356V64.46H52.14ZM58.356 56.662V59.672H52.14V56.662H58.356ZM50.418 54.982V67.05H52.14V66.14H58.356V67.022H60.148V54.982H50.418ZM71.53 60.68C71.53 63.676 72.776 65.916 74.288 67.4L75.618 66.812C74.218 65.3 73.112 63.368 73.112 60.68C73.112 57.992 74.218 56.06 75.618 54.548L74.288 53.96C72.776 55.444 71.53 57.684 71.53 60.68ZM80.14 64.46V61.324H86.356V64.46H80.14ZM86.356 56.662V59.672H80.14V56.662H86.356ZM78.418 54.982V67.05H80.14V66.14H86.356V67.022H88.148V54.982H78.418ZM94.966 60.68C94.966 57.684 93.72 55.444 92.208 53.96L90.878 54.548C92.278 56.06 93.384 57.992 93.384 60.68C93.384 63.368 92.278 65.3 90.878 66.812L92.208 67.4C93.72 65.916 94.966 63.676 94.966 60.68ZM1.148 90H7.378V88.334H5.432V79.626H3.906C3.248 80.046 2.534 80.312 1.498 80.508V81.782H3.374V88.334H1.148V90ZM9.39214 90H15.6221V88.334H13.6761V79.626H12.1501C11.4921 80.046 10.7781 80.312 9.74214 80.508V81.782H11.6181V88.334H9.39214V90ZM18.7563 84.876C19.4983 84.876 20.0443 84.302 20.0443 83.546C20.0443 82.776 19.4983 82.202 18.7563 82.202C18.0283 82.202 17.4823 82.776 17.4823 83.546C17.4823 84.302 18.0283 84.876 18.7563 84.876ZM18.7563 90.196C19.4983 90.196 20.0443 89.608 20.0443 88.852C20.0443 88.082 19.4983 87.508 18.7563 87.508C18.0283 87.508 17.4823 88.082 17.4823 88.852C17.4823 89.608 18.0283 90.196 18.7563 90.196ZM24.877 90.196C26.851 90.196 28.517 89.09 28.517 87.186C28.517 85.828 27.621 84.96 26.459 84.638V84.568C27.551 84.134 28.181 83.322 28.181 82.202C28.181 80.438 26.823 79.444 24.821 79.444C23.603 79.444 22.609 79.934 21.713 80.718L22.763 81.978C23.379 81.404 23.981 81.068 24.723 81.068C25.605 81.068 26.109 81.544 26.109 82.356C26.109 83.28 25.493 83.938 23.589 83.938V85.408C25.843 85.408 26.445 86.052 26.445 87.06C26.445 87.998 25.731 88.516 24.681 88.516C23.743 88.516 22.987 88.054 22.371 87.452L21.405 88.754C22.133 89.58 23.239 90.196 24.877 90.196ZM33.4152 90.196C35.5292 90.196 36.9152 88.348 36.9152 84.778C36.9152 81.208 35.5292 79.444 33.4152 79.444C31.3012 79.444 29.9012 81.194 29.9012 84.778C29.9012 88.348 31.3012 90.196 33.4152 90.196ZM33.4152 88.586C32.5192 88.586 31.8472 87.69 31.8472 84.778C31.8472 81.88 32.5192 81.04 33.4152 81.04C34.3112 81.04 34.9692 81.88 34.9692 84.778C34.9692 87.69 34.3112 88.586 33.4152 88.586ZM43.9352 78.926V80.62H47.1272C47.1692 81.096 47.2252 81.6 47.3232 82.132L46.4692 81.978C45.6992 85.66 44.0332 88.362 41.1212 89.832C41.5552 90.154 42.3392 90.84 42.6472 91.19C45.0832 89.734 46.7632 87.41 47.8132 84.274C48.5832 86.78 50.0672 89.426 52.9652 91.176C53.2592 90.742 53.9452 90.014 54.3092 89.72C49.1572 86.682 48.7792 81.572 48.7792 78.926H43.9352ZM64.2772 84.4H61.5332V83.588H64.2772V84.4ZM65.8872 81.222H64.2772V82.244H61.5332V81.222H59.9932V82.244H58.2152V83.588H59.9932V85.702H62.1212V86.458H58.6772V90.532H60.2872V87.886H62.1212V91.246H63.7592V87.886H65.6772V89.02C65.6772 89.174 65.6212 89.216 65.4532 89.216C65.2992 89.23 64.7252 89.23 64.2212 89.202C64.4032 89.608 64.5852 90.182 64.6552 90.63C65.5512 90.63 66.2232 90.63 66.6852 90.406C67.2032 90.168 67.3152 89.776 67.3152 89.062V86.458H63.7592V85.702H65.8872V83.588H67.9872V82.244H65.8872V81.222ZM63.3392 79.458C63.1712 78.982 62.9052 78.436 62.6392 77.974L61.0152 78.436C61.1692 78.758 61.3232 79.108 61.4492 79.458H56.2832V83.378C56.2832 85.422 56.1992 88.348 55.0372 90.322C55.4152 90.49 56.1152 90.966 56.3952 91.246C57.6692 89.076 57.8792 85.632 57.8792 83.378V80.942H68.0992V79.458H63.3392ZM1.148 110H7.378V108.334H5.432V99.626H3.906C3.248 100.046 2.534 100.312 1.498 100.508V101.782H3.374V108.334H1.148V110ZM8.84614 110H15.7901V108.264H13.5501C13.0601 108.264 12.3741 108.32 11.8561 108.376C13.7461 106.528 15.3001 104.512 15.3001 102.636C15.3001 100.704 13.9981 99.444 12.0381 99.444C10.6241 99.444 9.70014 99.99 8.74814 101.012L9.86814 102.132C10.4001 101.558 11.0161 101.068 11.7721 101.068C12.7661 101.068 13.3261 101.698 13.3261 102.748C13.3261 104.344 11.6601 106.29 8.84614 108.81V110ZM18.7563 104.876C19.4983 104.876 20.0443 104.302 20.0443 103.546C20.0443 102.776 19.4983 102.202 18.7563 102.202C18.0283 102.202 17.4823 102.776 17.4823 103.546C17.4823 104.302 18.0283 104.876 18.7563 104.876ZM18.7563 110.196C19.4983 110.196 20.0443 109.608 20.0443 108.852C20.0443 108.082 19.4983 107.508 18.7563 107.508C18.0283 107.508 17.4823 108.082 17.4823 108.852C17.4823 109.608 18.0283 110.196 18.7563 110.196ZM25.171 110.196C27.285 110.196 28.671 108.348 28.671 104.778C28.671 101.208 27.285 99.444 25.171 99.444C23.057 99.444 21.657 101.194 21.657 104.778C21.657 108.348 23.057 110.196 25.171 110.196ZM25.171 108.586C24.275 108.586 23.603 107.69 23.603 104.778C23.603 101.88 24.275 101.04 25.171 101.04C26.067 101.04 26.725 101.88 26.725 104.778C26.725 107.69 26.067 108.586 25.171 108.586ZM33.4152 110.196C35.5292 110.196 36.9152 108.348 36.9152 104.778C36.9152 101.208 35.5292 99.444 33.4152 99.444C31.3012 99.444 29.9012 101.194 29.9012 104.778C29.9012 108.348 31.3012 110.196 33.4152 110.196ZM33.4152 108.586C32.5192 108.586 31.8472 107.69 31.8472 104.778C31.8472 101.88 32.5192 101.04 33.4152 101.04C34.3112 101.04 34.9692 101.88 34.9692 104.778C34.9692 107.69 34.3112 108.586 33.4152 108.586ZM45.6572 99.864V100.578H43.4592V99.864H45.6572ZM43.4592 102.426V101.67H45.6572V102.426H43.4592ZM47.2252 103.63V98.674H41.8352V111.218H43.4592V103.63H47.2252ZM47.0012 106.71V105.66H48.3032V106.71H47.0012ZM51.2992 108.068V106.71H49.7592V105.66H51.0752V104.344H44.3132V105.66H45.5872V106.71H44.1172V108.068H45.5312C45.3912 108.782 44.9992 109.692 44.1032 110.252C44.4252 110.476 44.9292 110.91 45.1672 111.204C46.3572 110.392 46.8192 109.034 46.9592 108.068H48.3032V110.952H49.7592V108.068H51.2992ZM49.7312 102.454V101.67H51.9992V102.454H49.7312ZM51.9992 99.864V100.578H49.7312V99.864H51.9992ZM53.6372 98.674H48.1492V103.658H51.9992V109.258C51.9992 109.454 51.9292 109.538 51.7052 109.538C51.4952 109.552 50.8092 109.552 50.1792 109.524C50.4032 109.958 50.6272 110.714 50.6832 111.176C51.7472 111.176 52.4752 111.134 52.9792 110.854C53.4832 110.588 53.6372 110.126 53.6372 109.272V98.674ZM64.2772 104.4H61.5332V103.588H64.2772V104.4ZM65.8872 101.222H64.2772V102.244H61.5332V101.222H59.9932V102.244H58.2152V103.588H59.9932V105.702H62.1212V106.458H58.6772V110.532H60.2872V107.886H62.1212V111.246H63.7592V107.886H65.6772V109.02C65.6772 109.174 65.6212 109.216 65.4532 109.216C65.2992 109.23 64.7252 109.23 64.2212 109.202C64.4032 109.608 64.5852 110.182 64.6552 110.63C65.5512 110.63 66.2232 110.63 66.6852 110.406C67.2032 110.168 67.3152 109.776 67.3152 109.062V106.458H63.7592V105.702H65.8872V103.588H67.9872V102.244H65.8872V101.222ZM63.3392 99.458C63.1712 98.982 62.9052 98.436 62.6392 97.974L61.0152 98.436C61.1692 98.758 61.3232 99.108 61.4492 99.458H56.2832V103.378C56.2832 105.422 56.1992 108.348 55.0372 110.322C55.4152 110.49 56.1152 110.966 56.3952 111.246C57.6692 109.076 57.8792 105.632 57.8792 103.378V100.942H68.0992V99.458H63.3392Z" fill="#FFA0B2"/>
<path d="M6.408 11.68V15.904H4.2V11.68H6.408ZM4.2 22.912V18.4H6.408V22.912H4.2ZM9.072 9.136H1.56V27.568H4.2V25.456H9.072V9.136ZM10.464 23.44C11.448 24.688 12.672 26.44 13.224 27.472L15.72 26.008C15.12 24.952 13.824 23.32 12.84 22.168L10.464 23.44ZM23.112 12.736V10.24H17.712V7.672H14.904V10.24H9.504V12.736H14.904V15.016H10.272V17.488H17.928V19.36H9.528V21.832H17.928V26.992C17.928 27.328 17.808 27.424 17.424 27.424C17.064 27.424 15.744 27.424 14.592 27.376C14.952 28.144 15.384 29.272 15.48 30.064C17.256 30.064 18.576 29.992 19.488 29.584C20.448 29.152 20.712 28.432 20.712 27.064V21.832H23.016V19.36H20.712V17.488H22.464V15.016H17.712V12.736H23.112ZM32.472 10.648V11.92H28.776V10.648H32.472ZM28.776 15.208V13.84H32.472V15.208H28.776ZM35.136 17.248V8.584H25.944V30.088H28.776V17.248H35.136ZM39.504 15.256V13.84H43.32V15.256H39.504ZM43.32 10.648V11.92H39.504V10.648H43.32ZM33.96 25.768V24.28H37.92V25.768H33.96ZM37.92 22.24H33.96V20.8H37.92V22.24ZM46.2 8.584H36.792V17.296H43.32V26.68C43.32 27.064 43.176 27.208 42.744 27.208C42.432 27.232 41.544 27.232 40.608 27.208V18.712L32.544 18.688V18.712H31.368V29.08H33.96V27.856H39.912C40.2 28.6 40.464 29.488 40.536 30.088C42.6 30.088 43.992 30.016 44.928 29.536C45.888 29.08 46.2 28.24 46.2 26.704V8.584Z" fill="#FFA0B2"/>
<line y1="42.75" x2="477" y2="42.75" stroke="#FFA0B2" stroke-width="0.5"/>
<path d="M8.498 187.146H10.178V185.942H13.23V184.374H10.178V183.142H8.498V184.374H7.224V185.942H8.498V187.146ZM5.544 183.142H3.892V184.374H0.756V185.942H3.892V187.076C3.108 188.742 1.75 190.366 0.308 191.374C0.7 191.64 1.372 192.228 1.68 192.55C2.072 192.228 2.464 191.836 2.87 191.43V196.218H4.522V189.344C4.914 188.77 5.25 188.182 5.544 187.594L4.032 187.118H5.544V185.942H6.762V184.374H5.544V183.142ZM9.534 194.496C8.932 194.496 8.848 194.412 8.848 193.796V190.898H13.174V189.344H8.848V187.342H7.196V193.796C7.196 195.518 7.658 196.036 9.324 196.036H11.452C12.908 196.036 13.356 195.35 13.538 193.096C13.09 192.984 12.404 192.704 12.04 192.438C11.956 194.16 11.858 194.496 11.298 194.496H9.534ZM25.06 188.91V189.47H23.534V188.91H25.06ZM25.06 190.968H23.534V190.394H25.06V190.968ZM20.538 190.968V190.394H22.05V190.968H20.538ZM20.538 188.91H22.05V189.47H20.538V188.91ZM23.142 185.746H22.05V186.348H18.662V187.454H22.05V187.93H19.152V191.948H22.05V192.48H18.55V193.656H22.05V194.398H23.534V193.656H27.132V192.48H23.534V191.948H26.502V187.93H23.534V187.454H26.95V186.348H23.534V185.746H24.794V185.144H27.216V183.842H24.794V183.142H23.142V183.842H21.238V185.144H23.142V185.746ZM17.304 185.998H18.956V185.144H20.748V183.842H18.956V183.142H17.304V183.842H14.77V185.144H17.304V185.998ZM15.4 186.18C15.82 186.698 16.338 187.412 16.59 187.846L17.99 187.216C17.71 186.796 17.206 186.152 16.758 185.662L15.4 186.18ZM17.892 190.702L17.626 190.758H16.898C17.584 190.002 18.368 189.022 18.858 188.42L17.85 187.902L17.612 188H14.826V189.33H16.478C16.058 189.848 15.624 190.324 15.414 190.506C15.162 190.744 14.91 190.856 14.686 190.912C14.84 191.192 15.148 191.906 15.218 192.256C15.33 192.144 15.75 192.046 16.086 192.046H16.814C16.282 193.362 15.372 194.384 14.266 194.972C14.546 195.21 15.022 195.868 15.204 196.218C15.932 195.784 16.618 195.154 17.192 194.356C18.242 195.798 19.852 196.092 22.414 196.092C23.982 196.092 25.718 196.036 27.118 195.966C27.202 195.518 27.412 194.804 27.636 194.454C26.11 194.608 23.884 194.692 22.428 194.692C20.244 194.692 18.718 194.51 17.878 193.208C18.172 192.592 18.438 191.878 18.62 191.122L17.892 190.702ZM29.358 192.13C29.12 193.082 28.728 194.118 28.294 194.804C28.602 194.958 29.176 195.28 29.442 195.476C29.89 194.706 30.366 193.502 30.646 192.424L29.358 192.13ZM32.69 192.508C33.04 193.152 33.39 194.02 33.53 194.58L34.664 194.062C34.51 193.502 34.132 192.676 33.768 192.06L32.69 192.508ZM35.644 191.892C35.392 192.83 34.846 194.034 34.216 194.818C34.538 194.972 35.042 195.308 35.322 195.546C36.008 194.678 36.624 193.362 37.016 192.242L35.644 191.892ZM30.422 189.764H32.872V190.408H30.422V189.764ZM32.872 184.808V185.48H30.422V184.808H32.872ZM30.422 188.168H32.872V188.756H30.422V188.168ZM32.872 187.16H30.422V186.488H32.872V187.16ZM40.194 191.234C40.292 191.444 40.362 191.64 40.432 191.808L41.622 191.164C41.314 190.464 40.642 189.288 40.11 188.448L38.99 188.994C39.186 189.302 39.382 189.68 39.578 190.044L37.394 190.128C38.668 189.19 39.928 188.028 41.048 186.81L39.928 185.998C39.634 186.362 39.312 186.726 38.976 187.076L37.408 187.132C37.996 186.712 38.598 186.236 39.144 185.718L37.982 185.116C38.724 184.85 39.424 184.542 40.054 184.192L38.99 182.974C37.912 183.674 36.134 184.402 34.524 184.864C34.72 185.172 34.944 185.718 35.028 186.054C35.952 185.802 36.946 185.508 37.912 185.144C37.128 186.026 36.05 186.81 35.7 187.02C35.364 187.244 35.098 187.384 34.832 187.426C34.972 187.748 35.168 188.364 35.224 188.63C35.49 188.532 35.882 188.448 37.674 188.336C36.988 188.98 36.386 189.456 36.092 189.652C35.532 190.072 35.14 190.324 34.748 190.394V190.408H34.272V183.618H29.078V190.408H28.518V191.724H31.052V196.05H32.452V191.724H34.748V190.422C34.916 190.786 35.098 191.43 35.168 191.682C35.42 191.57 35.798 191.514 37.282 191.416V194.986C37.282 195.112 37.24 195.14 37.1 195.154C36.988 195.154 36.596 195.154 36.218 195.14C36.372 195.42 36.54 195.826 36.596 196.162C37.296 196.162 37.814 196.148 38.178 195.994C38.57 195.826 38.682 195.602 38.682 195.028V191.318L40.194 191.234ZM38.864 192.284C39.34 193.236 39.928 194.524 40.194 195.266L41.482 194.664C41.188 193.922 40.572 192.69 40.068 191.78L38.864 192.284ZM48.118 185.354H44.114V186.334H53.928V185.354H49.798V184.878H55.16V183.842H49.798V183.142H48.118V183.842H42.91V184.878H48.118V185.354ZM54.866 189.274C55.062 188.672 55.286 187.72 55.454 186.894L54.292 186.712L54.04 186.754H42.84V187.874H53.676C53.606 188.322 53.536 188.728 53.466 189.05L54.866 189.274ZM43.764 189.596V190.478H54.18V189.596H49.77V189.148H52.948V188.308H44.828V189.148H48.132V189.596H43.764ZM46.62 193.544V194.51H44.926V193.544H46.62ZM48.09 192.508H43.498V195.994H44.926V195.56H48.09V192.508ZM55.552 192.06V190.884H42.476V192.06H52.402V192.634H48.482V193.74H49.532L48.874 194.23C49.322 194.622 49.84 195.196 50.064 195.602L51.156 194.762C50.96 194.454 50.582 194.076 50.218 193.74H52.402V194.86C52.402 195 52.346 195.028 52.206 195.028C52.08 195.028 51.632 195.028 51.24 195.014C51.408 195.364 51.576 195.826 51.646 196.19C52.388 196.19 52.962 196.19 53.368 196.022C53.816 195.84 53.914 195.546 53.914 194.902V193.74H55.048V192.634H53.914V192.06H55.552ZM68.488 183.52H67.032V187.664H65.856V187.202H66.71V186.432H65.856V185.984H66.626V185.228H65.856V184.78H66.682V184.024H65.856V183.324H64.876V184.024H64.022V184.78H64.876V185.228H64.064V185.984H64.876V186.432H63.994V187.202H64.876V187.664H63.7V183.142H62.244V187.664H61.04V187.202H61.936V186.432H61.04V185.984H61.852V185.228H61.04V184.78H61.908V184.024H61.04V183.324H60.074V184.024H59.262V184.78H60.074V185.228H59.304V185.984H60.074V186.432H59.234V187.202H60.074V187.664H58.912V183.52H57.512V188.784H68.488V183.52ZM69.076 189.246H56.952V190.366H69.076V189.246ZM64.918 193.572C64.75 193.964 64.512 194.412 64.33 194.748H61.712L61.81 194.72C61.726 194.398 61.53 193.964 61.32 193.572H64.918ZM60.004 191.808H66.15V192.606H60.004V191.808ZM65.954 194.748C66.164 194.426 66.388 194.034 66.612 193.614L66.458 193.572H67.802V190.828H58.45V193.572H59.822L59.654 193.614C59.85 193.95 60.046 194.384 60.172 194.748H56.784V195.952H69.216V194.748H65.954ZM73.654 189.12C73.598 189.512 73.542 189.876 73.472 190.226L72.52 190.338C73.388 189.148 74.256 187.72 74.942 186.278V189.274L73.654 189.12ZM77.546 185.956V187.188H76.37V185.956H77.546ZM76.37 189.666V188.504H77.546V189.666H76.37ZM76.776 191.878C76.958 192.354 77.126 192.886 77.294 193.404L76.37 193.684V191.066H78.876V184.556H77.896C77.7 184.108 77.392 183.576 77.084 183.142L75.754 183.618C75.936 183.884 76.132 184.22 76.286 184.556H74.942V186.25L73.598 185.718C73.444 186.096 73.262 186.502 73.08 186.894L72.338 186.95C72.884 185.998 73.472 184.808 73.85 183.674L72.31 183.324C72.002 184.668 71.358 186.096 71.148 186.46C70.938 186.824 70.728 187.09 70.504 187.16C70.672 187.538 70.896 188.21 70.98 188.518C71.176 188.42 71.47 188.336 72.394 188.224C71.974 188.98 71.582 189.568 71.4 189.806C71.05 190.296 70.77 190.618 70.462 190.688C70.63 191.038 70.854 191.71 70.924 191.976C71.162 191.878 71.512 191.78 73.108 191.556C72.59 193.04 71.736 194.174 70.448 194.93C70.714 195.182 71.134 195.77 71.274 196.05C73.374 194.692 74.466 192.508 74.942 189.456V193.656C74.942 194.23 74.578 194.496 74.312 194.622C74.508 194.888 74.76 195.434 74.83 195.756C75.096 195.56 75.516 195.406 77.658 194.692C77.742 195.014 77.812 195.322 77.854 195.588L79.212 195.07C79.044 194.146 78.526 192.62 78.092 191.458L76.776 191.878ZM82.488 183.772L82.264 183.828H79.296V196.204H80.668V185.27H81.788C81.536 186.334 81.2 187.776 80.892 188.798C81.718 189.932 81.9 190.94 81.914 191.71C81.914 192.186 81.83 192.55 81.662 192.69C81.55 192.774 81.41 192.816 81.284 192.816C81.102 192.816 80.906 192.816 80.668 192.802C80.878 193.222 80.99 193.866 81.004 194.272C81.312 194.286 81.634 194.286 81.872 194.244C82.194 194.202 82.474 194.09 82.684 193.908C83.104 193.572 83.314 192.9 83.314 191.92C83.314 190.996 83.118 189.89 82.25 188.644C82.642 187.454 83.146 185.788 83.538 184.43L82.488 183.772ZM89.026 191.85C88.578 192.004 88.116 192.144 87.654 192.284V189.484H88.914V187.958H87.654V185.494H89.152V183.94H84.532V185.494H86.072V187.958H84.658V189.484H86.072V192.774C85.428 192.956 84.854 193.11 84.364 193.236L84.742 194.93C86.086 194.496 87.766 193.964 89.306 193.418L89.026 191.85ZM91.182 187.622H92.624V188.826H91.182V187.622ZM91.182 185.144H92.624V186.32H91.182V185.144ZM95.41 186.32H94.024V185.144H95.41V186.32ZM95.41 188.826H94.024V187.622H95.41V188.826ZM94.178 194.272V192.942H97.146V191.444H94.178V190.24H96.992V183.73H89.684V190.24H92.484V191.444H89.586V192.942H92.484V194.272H88.62V195.784H97.622V194.272H94.178ZM106.624 189.232H109.2V190.072H106.624V189.232ZM106.624 187.202H109.2V188.014H106.624V187.202ZM106.624 185.158H109.2V185.97H106.624V185.158ZM103.684 191.92C104.314 192.508 105.14 193.362 105.532 193.866L106.736 192.858C106.4 192.466 105.798 191.878 105.252 191.374H110.796V183.842H105.112V191.248L104.832 190.996L103.684 191.92ZM101.01 191.542H102.592V188.616C103.096 189.078 103.614 189.582 103.936 189.932L104.804 188.602C104.482 188.336 103.152 187.384 102.592 187.062V186.544H104.566V185.13H102.592V183.156H101.01V185.13H98.714V186.544H100.744C100.198 187.762 99.288 188.98 98.364 189.666C98.7 189.932 99.19 190.45 99.428 190.814C100.002 190.31 100.534 189.61 101.01 188.784V191.542ZM99.988 195.448C100.478 194.636 100.884 193.39 101.164 192.396L99.68 191.808C99.442 192.802 98.966 193.95 98.462 194.692L99.988 195.448ZM104.216 194.468C103.46 194.468 103.32 194.412 103.32 193.992V192.102H101.668V194.02C101.668 195.476 102.158 195.938 104.062 195.938H106.582C108.122 195.938 108.584 195.448 108.794 193.446C108.332 193.362 107.632 193.124 107.296 192.858C107.212 194.272 107.114 194.468 106.456 194.468H104.216ZM108.402 192.298C108.948 193.236 109.718 194.468 110.054 195.21L111.608 194.412C111.23 193.684 110.418 192.494 109.858 191.626L108.402 192.298ZM120.092 191.024C120.708 190.646 121.282 190.24 121.814 189.75C122.346 190.226 122.92 190.646 123.564 191.024H120.092ZM120.47 194.286V192.424H123.102V194.286H120.47ZM118.09 189.932H116.55V188.294H117.95V187.398C118.328 187.65 118.832 188.098 119.07 188.35C119.35 188.056 119.63 187.734 119.896 187.384C120.148 187.79 120.428 188.21 120.764 188.616C119.98 189.344 119.056 189.946 118.09 190.366V189.932ZM114.576 185.088H116.424V186.866H114.576V185.088ZM122.766 185.886C122.486 186.474 122.15 187.02 121.744 187.538C121.352 187.062 121.002 186.572 120.722 186.096L120.834 185.886H122.766ZM123.76 184.416L123.466 184.472H121.506C121.632 184.164 121.744 183.842 121.856 183.534L120.274 183.142C119.812 184.668 118.972 186.152 117.95 187.132V183.66H113.12V188.294H115.08V193.558L114.38 193.698V189.274H113.022V193.978L112.392 194.09L112.686 195.686C114.268 195.322 116.396 194.832 118.356 194.342L118.202 192.872L116.55 193.25V191.388H118.09V190.982C118.286 191.248 118.496 191.556 118.608 191.78L118.93 191.64V196.19H120.47V195.714H123.102V196.148H124.698V191.57L124.726 191.584C124.95 191.15 125.426 190.492 125.762 190.184C124.642 189.834 123.676 189.274 122.864 188.63C123.718 187.594 124.376 186.334 124.81 184.864L123.76 184.416ZM127.148 195H133.378V193.334H131.432V184.626H129.906C129.248 185.046 128.534 185.312 127.498 185.508V186.782H129.374V193.334H127.148V195ZM138.374 186.488H136.526V184.836H138.374V186.488ZM139.62 183.66H135.35V187.65H139.62V183.66ZM136.96 190.8C137.016 190.492 137.086 190.184 137.142 189.862H139.914V188.42H134.72V189.862H135.756C135.602 190.646 135.42 191.458 135.252 192.088H137.954C137.842 193.698 137.702 194.37 137.534 194.58C137.408 194.706 137.282 194.734 137.086 194.72C136.848 194.72 136.386 194.72 135.882 194.664C136.12 195.042 136.26 195.602 136.274 196.022C136.862 196.05 137.436 196.05 137.758 196.008C138.164 195.952 138.444 195.84 138.696 195.518C139.074 195.112 139.242 194.006 139.41 191.374C139.424 191.178 139.438 190.8 139.438 190.8H136.96ZM142.49 191.178C142.42 193.012 142.252 194.342 141.02 195.168C141.342 195.392 141.734 195.91 141.902 196.26C143.47 195.21 143.778 193.474 143.862 191.178H142.49ZM144.842 189.526C144.548 189.526 144.52 189.372 144.52 189.022V188.938L145.948 188.812L145.836 187.72L144.52 187.846V187.146H146.34C146.284 187.608 146.214 188.07 146.158 188.392L147.376 188.686C147.572 188.014 147.768 186.936 147.922 185.998L146.886 185.788L146.662 185.83H144.646V185.214H147.32V183.898H144.646V183.142H143.064V185.83H140.348V189.428C140.348 191.206 140.264 193.642 139.214 195.35C139.55 195.504 140.18 195.966 140.446 196.218C141.594 194.356 141.79 191.444 141.79 189.442V187.146H143.134V187.972L142.014 188.07L142.154 189.162L143.134 189.078C143.148 190.17 143.4 190.716 144.562 190.716H146.032C146.396 190.716 146.83 190.688 147.054 190.604C146.998 190.24 146.97 189.834 146.942 189.428C146.732 189.498 146.242 189.526 145.962 189.526H144.842ZM146.2 194.524C146.13 194.524 146.046 194.496 146.004 194.44C145.962 194.412 145.948 194.328 145.948 194.244V191.164H144.59V194.384C144.59 195.182 144.646 195.406 144.884 195.658C145.108 195.882 145.458 195.98 145.808 195.98H146.55C146.816 195.98 147.124 195.91 147.32 195.784C147.53 195.63 147.67 195.448 147.782 195.154C147.852 194.874 147.922 194.188 147.95 193.53C147.586 193.418 147.082 193.138 146.83 192.9C146.83 193.488 146.802 193.978 146.774 194.188C146.76 194.314 146.718 194.412 146.662 194.468C146.62 194.51 146.536 194.524 146.438 194.524H146.2ZM157.526 189.68C157.526 192.676 158.772 194.916 160.284 196.4L161.614 195.812C160.214 194.3 159.108 192.368 159.108 189.68C159.108 186.992 160.214 185.06 161.614 183.548L160.284 182.96C158.772 184.444 157.526 186.684 157.526 189.68ZM170.742 187.146H172.422V185.942H175.474V184.374H172.422V183.142H170.742V184.374H169.468V185.942H170.742V187.146ZM167.788 183.142H166.136V184.374H163V185.942H166.136V187.076C165.352 188.742 163.994 190.366 162.552 191.374C162.944 191.64 163.616 192.228 163.924 192.55C164.316 192.228 164.708 191.836 165.114 191.43V196.218H166.766V189.344C167.158 188.77 167.494 188.182 167.788 187.594L166.276 187.118H167.788V185.942H169.006V184.374H167.788V183.142ZM171.778 194.496C171.176 194.496 171.092 194.412 171.092 193.796V190.898H175.418V189.344H171.092V187.342H169.44V193.796C169.44 195.518 169.902 196.036 171.568 196.036H173.696C175.152 196.036 175.6 195.35 175.782 193.096C175.334 192.984 174.648 192.704 174.284 192.438C174.2 194.16 174.102 194.496 173.542 194.496H171.778ZM187.304 188.91V189.47H185.778V188.91H187.304ZM187.304 190.968H185.778V190.394H187.304V190.968ZM182.782 190.968V190.394H184.294V190.968H182.782ZM182.782 188.91H184.294V189.47H182.782V188.91ZM185.386 185.746H184.294V186.348H180.906V187.454H184.294V187.93H181.396V191.948H184.294V192.48H180.794V193.656H184.294V194.398H185.778V193.656H189.376V192.48H185.778V191.948H188.746V187.93H185.778V187.454H189.194V186.348H185.778V185.746H187.038V185.144H189.46V183.842H187.038V183.142H185.386V183.842H183.482V185.144H185.386V185.746ZM179.548 185.998H181.2V185.144H182.992V183.842H181.2V183.142H179.548V183.842H177.014V185.144H179.548V185.998ZM177.644 186.18C178.064 186.698 178.582 187.412 178.834 187.846L180.234 187.216C179.954 186.796 179.45 186.152 179.002 185.662L177.644 186.18ZM180.136 190.702L179.87 190.758H179.142C179.828 190.002 180.612 189.022 181.102 188.42L180.094 187.902L179.856 188H177.07V189.33H178.722C178.302 189.848 177.868 190.324 177.658 190.506C177.406 190.744 177.154 190.856 176.93 190.912C177.084 191.192 177.392 191.906 177.462 192.256C177.574 192.144 177.994 192.046 178.33 192.046H179.058C178.526 193.362 177.616 194.384 176.51 194.972C176.79 195.21 177.266 195.868 177.448 196.218C178.176 195.784 178.862 195.154 179.436 194.356C180.486 195.798 182.096 196.092 184.658 196.092C186.226 196.092 187.962 196.036 189.362 195.966C189.446 195.518 189.656 194.804 189.88 194.454C188.354 194.608 186.128 194.692 184.672 194.692C182.488 194.692 180.962 194.51 180.122 193.208C180.416 192.592 180.682 191.878 180.864 191.122L180.136 190.702ZM195.27 191.85C194.822 192.004 194.36 192.144 193.898 192.284V189.484H195.158V187.958H193.898V185.494H195.396V183.94H190.776V185.494H192.316V187.958H190.902V189.484H192.316V192.774C191.672 192.956 191.098 193.11 190.608 193.236L190.986 194.93C192.33 194.496 194.01 193.964 195.55 193.418L195.27 191.85ZM197.426 187.622H198.868V188.826H197.426V187.622ZM197.426 185.144H198.868V186.32H197.426V185.144ZM201.654 186.32H200.268V185.144H201.654V186.32ZM201.654 188.826H200.268V187.622H201.654V188.826ZM200.422 194.272V192.942H203.39V191.444H200.422V190.24H203.236V183.73H195.928V190.24H198.728V191.444H195.83V192.942H198.728V194.272H194.864V195.784H203.866V194.272H200.422ZM212.868 189.232H215.444V190.072H212.868V189.232ZM212.868 187.202H215.444V188.014H212.868V187.202ZM212.868 185.158H215.444V185.97H212.868V185.158ZM209.928 191.92C210.558 192.508 211.384 193.362 211.776 193.866L212.98 192.858C212.644 192.466 212.042 191.878 211.496 191.374H217.04V183.842H211.356V191.248L211.076 190.996L209.928 191.92ZM207.254 191.542H208.836V188.616C209.34 189.078 209.858 189.582 210.18 189.932L211.048 188.602C210.726 188.336 209.396 187.384 208.836 187.062V186.544H210.81V185.13H208.836V183.156H207.254V185.13H204.958V186.544H206.988C206.442 187.762 205.532 188.98 204.608 189.666C204.944 189.932 205.434 190.45 205.672 190.814C206.246 190.31 206.778 189.61 207.254 188.784V191.542ZM206.232 195.448C206.722 194.636 207.128 193.39 207.408 192.396L205.924 191.808C205.686 192.802 205.21 193.95 204.706 194.692L206.232 195.448ZM210.46 194.468C209.704 194.468 209.564 194.412 209.564 193.992V192.102H207.912V194.02C207.912 195.476 208.402 195.938 210.306 195.938H212.826C214.366 195.938 214.828 195.448 215.038 193.446C214.576 193.362 213.876 193.124 213.54 192.858C213.456 194.272 213.358 194.468 212.7 194.468H210.46ZM214.646 192.298C215.192 193.236 215.962 194.468 216.298 195.21L217.852 194.412C217.474 193.684 216.662 192.494 216.102 191.626L214.646 192.298ZM231.46 188.616V186.894H225.958C226.098 185.592 226.112 184.304 226.126 183.156H224.306C224.292 184.304 224.306 185.578 224.166 186.894H219.07V188.616H223.886C223.34 191.024 222.01 193.348 218.804 194.776C219.294 195.126 219.784 195.728 220.05 196.19C223.018 194.762 224.53 192.578 225.286 190.24C226.378 192.942 228.002 194.986 230.536 196.176C230.802 195.7 231.348 194.958 231.768 194.608C229.15 193.544 227.456 191.346 226.532 188.616H231.46ZM235.94 191.01V187.944H237.242V186.362H235.94V183.324H234.4V186.362H232.888V187.944H234.4V191.654C233.714 191.934 233.098 192.158 232.58 192.34L233.252 194.02C234.526 193.446 236.094 192.69 237.55 191.976L237.172 190.492L235.94 191.01ZM240.714 194.468C239.86 194.468 239.734 194.342 239.734 193.53V189.204L240.896 188.7V192.97H242.45V188.028L243.528 187.552C243.472 189.204 243.36 190.982 243.206 192.116L244.564 192.494C244.9 190.814 245.096 188.266 245.18 186.32L245.236 186.068L243.976 185.662L242.45 186.32V183.128H240.896V186.992L239.734 187.482V184.486H238.138V188.168L236.766 188.756L237.382 190.226L238.138 189.904V193.516C238.138 195.434 238.684 195.952 240.574 195.952H243.556C245.194 195.952 245.67 195.28 245.894 193.32C245.432 193.236 244.802 192.97 244.438 192.718C244.312 194.146 244.172 194.468 243.416 194.468H240.714ZM250.654 184.598C250.136 184.15 249.058 183.59 248.246 183.268L247.322 184.514C248.148 184.878 249.184 185.494 249.674 185.97L250.654 184.598ZM250.108 188.238C249.548 187.776 248.428 187.23 247.574 186.936L246.678 188.196C247.532 188.574 248.638 189.176 249.142 189.638L250.108 188.238ZM248.89 190.576C248.26 192.242 247.42 194.02 246.804 195.112L248.33 196.064C248.988 194.678 249.688 193.04 250.248 191.528L248.89 190.576ZM256.856 188.168V188.966H255.05V188.168H256.856ZM253.58 188.168V190.226H258.396V188.168H259.614V186.866H258.396V185.984H256.856V186.866H255.05V185.984H253.58V186.866H252.46V185.732H259.656V184.346H256.408C256.268 183.926 256.072 183.45 255.904 183.044L254.336 183.394C254.462 183.674 254.574 184.01 254.672 184.346H250.892V188.14C250.892 190.254 250.766 193.278 249.45 195.35C249.87 195.504 250.556 195.882 250.85 196.134C252.236 193.936 252.46 190.492 252.46 188.168H253.58ZM257.136 192.06C256.814 192.48 256.436 192.844 255.988 193.166C255.568 192.844 255.204 192.48 254.91 192.06H257.136ZM258.326 190.688L258.046 190.744H257.738V190.758H252.656V192.06H253.202C253.594 192.788 254.084 193.432 254.644 193.978C253.804 194.37 252.838 194.65 251.816 194.832C252.096 195.154 252.46 195.77 252.614 196.176C253.818 195.896 254.938 195.518 255.932 194.972C256.786 195.504 257.794 195.882 258.942 196.148C259.152 195.714 259.6 195.084 259.95 194.762C258.97 194.594 258.102 194.328 257.346 193.992C258.214 193.236 258.886 192.312 259.334 191.136L258.326 190.688ZM273.096 183.674H269.022V185.074H271.57V187.048H269.022V188.448H273.096V183.674ZM262.876 183.156C262.428 185.242 261.63 187.272 260.566 188.574C260.846 188.98 261.266 189.918 261.364 190.338C261.588 190.072 261.798 189.792 262.008 189.484V196.204H263.59V186.306C263.94 185.41 264.206 184.458 264.444 183.534L262.876 183.156ZM267.16 185.046V187.132H266.124V185.046H267.16ZM268.532 193.488V192.116H266.124V190.912H268.35V189.554H266.124V188.49H268.588V183.674H264.598V196.19H266.124V193.488H268.532ZM271.598 190.506C271.402 191.178 271.136 191.766 270.814 192.312C270.492 191.752 270.226 191.15 270.03 190.506H271.598ZM272.382 189.12L272.116 189.162H268.672V190.506H269.582L268.756 190.702C269.05 191.724 269.428 192.662 269.918 193.474C269.232 194.188 268.378 194.72 267.412 195.042C267.706 195.336 268.056 195.882 268.238 196.26C269.232 195.854 270.072 195.35 270.786 194.65C271.402 195.322 272.102 195.854 272.956 196.232C273.18 195.84 273.6 195.28 273.922 194.986C273.082 194.664 272.34 194.188 271.752 193.544C272.494 192.48 273.026 191.108 273.32 189.386L272.382 189.12ZM277.156 185.858C277.394 185.606 277.632 185.34 277.842 185.074C278.248 185.312 278.696 185.592 279.102 185.858H277.156ZM276.694 186.894H279.158V185.9C279.508 186.124 279.802 186.348 280.012 186.516L280.782 185.298C280.292 184.934 279.382 184.402 278.598 183.982C278.696 183.828 278.794 183.674 278.878 183.52L277.506 183.016C276.89 184.136 275.756 185.172 274.65 185.83C274.86 186.208 275.224 187.048 275.322 187.412C275.798 187.104 276.246 186.726 276.694 186.32V186.894ZM281.916 194.86C282.42 193.292 282.588 191.402 282.63 189.806C282.966 190.968 283.358 192.032 283.876 192.984C283.33 193.768 282.658 194.412 281.916 194.86ZM285.71 188.504C285.486 189.582 285.164 190.59 284.758 191.458C284.324 190.562 283.974 189.554 283.708 188.504H285.71ZM278.794 188.588V189.26H276.946V188.588H278.794ZM276.946 191.206V190.408H278.794V191.206H276.946ZM286.424 187.006L286.158 187.048H282.644V185.41H287.166V183.912H281.174V185.41H281.188V188.812C281.188 190.618 281.118 193.04 280.334 194.86C280.082 194.16 279.704 193.208 279.396 192.466L278.206 192.886C278.29 193.11 278.388 193.348 278.486 193.614L276.946 194.118V192.396H280.124V187.384H275.504V194.02C275.504 194.552 275.196 194.762 274.93 194.874C275.14 195.196 275.378 195.868 275.448 196.232C275.756 196.008 276.218 195.784 278.906 194.818C279.032 195.182 279.13 195.532 279.2 195.812L280.054 195.448C280.404 195.602 281.034 196.008 281.314 196.246C281.496 195.952 281.65 195.616 281.776 195.252C282.07 195.574 282.364 195.994 282.546 196.288C283.4 195.784 284.142 195.14 284.786 194.356C285.374 195.098 286.06 195.714 286.872 196.204C287.11 195.784 287.6 195.182 287.936 194.874C287.068 194.44 286.326 193.782 285.71 192.984C286.536 191.486 287.11 189.596 287.404 187.286L286.424 187.006ZM298.898 194.034H293.984V192.326H298.898V194.034ZM296.98 186.712H295.258V190.8H292.346V196.05H293.984V195.504H298.898V196.05H300.606V190.8H296.98V189.512H301.264V188.014H296.98V186.712ZM296.966 184.71C296.812 184.206 296.56 183.618 296.266 183.142L294.6 183.492C294.782 183.856 294.964 184.29 295.09 184.71H289.854V188.238C289.854 190.282 289.756 193.236 288.58 195.252C288.986 195.42 289.728 195.938 290.05 196.218C291.352 194.02 291.562 190.52 291.562 188.252V186.292H301.6V184.71H296.966ZM306.102 191.724H309.924V190.254H306.102V191.724ZM322.338 190.268C322.072 191.01 321.722 191.64 321.274 192.158C320.448 191.85 319.65 191.556 318.866 191.304C319.076 190.968 319.272 190.632 319.482 190.268H322.338ZM326.958 190.268V188.7H324.76C324.816 188.392 324.872 188.084 324.928 187.762H326.692V184.654H321.974C321.778 184.136 321.484 183.506 321.246 183.002L319.37 183.436C319.524 183.814 319.706 184.248 319.86 184.654H314.89V187.762H316.584V186.194H324.914V187.552L322.898 187.426C322.856 187.874 322.814 188.308 322.744 188.7H320.28C320.574 188.084 320.84 187.468 321.064 186.894L319.118 186.53C318.88 187.216 318.572 187.958 318.194 188.7H314.624V190.268H317.354C316.976 190.926 316.584 191.528 316.22 192.032C317.326 192.368 318.572 192.83 319.79 193.334C318.53 194.006 316.85 194.384 314.638 194.58C314.988 195 315.52 195.812 315.674 196.26C318.32 195.882 320.294 195.266 321.736 194.16C323.304 194.874 324.718 195.602 325.67 196.246L326.902 194.776C325.922 194.16 324.536 193.502 323.038 192.872C323.584 192.158 324.018 191.29 324.34 190.268H326.958ZM337.822 188.21H335.204L335.708 188.098C335.638 187.79 335.47 187.398 335.288 187.034H337.85C337.724 187.384 337.542 187.79 337.388 188.098L337.822 188.21ZM333.72 187.09C333.888 187.426 334.056 187.86 334.154 188.21H332.488V189.386H335.806V190.03H332.992V191.178H335.806V191.836H332.46V193.04H335.806V194.202H337.458V193.04H340.93V191.836H337.458V191.178H340.328V190.03H337.458V189.386H340.874V188.21H338.9C339.096 187.902 339.334 187.538 339.572 187.118L339.222 187.034H341.014V185.83H337.444V185.116H340.244V183.968H337.444V183.142H335.792V183.968H333.02V185.116H335.792V185.83H332.236V187.034H333.958L333.72 187.09ZM331.704 185.256C331.326 184.682 330.612 183.814 329.968 183.156L328.722 183.884C329.324 184.57 330.066 185.55 330.416 186.152L331.704 185.256ZM331.312 189.736L331.06 189.778H330.192C330.878 188.826 331.676 187.51 332.166 186.74L331.144 186.334L331.004 186.39H328.386V187.72H330.024C329.562 188.462 329.044 189.246 328.806 189.498C328.568 189.764 328.344 189.89 328.134 189.946C328.274 190.24 328.568 190.94 328.652 191.276C328.778 191.164 329.184 191.066 329.52 191.066H330.402C330.01 192.956 329.254 194.328 328.134 195.154C328.456 195.364 329.002 195.924 329.226 196.246C329.842 195.756 330.388 195.098 330.822 194.23C331.9 195.7 333.524 195.98 336.1 195.98C337.738 195.98 339.516 195.938 340.958 195.854C341.042 195.392 341.252 194.65 341.49 194.314C339.908 194.468 337.626 194.552 336.128 194.552C333.79 194.538 332.222 194.342 331.396 192.844C331.676 192.032 331.886 191.08 332.012 190.03L331.312 189.736ZM351.99 187.048H349.47V186.558H351.99V187.048ZM351.99 188.49H349.47V188H351.99V188.49ZM346.894 191.318L347.958 190.996C347.916 190.59 347.72 189.988 347.468 189.526H350.044L348.994 189.89C349.274 190.296 349.498 190.898 349.596 191.318H346.894ZM351.374 193.012H346.096V192.466H351.374V193.012ZM346.096 194.636V194.076H351.374V194.636H346.096ZM345.494 188H347.986V188.49H345.494V188ZM347.986 186.558V187.048H345.494V186.558H347.986ZM349.372 184.962C349.218 185.172 349.064 185.368 348.91 185.522H345.998C346.18 185.34 346.348 185.158 346.502 184.962H349.372ZM353.6 185.522H350.744C350.996 185.2 351.248 184.836 351.43 184.458L350.324 183.828L350.044 183.912H347.314C347.426 183.744 347.538 183.562 347.65 183.394L346.04 183.072C345.312 184.276 344.01 185.62 342.134 186.6C342.47 186.852 342.904 187.398 343.114 187.762C343.408 187.594 343.688 187.412 343.954 187.23V189.4L343.66 189.288C343.408 190.086 342.862 190.828 342.12 191.262L343.464 192.13C344.318 191.584 344.794 190.73 345.102 189.82L344.304 189.526H347.356L346.11 189.876C346.32 190.31 346.474 190.898 346.516 191.318H344.458V196.218H346.096V195.784H351.374V196.176H353.096V191.318H349.932L351.038 190.912C350.94 190.506 350.702 189.96 350.394 189.526H352.718L352.046 190.17C352.9 190.702 353.838 191.514 354.286 192.116L355.434 190.884C355.042 190.408 354.328 189.848 353.6 189.4V185.522ZM363.442 187.034H361.986V185.508H363.442V187.034ZM366.83 188.56V190.52C366.774 190.534 366.704 190.548 366.578 190.548H365.472C365.08 190.548 365.024 190.506 365.024 190.044V188.56H366.83ZM358.822 193.838V191.752C359.046 192.004 359.284 192.298 359.382 192.48C361.356 191.57 361.888 190.03 361.972 188.56H363.442V190.044C363.442 191.626 363.764 192.102 365.22 192.102H366.746H366.83V193.838H358.822ZM360.488 188.56C360.418 189.498 360.096 190.394 358.822 191.08V188.56H360.488ZM369.014 185.508V183.912H356.498V185.508H360.502V187.034H357.198V196.162H358.822V195.364H366.83V196.134H368.524V187.034H365.024V185.508H369.014ZM373.004 190.744V188.504H376V185.396H377.442V188.504H380.48V190.744H377.442V194.132H375.986V190.744H373.004ZM379.038 194.132V192.158H382.16V187.09H379.038V185.396H382.888V183.884H370.68V185.396H374.39V187.104H371.38V192.158H374.39V194.132H370.442V195.644H383.112V194.132H379.038ZM388.908 191.528C388.264 191.696 387.256 191.808 386.416 191.864C386.542 190.618 386.57 189.386 386.57 188.378V185.354H397.126V184.08H391.96C391.778 183.702 391.512 183.296 391.232 182.96L389.804 183.506C389.93 183.674 390.056 183.87 390.168 184.08H385.072V188.392C385.072 190.45 385.016 193.348 384.106 195.336C384.428 195.476 385.1 195.966 385.366 196.246C385.926 195.042 386.248 193.474 386.402 191.906C386.514 192.186 386.626 192.536 386.668 192.774C386.92 192.774 387.186 192.774 387.48 192.76V193.278H386.724V194.16H387.48V194.776L386.346 194.86L386.458 195.896C387.326 195.826 388.292 195.728 389.3 195.602L389.286 194.65L388.516 194.72V194.16H389.244V193.278H388.516V192.676C388.852 192.634 389.188 192.578 389.482 192.522L388.908 191.528ZM395.292 188.84H395.852V189.764H395.292V188.84ZM394.438 189.764H393.864V188.84H394.438V189.764ZM393.01 189.764H392.478V188.84H393.01V189.764ZM396.958 187.384V186.264H394.802V185.634H393.402V186.264H391.428V187.384H393.402V187.916H391.498V190.702H396.874V187.916H394.802V187.384H396.958ZM388.502 190.198V189.624H389.552V190.198H388.502ZM388.502 188.294H389.552V188.812H388.502V188.294ZM389.552 186.992V187.482H388.502V186.992H389.552ZM390.77 186.992H391.316V185.956H386.864V186.992H387.354V190.198H386.71V191.234H389.552V196.232H390.77V195.35L391.722 195.798C392.114 195.224 392.268 194.286 392.38 193.418L391.33 193.124C391.246 193.866 391.078 194.678 390.77 195.21V186.992ZM393.92 195.098C393.71 195.098 393.668 195.07 393.668 194.79V193.18C393.934 193.516 394.172 193.866 394.27 194.146L395.25 193.558C395.068 193.18 394.662 192.69 394.256 192.27H397.238V191.164H391.218V192.27H393.57L393.094 192.536C393.276 192.704 393.458 192.914 393.626 193.124H392.506V194.79C392.506 195.826 392.73 196.134 393.738 196.134H394.676C395.404 196.134 395.698 195.826 395.824 194.622C395.502 194.538 395.026 194.37 394.802 194.202C394.774 195 394.718 195.098 394.508 195.098H393.92ZM395.25 193.25C395.684 194.006 396.09 194.986 396.202 195.63L397.308 195.224C397.196 194.566 396.748 193.6 396.286 192.858L395.25 193.25ZM402.488 189.68C402.488 186.684 401.242 184.444 399.73 182.96L398.4 183.548C399.8 185.06 400.906 186.992 400.906 189.68C400.906 192.368 399.8 194.3 398.4 195.812L399.73 196.4C401.242 194.916 402.488 192.676 402.488 189.68Z" fill="#FFA0B2"/>
<path d="M6.336 150.16V144.904H8.568V142.192H6.336V136.984H3.696V142.192H1.104V144.904H3.696V151.264C2.52 151.744 1.464 152.128 0.576 152.44L1.728 155.32C3.912 154.336 6.6 153.04 9.096 151.816L8.448 149.272L6.336 150.16ZM14.52 156.088C13.056 156.088 12.84 155.872 12.84 154.48V147.064L14.832 146.2V153.52H17.496V145.048L19.344 144.232C19.248 147.064 19.056 150.112 18.792 152.056L21.12 152.704C21.696 149.824 22.032 145.456 22.176 142.12L22.272 141.688L20.112 140.992L17.496 142.12V136.648H14.832V143.272L12.84 144.112V138.976H10.104V145.288L7.752 146.296L8.808 148.816L10.104 148.264V154.456C10.104 157.744 11.04 158.632 14.28 158.632H19.392C22.2 158.632 23.016 157.48 23.4 154.12C22.608 153.976 21.528 153.52 20.904 153.088C20.688 155.536 20.448 156.088 19.152 156.088H14.52ZM27.768 140.512C28.104 141.568 28.344 142.912 28.392 143.848L29.64 143.44C29.568 142.528 29.256 141.088 28.896 140.008L27.768 140.344V139.336H29.784V144.544H27.768V140.512ZM33.576 140.392L32.424 139.984C32.256 140.92 31.848 142.336 31.512 143.272V139.336H33.576V140.392ZM31.512 144.544V143.488L32.52 143.872C32.832 143.2 33.192 142.144 33.576 141.16V144.544H31.512ZM36.072 150.856H31.896V149.656H35.736V147.496H31.896V146.464H35.784V137.416H25.632V146.464H29.376V147.496H25.68V149.656H29.376V150.856H25.2V153.016H36.072V150.856ZM26.616 158.728C27.288 157.576 27.72 155.752 28.032 154.288L26.136 153.592C25.872 155.008 25.296 156.808 24.624 157.912L26.616 158.728ZM28.464 154.288C28.656 155.608 28.752 157.336 28.704 158.488L30.528 158.272C30.552 157.12 30.432 155.416 30.192 154.096L28.464 154.288ZM30.888 154.24C31.32 155.512 31.728 157.168 31.824 158.248L33.576 157.888C33.456 156.808 33.024 155.176 32.592 153.928L30.888 154.24ZM43.656 155.56H39.216V150.544H43.656V155.56ZM47.208 144.28V141.64H42.552V136.72H39.768V147.952H36.624V157.168C36.336 156.136 35.664 154.672 34.968 153.592L33.288 154.192C33.96 155.392 34.632 157 34.872 158.08L36.624 157.384V159.064H39.216V158.152H43.656V158.992H46.392V147.952H42.552V144.28H47.208Z" fill="#FFA0B2"/>
<line y1="171.75" x2="477" y2="171.75" stroke="#FFA0B2" stroke-width="0.5"/>
<path d="M7 289.056C6.104 289.056 5.376 289.784 5.376 290.68C5.376 291.576 6.104 292.304 7 292.304C7.896 292.304 8.624 291.576 8.624 290.68C8.624 289.784 7.896 289.056 7 289.056ZM16.282 286.424H25.69V288.034H26.992V285.36H21.854C21.7 285.01 21.476 284.562 21.252 284.24L19.964 284.492C20.118 284.744 20.272 285.052 20.398 285.36H15.036V288.034H16.282V286.424ZM23.562 288.916H18.368V288.104H23.562V288.916ZM23.562 290.568H18.368V289.728H23.562V290.568ZM24.836 287.236H17.136V291.422H24.836V287.236ZM22.54 293.704C22.106 294.138 21.588 294.502 20.986 294.796C20.216 294.642 19.418 294.488 18.634 294.348C18.802 294.138 18.998 293.928 19.194 293.704H22.54ZM27.104 293.704V292.682H24.71C24.752 292.584 24.808 292.472 24.85 292.374L23.646 292.024C23.548 292.262 23.436 292.472 23.31 292.682H20.006C20.23 292.374 20.454 292.08 20.636 291.772L19.39 291.422C19.152 291.814 18.858 292.262 18.536 292.682H14.812V293.704H17.696C17.332 294.138 16.94 294.544 16.59 294.88C17.528 295.048 18.466 295.23 19.362 295.412C18.13 295.748 16.66 295.958 14.896 296.07C15.106 296.336 15.316 296.784 15.414 297.12C17.878 296.896 19.838 296.532 21.364 295.846C23.184 296.252 24.738 296.7 25.872 297.106L26.964 296.294C25.816 295.93 24.29 295.524 22.61 295.146C23.198 294.74 23.688 294.264 24.094 293.704H27.104ZM37.73 290.498H34.524V289.364H37.73V290.498ZM38.99 287.152H37.73V288.3H34.524V287.152H33.32V288.3H31.346V289.364H33.32V291.534H35.518V292.472H31.976V296.462H33.236V293.592H35.518V297.12H36.792V293.592H39.2V295.188C39.2 295.342 39.144 295.398 38.962 295.398C38.794 295.398 38.164 295.398 37.534 295.37C37.688 295.692 37.842 296.154 37.898 296.49C38.836 296.49 39.508 296.504 39.928 296.308C40.362 296.14 40.474 295.804 40.474 295.202V292.472H36.792V291.534H38.99V289.364H41.188V288.3H38.99V287.152ZM36.456 285.626C36.26 285.164 35.98 284.59 35.714 284.128L34.454 284.506C34.65 284.842 34.818 285.248 34.972 285.626H29.694V289.574C29.694 291.604 29.596 294.446 28.462 296.406C28.742 296.546 29.302 296.91 29.526 297.134C30.744 295.02 30.94 291.772 30.94 289.574V286.788H41.314V285.626H36.456ZM45.262 289.448C45.276 288.888 45.29 288.286 45.304 287.684H48.468V286.48H45.724L46.676 286.102C46.48 285.57 45.99 284.772 45.542 284.184L44.38 284.646C44.8 285.206 45.22 285.962 45.416 286.48H42.77V287.684H44.03C43.988 291.352 43.876 294.334 42.448 296.098C42.77 296.308 43.19 296.756 43.4 297.064C44.618 295.552 45.038 293.326 45.206 290.624H46.774C46.648 293.984 46.536 295.216 46.312 295.524C46.2 295.678 46.088 295.72 45.906 295.72C45.696 295.72 45.332 295.706 44.884 295.678C45.052 296 45.192 296.504 45.206 296.854C45.724 296.868 46.228 296.868 46.536 296.812C46.9 296.756 47.138 296.644 47.39 296.308C47.754 295.818 47.894 294.292 48.02 289.98C48.034 289.826 48.034 289.448 48.034 289.448H45.262ZM49.308 294.348C50.624 295.048 52.346 296.126 53.158 296.882L54.026 295.762C53.172 295.034 51.422 294.012 50.148 293.368L49.308 294.348ZM53.48 291.464C52.948 290.932 51.856 290.148 51.044 289.616L50.19 290.442C51.03 291.03 52.08 291.87 52.584 292.43L53.48 291.464ZM51.394 284.184C50.778 286.326 49.532 288.118 47.908 289.126C48.244 289.406 48.622 289.826 48.818 290.176C50.036 289.294 51.03 288.104 51.758 286.662C52.514 288.048 53.578 289.322 54.656 290.064C54.88 289.742 55.286 289.266 55.608 289.014C54.334 288.3 53.032 286.802 52.318 285.388C52.43 285.108 52.514 284.814 52.598 284.534L51.394 284.184ZM60.3485 296H66.2285V294.67H64.2125V285.682H62.9945C62.4065 286.06 61.7205 286.298 60.7545 286.48V287.502H62.6025V294.67H60.3485V296ZM67.7449 296H74.3949V294.628H71.8189C71.3149 294.628 70.6709 294.67 70.1389 294.726C72.3229 292.64 73.9049 290.582 73.9049 288.594C73.9049 286.732 72.6869 285.5 70.7969 285.5C69.4529 285.5 68.5429 286.074 67.6609 287.04L68.5709 287.936C69.1169 287.306 69.7889 286.788 70.6009 286.788C71.7629 286.788 72.3509 287.558 72.3509 288.678C72.3509 290.372 70.7829 292.374 67.7449 295.062V296ZM77.1993 290.68C77.8013 290.68 78.2773 290.204 78.2773 289.56C78.2773 288.902 77.8013 288.412 77.1993 288.412C76.5973 288.412 76.1213 288.902 76.1213 289.56C76.1213 290.204 76.5973 290.68 77.1993 290.68ZM77.1993 296.182C77.8013 296.182 78.2773 295.72 78.2773 295.062C78.2773 294.39 77.8013 293.914 77.1993 293.914C76.5973 293.914 76.1213 294.39 76.1213 295.062C76.1213 295.72 76.5973 296.182 77.1993 296.182ZM83.2732 296.182C85.2892 296.182 86.6052 294.39 86.6052 290.806C86.6052 287.25 85.2892 285.5 83.2732 285.5C81.2572 285.5 79.9412 287.236 79.9412 290.806C79.9412 294.39 81.2572 296.182 83.2732 296.182ZM83.2732 294.908C82.2232 294.908 81.4812 293.788 81.4812 290.806C81.4812 287.852 82.2232 286.774 83.2732 286.774C84.3232 286.774 85.0652 287.852 85.0652 290.806C85.0652 293.788 84.3232 294.908 83.2732 294.908ZM91.2576 296.182C93.2736 296.182 94.5896 294.39 94.5896 290.806C94.5896 287.25 93.2736 285.5 91.2576 285.5C89.2416 285.5 87.9256 287.236 87.9256 290.806C87.9256 294.39 89.2416 296.182 91.2576 296.182ZM91.2576 294.908C90.2076 294.908 89.4656 293.788 89.4656 290.806C89.4656 287.852 90.2076 286.774 91.2576 286.774C92.3076 286.774 93.0496 287.852 93.0496 290.806C93.0496 293.788 92.3076 294.908 91.2576 294.908ZM102.862 285.36C102.358 285.01 101.406 284.562 100.65 284.296L99.9785 285.192C100.734 285.486 101.686 285.99 102.162 286.354L102.862 285.36ZM106.922 287.6H104.64V286.718H106.922V287.6ZM106.922 289.28H104.64V288.454H106.922V289.28ZM106.922 291.058H104.64V290.134H106.922V291.058ZM101.77 287.712C102.078 287.922 102.526 288.286 102.75 288.496C102.96 288.314 103.156 288.118 103.366 287.922V292.654H104.64V292.094H111.332V291.058H108.154V290.134H110.646V289.28H108.154V288.454H110.618V287.6H108.154V286.718H111.108V285.724H108.42C108.252 285.318 107.972 284.758 107.748 284.366L106.516 284.688C106.656 284.996 106.838 285.374 106.964 285.724H105.102C105.354 285.346 105.578 284.94 105.774 284.548L104.528 284.17C103.926 285.472 102.918 286.76 101.812 287.586C101.308 287.278 100.328 286.886 99.6145 286.648L98.9565 287.53C99.6985 287.81 100.678 288.272 101.168 288.608L101.77 287.712ZM100.23 292.738C101.084 291.828 101.994 290.764 102.792 289.784L102.078 288.902C101.154 289.98 100.076 291.1 99.3205 291.758L100.23 292.738ZM111.696 293.354H106.026V292.388H104.696V293.354H99.1525V294.516H104.696V297.12H106.026V294.516H111.696V293.354ZM116.358 286.312V289.126H114.664V286.312H116.358ZM114.664 293.228V290.274H116.358V293.228H114.664ZM117.576 285.136H113.46V295.58H114.664V294.39H117.576V285.136ZM118.584 293.158C119.2 293.9 119.942 294.936 120.264 295.566L121.412 294.88C121.048 294.236 120.278 293.27 119.662 292.57L118.584 293.158ZM125.78 286.998V285.836H122.434V284.24H121.146V285.836H117.828V286.998H121.146V288.594H118.374V289.728H122.952V291.072H117.87V292.22H122.952V295.636C122.952 295.832 122.882 295.888 122.658 295.902C122.434 295.902 121.664 295.902 120.88 295.874C121.062 296.224 121.258 296.742 121.314 297.092C122.392 297.092 123.12 297.078 123.61 296.868C124.072 296.686 124.226 296.336 124.226 295.664V292.22H125.724V291.072H124.226V289.728H125.36V288.594H122.434V286.998H125.78ZM131.618 285.78V286.718H128.93V285.78H131.618ZM128.93 288.636V287.614H131.618V288.636H128.93ZM132.836 289.588V284.814H127.642V297.106H128.93V289.588H132.836ZM132.5 292.766V291.436H134.166V292.766H132.5ZM137.064 293.844V292.766H135.328V291.436H136.784V290.4H129.994V291.436H131.38V292.766H129.742V293.844H131.338C131.226 294.614 130.834 295.664 129.798 296.294C130.064 296.476 130.456 296.826 130.638 297.064C131.912 296.21 132.36 294.782 132.472 293.844H134.166V296.854H135.328V293.844H137.064ZM135.16 288.664V287.614H137.932V288.664H135.16ZM137.932 285.78V286.718H135.16V285.78H137.932ZM139.22 284.814H133.914V289.616H137.932V295.496C137.932 295.706 137.862 295.776 137.652 295.79C137.428 295.79 136.714 295.79 136 295.776C136.196 296.126 136.378 296.714 136.42 297.064C137.47 297.078 138.17 297.036 138.618 296.826C139.08 296.602 139.22 296.224 139.22 295.51V284.814ZM150.126 290.498H146.92V289.364H150.126V290.498ZM151.386 287.152H150.126V288.3H146.92V287.152H145.716V288.3H143.742V289.364H145.716V291.534H147.914V292.472H144.372V296.462H145.632V293.592H147.914V297.12H149.188V293.592H151.596V295.188C151.596 295.342 151.54 295.398 151.358 295.398C151.19 295.398 150.56 295.398 149.93 295.37C150.084 295.692 150.238 296.154 150.294 296.49C151.232 296.49 151.904 296.504 152.324 296.308C152.758 296.14 152.87 295.804 152.87 295.202V292.472H149.188V291.534H151.386V289.364H153.584V288.3H151.386V287.152ZM148.852 285.626C148.656 285.164 148.376 284.59 148.11 284.128L146.85 284.506C147.046 284.842 147.214 285.248 147.368 285.626H142.09V289.574C142.09 291.604 141.992 294.446 140.858 296.406C141.138 296.546 141.698 296.91 141.922 297.134C143.14 295.02 143.336 291.772 143.336 289.574V286.788H153.71V285.626H148.852ZM160.234 293.536C161.83 293.018 162.81 291.814 162.81 290.26C162.81 289.196 162.348 288.51 161.466 288.51C160.822 288.51 160.276 288.916 160.276 289.63C160.276 290.358 160.822 290.75 161.452 290.75C161.522 290.75 161.592 290.75 161.648 290.736C161.578 291.576 160.948 292.22 159.87 292.626L160.234 293.536ZM172.456 286.13C172.316 285.64 171.994 284.87 171.714 284.296L170.622 284.618C170.874 285.22 171.182 286.018 171.294 286.522L172.456 286.13ZM173.884 286.564H169.054V287.6H173.884V286.564ZM173.492 288.384H169.39V289.392H173.492V288.384ZM172.358 293.242V295.272H170.538V293.242H172.358ZM173.478 292.206H169.432V296.91H170.538V296.322H173.478V292.206ZM169.404 291.282H173.506V290.274H169.404V291.282ZM175.886 294.026C175.914 293.732 175.928 293.424 175.928 293.158H179.862V294.026H175.886ZM179.862 291.408V292.262H175.928V291.408H179.862ZM181.08 290.414H174.752V292.934C174.752 294.026 174.668 295.398 173.842 296.406C174.094 296.546 174.57 297.008 174.752 297.246C175.312 296.602 175.62 295.762 175.76 294.908H179.862V295.832C179.862 295.986 179.806 296.042 179.624 296.042C179.456 296.056 178.882 296.056 178.294 296.028C178.448 296.322 178.602 296.77 178.658 297.078C179.526 297.092 180.156 297.078 180.548 296.896C180.954 296.728 181.08 296.42 181.08 295.846V290.414ZM178.462 288.72V287.936H181.402V287.012H178.462V286.298H181.668V285.346H178.462V284.268H177.202V285.346H174.192V286.298H177.202V287.012H174.528V287.936H177.202V288.72H174.01V289.7H181.822V288.72H178.462ZM186.862 285.36C186.358 285.01 185.406 284.562 184.65 284.296L183.978 285.192C184.734 285.486 185.686 285.99 186.162 286.354L186.862 285.36ZM190.922 287.6H188.64V286.718H190.922V287.6ZM190.922 289.28H188.64V288.454H190.922V289.28ZM190.922 291.058H188.64V290.134H190.922V291.058ZM185.77 287.712C186.078 287.922 186.526 288.286 186.75 288.496C186.96 288.314 187.156 288.118 187.366 287.922V292.654H188.64V292.094H195.332V291.058H192.154V290.134H194.646V289.28H192.154V288.454H194.618V287.6H192.154V286.718H195.108V285.724H192.42C192.252 285.318 191.972 284.758 191.748 284.366L190.516 284.688C190.656 284.996 190.838 285.374 190.964 285.724H189.102C189.354 285.346 189.578 284.94 189.774 284.548L188.528 284.17C187.926 285.472 186.918 286.76 185.812 287.586C185.308 287.278 184.328 286.886 183.614 286.648L182.956 287.53C183.698 287.81 184.678 288.272 185.168 288.608L185.77 287.712ZM184.23 292.738C185.084 291.828 185.994 290.764 186.792 289.784L186.078 288.902C185.154 289.98 184.076 291.1 183.32 291.758L184.23 292.738ZM195.696 293.354H190.026V292.388H188.696V293.354H183.152V294.516H188.696V297.12H190.026V294.516H195.696V293.354ZM200.358 286.312V289.126H198.664V286.312H200.358ZM198.664 293.228V290.274H200.358V293.228H198.664ZM201.576 285.136H197.46V295.58H198.664V294.39H201.576V285.136ZM202.584 293.158C203.2 293.9 203.942 294.936 204.264 295.566L205.412 294.88C205.048 294.236 204.278 293.27 203.662 292.57L202.584 293.158ZM209.78 286.998V285.836H206.434V284.24H205.146V285.836H201.828V286.998H205.146V288.594H202.374V289.728H206.952V291.072H201.87V292.22H206.952V295.636C206.952 295.832 206.882 295.888 206.658 295.902C206.434 295.902 205.664 295.902 204.88 295.874C205.062 296.224 205.258 296.742 205.314 297.092C206.392 297.092 207.12 297.078 207.61 296.868C208.072 296.686 208.226 296.336 208.226 295.664V292.22H209.724V291.072H208.226V289.728H209.36V288.594H206.434V286.998H209.78ZM221.512 291.184V295.02H218.082V290.372H222.408V285.472H220.966V289.112H218.082V284.268H216.64V289.112H213.84V285.472H212.468V290.372H216.64V295.02H213.252V291.184H211.796V296.322H221.512V297.092H222.954V291.184H221.512ZM234.126 290.498H230.92V289.364H234.126V290.498ZM235.386 287.152H234.126V288.3H230.92V287.152H229.716V288.3H227.742V289.364H229.716V291.534H231.914V292.472H228.372V296.462H229.632V293.592H231.914V297.12H233.188V293.592H235.596V295.188C235.596 295.342 235.54 295.398 235.358 295.398C235.19 295.398 234.56 295.398 233.93 295.37C234.084 295.692 234.238 296.154 234.294 296.49C235.232 296.49 235.904 296.504 236.324 296.308C236.758 296.14 236.87 295.804 236.87 295.202V292.472H233.188V291.534H235.386V289.364H237.584V288.3H235.386V287.152ZM232.852 285.626C232.656 285.164 232.376 284.59 232.11 284.128L230.85 284.506C231.046 284.842 231.214 285.248 231.368 285.626H226.09V289.574C226.09 291.604 225.992 294.446 224.858 296.406C225.138 296.546 225.698 296.91 225.922 297.134C227.14 295.02 227.336 291.772 227.336 289.574V286.788H237.71V285.626H232.852ZM7 313.056C6.104 313.056 5.376 313.784 5.376 314.68C5.376 315.576 6.104 316.304 7 316.304C7.896 316.304 8.624 315.576 8.624 314.68C8.624 313.784 7.896 313.056 7 313.056ZM22.666 315.786C22.442 316.738 21.756 317.69 20.762 318.208C20.958 318.376 21.238 318.712 21.378 318.908C21.966 318.586 22.484 318.096 22.876 317.55C23.422 318.012 24.024 318.544 24.346 318.894L25.004 318.236C24.626 317.858 23.926 317.284 23.31 316.808C23.45 316.542 23.576 316.248 23.66 315.954L22.666 315.786ZM21.084 319.09C20.692 319.09 20.622 318.95 20.622 318.558V316.248H20.342C20.482 316.066 20.622 315.87 20.776 315.674H25.844C25.704 318.418 25.522 319.496 25.284 319.776C25.186 319.902 25.074 319.93 24.892 319.944C24.864 319.678 24.836 319.272 24.794 319.006C24.528 319.076 23.982 319.09 23.66 319.09H21.084ZM17.472 316.416H16.184V310.76H17.472V316.416ZM20.818 311.768H25.088V312.748H20.818V311.768ZM20.818 309.864H25.088V310.83H20.818V309.864ZM21.49 314.582C21.658 314.302 21.812 314.022 21.938 313.742H26.292V308.884H19.67V313.742H20.566C20.048 314.68 19.334 315.59 18.592 316.262V309.5H15.022V318.768H16.184V317.676H18.592V317.004C18.774 317.242 18.956 317.508 19.054 317.662C19.208 317.522 19.362 317.368 19.53 317.2V318.53C19.53 319.734 19.866 320.126 21.112 320.126H23.604C23.73 320.42 23.8 320.784 23.828 321.064C24.458 321.092 25.06 321.092 25.41 321.05C25.802 321.008 26.068 320.882 26.306 320.574C26.712 320.112 26.88 318.726 27.062 315.1C27.076 314.932 27.076 314.582 27.076 314.582H21.49ZM29.918 320.882C30.604 319.58 31.388 317.872 31.99 316.388L30.954 315.646C30.282 317.256 29.386 319.048 28.756 320.154L29.918 320.882ZM31.584 313.434C31.038 313.084 29.96 312.538 29.232 312.174L28.504 313.14C29.26 313.546 30.31 314.162 30.828 314.512L31.584 313.434ZM28.98 309.444C29.708 309.878 30.73 310.508 31.234 310.886L32.004 309.836C31.472 309.472 30.436 308.884 29.722 308.506L28.98 309.444ZM34.524 317.984H38.962V316.878H34.524V317.984ZM37.17 311.824H36.05V310.158H37.17V311.824ZM39.564 314.68C39.522 314.694 39.466 314.694 39.382 314.694H38.486C38.192 314.694 38.15 314.666 38.15 314.4V312.958H39.564V314.68ZM33.796 319.328V315.73C34.02 315.926 34.286 316.164 34.398 316.318C35.77 315.534 36.092 314.372 36.092 313.392V312.958H37.128V314.428C37.128 315.464 37.366 315.758 38.332 315.758H39.536H39.564V319.328H33.796ZM35.056 312.958V313.378C35.056 314.05 34.832 314.82 33.796 315.45V312.958H35.056ZM41.314 310.158V308.898H32.116V310.158H34.902V311.824H32.55V321.092H33.796V320.462H39.564V321.05H40.866V311.824H38.346V310.158H41.314ZM54.992 310.536V309.206H43.008V310.536H48.916C47.572 312.818 45.276 315.058 42.616 316.36C42.896 316.64 43.302 317.172 43.512 317.522C45.318 316.57 46.942 315.24 48.286 313.742V321.092H49.7V311.978C50.036 311.502 50.33 311.012 50.624 310.536H54.992ZM49.756 313.504C51.352 314.638 53.424 316.304 54.362 317.382L55.454 316.374C54.432 315.296 52.304 313.714 50.736 312.664L49.756 313.504ZM61.222 309.78V310.718H58.534V309.78H61.222ZM58.534 312.636V311.614H61.222V312.636H58.534ZM62.44 313.588V308.814H57.246V321.106H58.534V313.588H62.44ZM62.104 316.766V315.436H63.77V316.766H62.104ZM66.668 317.844V316.766H64.932V315.436H66.388V314.4H59.598V315.436H60.984V316.766H59.346V317.844H60.942C60.83 318.614 60.438 319.664 59.402 320.294C59.668 320.476 60.06 320.826 60.242 321.064C61.516 320.21 61.964 318.782 62.076 317.844H63.77V320.854H64.932V317.844H66.668ZM64.764 312.664V311.614H67.536V312.664H64.764ZM67.536 309.78V310.718H64.764V309.78H67.536ZM68.824 308.814H63.518V313.616H67.536V319.496C67.536 319.706 67.466 319.776 67.256 319.79C67.032 319.79 66.318 319.79 65.604 319.776C65.8 320.126 65.982 320.714 66.024 321.064C67.074 321.078 67.774 321.036 68.222 320.826C68.684 320.602 68.824 320.224 68.824 319.51V308.814ZM73.444 315.94V314.75H76.286V315.94H73.444ZM73.444 312.594H76.286V313.756H73.444V312.594ZM80.528 312.594V313.756H77.63V312.594H80.528ZM80.528 315.94H77.63V314.75H80.528V315.94ZM83.3 317.97H77.63V317.004H81.83V311.516H77.63V310.648H82.838V309.458H77.63V308.254H76.286V309.458H71.162V310.648H76.286V311.516H72.184V317.004H76.286V317.97H70.756V319.146H76.286V321.134H77.63V319.146H83.3V317.97ZM89.838 317.536C91.434 317.018 92.414 315.814 92.414 314.26C92.414 313.196 91.952 312.51 91.07 312.51C90.426 312.51 89.88 312.916 89.88 313.63C89.88 314.358 90.426 314.75 91.056 314.75C91.126 314.75 91.196 314.75 91.252 314.736C91.182 315.576 90.552 316.22 89.474 316.626L89.838 317.536ZM103.222 309.78V310.718H100.534V309.78H103.222ZM100.534 312.636V311.614H103.222V312.636H100.534ZM104.44 313.588V308.814H99.246V321.106H100.534V313.588H104.44ZM104.104 316.766V315.436H105.77V316.766H104.104ZM108.668 317.844V316.766H106.932V315.436H108.388V314.4H101.598V315.436H102.984V316.766H101.346V317.844H102.942C102.83 318.614 102.438 319.664 101.402 320.294C101.668 320.476 102.06 320.826 102.242 321.064C103.516 320.21 103.964 318.782 104.076 317.844H105.77V320.854H106.932V317.844H108.668ZM106.764 312.664V311.614H109.536V312.664H106.764ZM109.536 309.78V310.718H106.764V309.78H109.536ZM110.824 308.814H105.518V313.616H109.536V319.496C109.536 319.706 109.466 319.776 109.256 319.79C109.032 319.79 108.318 319.79 107.604 319.776C107.8 320.126 107.982 320.714 108.024 321.064C109.074 321.078 109.774 321.036 110.222 320.826C110.684 320.602 110.824 320.224 110.824 319.51V308.814ZM115.444 315.94V314.75H118.286V315.94H115.444ZM115.444 312.594H118.286V313.756H115.444V312.594ZM122.528 312.594V313.756H119.63V312.594H122.528ZM122.528 315.94H119.63V314.75H122.528V315.94ZM125.3 317.97H119.63V317.004H123.83V311.516H119.63V310.648H124.838V309.458H119.63V308.254H118.286V309.458H113.162V310.648H118.286V311.516H114.184V317.004H118.286V317.97H112.756V319.146H118.286V321.134H119.63V319.146H125.3V317.97ZM138.992 310.536V309.206H127.008V310.536H132.916C131.572 312.818 129.276 315.058 126.616 316.36C126.896 316.64 127.302 317.172 127.512 317.522C129.318 316.57 130.942 315.24 132.286 313.742V321.092H133.7V311.978C134.036 311.502 134.33 311.012 134.624 310.536H138.992ZM133.756 313.504C135.352 314.638 137.424 316.304 138.362 317.382L139.454 316.374C138.432 315.296 136.304 313.714 134.736 312.664L133.756 313.504ZM148.666 315.786C148.442 316.738 147.756 317.69 146.762 318.208C146.958 318.376 147.238 318.712 147.378 318.908C147.966 318.586 148.484 318.096 148.876 317.55C149.422 318.012 150.024 318.544 150.346 318.894L151.004 318.236C150.626 317.858 149.926 317.284 149.31 316.808C149.45 316.542 149.576 316.248 149.66 315.954L148.666 315.786ZM147.084 319.09C146.692 319.09 146.622 318.95 146.622 318.558V316.248H146.342C146.482 316.066 146.622 315.87 146.776 315.674H151.844C151.704 318.418 151.522 319.496 151.284 319.776C151.186 319.902 151.074 319.93 150.892 319.944C150.864 319.678 150.836 319.272 150.794 319.006C150.528 319.076 149.982 319.09 149.66 319.09H147.084ZM143.472 316.416H142.184V310.76H143.472V316.416ZM146.818 311.768H151.088V312.748H146.818V311.768ZM146.818 309.864H151.088V310.83H146.818V309.864ZM147.49 314.582C147.658 314.302 147.812 314.022 147.938 313.742H152.292V308.884H145.67V313.742H146.566C146.048 314.68 145.334 315.59 144.592 316.262V309.5H141.022V318.768H142.184V317.676H144.592V317.004C144.774 317.242 144.956 317.508 145.054 317.662C145.208 317.522 145.362 317.368 145.53 317.2V318.53C145.53 319.734 145.866 320.126 147.112 320.126H149.604C149.73 320.42 149.8 320.784 149.828 321.064C150.458 321.092 151.06 321.092 151.41 321.05C151.802 321.008 152.068 320.882 152.306 320.574C152.712 320.112 152.88 318.726 153.062 315.1C153.076 314.932 153.076 314.582 153.076 314.582H147.49ZM155.918 320.882C156.604 319.58 157.388 317.872 157.99 316.388L156.954 315.646C156.282 317.256 155.386 319.048 154.756 320.154L155.918 320.882ZM157.584 313.434C157.038 313.084 155.96 312.538 155.232 312.174L154.504 313.14C155.26 313.546 156.31 314.162 156.828 314.512L157.584 313.434ZM154.98 309.444C155.708 309.878 156.73 310.508 157.234 310.886L158.004 309.836C157.472 309.472 156.436 308.884 155.722 308.506L154.98 309.444ZM160.524 317.984H164.962V316.878H160.524V317.984ZM163.17 311.824H162.05V310.158H163.17V311.824ZM165.564 314.68C165.522 314.694 165.466 314.694 165.382 314.694H164.486C164.192 314.694 164.15 314.666 164.15 314.4V312.958H165.564V314.68ZM159.796 319.328V315.73C160.02 315.926 160.286 316.164 160.398 316.318C161.77 315.534 162.092 314.372 162.092 313.392V312.958H163.128V314.428C163.128 315.464 163.366 315.758 164.332 315.758H165.536H165.564V319.328H159.796ZM161.056 312.958V313.378C161.056 314.05 160.832 314.82 159.796 315.45V312.958H161.056ZM167.314 310.158V308.898H158.116V310.158H160.902V311.824H158.55V321.092H159.796V320.462H165.564V321.05H166.866V311.824H164.346V310.158H167.314Z" fill="#FFA0B2"/>
<path d="M8.352 240.384C7.32 239.64 5.256 238.584 3.816 237.96L2.232 240.048C3.696 240.792 5.736 241.944 6.696 242.712L8.352 240.384ZM6.96 246.936C5.904 246.216 3.84 245.208 2.424 244.584L0.912 246.72C2.376 247.44 4.416 248.568 5.376 249.312L6.96 246.936ZM6.072 250.44C4.656 253.2 2.808 256.176 1.536 258L3.936 259.92C5.4 257.592 6.912 254.856 8.184 252.336L6.072 250.44ZM17.16 256.68V251.784H21.744V249.072H17.16V244.848H22.608V242.136H15.288L17.616 241.296C17.28 240.264 16.44 238.704 15.72 237.576L13.08 238.464C13.752 239.616 14.472 241.128 14.76 242.136H8.376V244.848H14.184V249.072H9.336V251.784H14.184V256.68H7.656V259.392H23.232V256.68H17.16ZM39.12 241.224C38.952 241.728 38.688 242.352 38.448 242.904H33.552C33.408 242.4 33.144 241.752 32.88 241.224H39.12ZM46.416 242.904H41.376C41.616 242.496 41.856 242.04 42.144 241.56L40.224 241.224H45.144V239.016H37.68C37.488 238.464 37.248 237.864 36.984 237.384L34.2 237.888C34.344 238.224 34.488 238.632 34.608 239.016H26.832V241.224H31.992L30.192 241.584C30.36 241.968 30.552 242.448 30.672 242.904H25.656V245.112H46.416V242.904ZM40.992 248.784H31.056V247.752H40.992V248.784ZM40.992 251.496H31.056V250.464H40.992V251.496ZM43.824 245.976H28.368V253.296H34.464L33.48 254.256C34.824 254.88 36.456 255.888 37.248 256.632L39 254.88C38.4 254.4 37.416 253.8 36.48 253.296H43.824V245.976ZM27.36 259.488C28.608 258.336 29.616 256.584 30.336 255.072L27.96 254.016C27.312 255.456 26.232 257.064 24.984 258.096L27.36 259.488ZM34.944 257.544C33.864 257.544 33.672 257.472 33.672 256.848V254.352H30.888V256.872C30.888 259.128 31.632 259.824 34.656 259.824H38.52C40.752 259.824 41.52 259.152 41.832 256.488C41.088 256.344 39.96 255.96 39.408 255.6C39.288 257.28 39.144 257.544 38.256 257.544H34.944ZM41.448 254.808C42.576 256.152 43.776 257.976 44.208 259.152L46.68 258.048C46.152 256.824 44.88 255.072 43.752 253.8L41.448 254.808ZM65.688 254.544H61.368V253.416H65.688V254.544ZM61.368 250.2H65.688V251.232H61.368V250.2ZM54.696 245.424V244.272H58.464V245.424H54.696ZM65.256 244.272V245.424H61.368V244.272H65.256ZM71.088 251.232H68.592V248.28H61.368V247.224H68.184V242.472H61.368V241.488H70.536V239.232H61.368V237.672H58.464V239.232H49.512V241.488H58.464V242.472H51.96V247.224H58.464V248.28H51.36V250.2H58.464V251.232H48.96V253.416H58.464V254.544H51.168V256.608H58.464V257.352C58.464 257.784 58.32 257.928 57.864 257.952C57.48 257.952 56.064 257.952 54.912 257.904C55.272 258.504 55.704 259.488 55.848 260.16C57.888 260.16 59.184 260.112 60.096 259.752C61.032 259.344 61.368 258.768 61.368 257.352V256.608H65.688V257.592H68.592V253.416H71.088V251.232ZM81.648 250.248L78.696 251.208V242.88H81.36V240.24H73.152V242.88H75.816V252.096C74.568 252.48 73.416 252.816 72.504 253.08L73.68 255.816C76.08 254.952 79.2 253.824 82.104 252.72L81.648 250.248ZM85.296 251.736H91.584V253.272H85.296V251.736ZM85.296 248.232H91.584V249.768H85.296V248.232ZM85.296 244.8H91.584V246.312H85.296V244.8ZM94.368 255.36V242.688H89.352C89.544 242.16 89.76 241.608 89.952 241.032H95.256V238.632H81.672V241.032H86.736C86.64 241.56 86.544 242.136 86.424 242.688H82.656V255.36H85.08C83.856 256.344 81.48 257.52 79.536 258.12C80.112 258.648 80.88 259.512 81.264 260.064C83.376 259.392 85.896 258.144 87.48 256.92L85.272 255.36H94.368ZM88.776 256.944C90.336 257.856 92.424 259.224 93.408 260.112L95.664 258.432C94.56 257.52 92.4 256.248 90.888 255.432L88.776 256.944Z" fill="#FFA0B2"/>
<line y1="272.75" x2="477" y2="272.75" stroke="#FFA0B2" stroke-width="0.5"/>
</svg>
