<svg width="477" height="134" viewBox="0 0 477 134" fill="none" xmlns="http://www.w3.org/2000/svg">
<path d="M13.566 57.578C13.384 57.004 12.922 56.15 12.502 55.506L11.298 56.024C11.704 56.696 12.138 57.592 12.292 58.166L13.566 57.578ZM6.72 61.05H8.19V61.694H6.72V61.05ZM5.53 62.702H9.45V60.042H5.53V62.702ZM9.506 65.964L8.176 66.104V65.698H9.338V64.606H8.176V63.99C8.764 63.92 9.296 63.822 9.772 63.71L8.89 62.786C8.008 63.024 6.51 63.164 5.194 63.234L5.208 63.178L4.144 62.856C4.074 63.57 3.864 64.578 3.71 65.208L4.55 65.516C4.718 64.956 4.942 64.102 5.166 63.318C5.292 63.584 5.418 63.934 5.46 64.172C5.88 64.172 6.314 64.158 6.776 64.116V64.606H5.502V65.698H6.776V66.258C6.174 66.314 5.642 66.37 5.166 66.398L5.11 65.446C4.62 65.544 4.13 65.656 3.64 65.754V62.478H5.096V61.064H3.64V60.042H4.69V58.754C4.746 58.838 4.816 58.908 4.886 58.978L5.068 58.572V59.594H9.8C9.87 61.974 10.01 63.92 10.29 65.348C10.052 65.712 9.786 66.048 9.52 66.356L9.506 65.964ZM2.072 58.656C2.408 58.236 2.716 57.788 3.01 57.312C3.584 57.732 4.144 58.222 4.592 58.656H2.072ZM12.096 60.714C11.942 61.526 11.718 62.296 11.452 63.024C11.368 62.058 11.312 60.924 11.298 59.594H13.552V58.278H11.284C11.27 57.312 11.284 56.276 11.312 55.142H9.744C9.744 56.248 9.758 57.298 9.772 58.278H8.26V57.494H9.436V56.22H8.26V55.142H6.79V56.22H5.558V57.494H6.79V58.278H5.194L5.502 57.606C5.082 57.158 4.382 56.612 3.668 56.122C3.752 55.954 3.836 55.786 3.906 55.618L2.814 55.058C2.254 56.262 1.316 57.41 0.392 58.124C0.574 58.53 0.854 59.468 0.938 59.846C1.12 59.692 1.288 59.51 1.47 59.342V60.042H2.422V61.064H0.756V62.478H2.422V65.978C1.722 66.104 1.106 66.23 0.588 66.314L0.868 67.812C2.058 67.518 3.612 67.154 5.082 66.776L5.194 67.616L8.624 67.196L8.54 67.266C8.848 67.504 9.394 68.022 9.618 68.288C10.038 67.924 10.416 67.504 10.78 67.07C11.116 67.798 11.578 68.19 12.152 68.19C13.188 68.176 13.594 67.756 13.748 65.348C13.412 65.208 12.978 64.858 12.67 64.55C12.628 66.09 12.502 66.636 12.306 66.636C12.11 66.636 11.928 66.272 11.788 65.586C12.53 64.256 13.118 62.702 13.496 60.966L12.096 60.714ZM0.854 63.276C1.036 64.032 1.218 65.026 1.26 65.698L2.226 65.376C2.156 64.732 1.974 63.738 1.764 62.982L0.854 63.276ZM22.092 63.024C22.708 62.646 23.282 62.24 23.814 61.75C24.346 62.226 24.92 62.646 25.564 63.024H22.092ZM22.47 66.286V64.424H25.102V66.286H22.47ZM20.09 61.932H18.55V60.294H19.95V59.398C20.328 59.65 20.832 60.098 21.07 60.35C21.35 60.056 21.63 59.734 21.896 59.384C22.148 59.79 22.428 60.21 22.764 60.616C21.98 61.344 21.056 61.946 20.09 62.366V61.932ZM16.576 57.088H18.424V58.866H16.576V57.088ZM24.766 57.886C24.486 58.474 24.15 59.02 23.744 59.538C23.352 59.062 23.002 58.572 22.722 58.096L22.834 57.886H24.766ZM25.76 56.416L25.466 56.472H23.506C23.632 56.164 23.744 55.842 23.856 55.534L22.274 55.142C21.812 56.668 20.972 58.152 19.95 59.132V55.66H15.12V60.294H17.08V65.558L16.38 65.698V61.274H15.022V65.978L14.392 66.09L14.686 67.686C16.268 67.322 18.396 66.832 20.356 66.342L20.202 64.872L18.55 65.25V63.388H20.09V62.982C20.286 63.248 20.496 63.556 20.608 63.78L20.93 63.64V68.19H22.47V67.714H25.102V68.148H26.698V63.57L26.726 63.584C26.95 63.15 27.426 62.492 27.762 62.184C26.642 61.834 25.676 61.274 24.864 60.63C25.718 59.594 26.376 58.334 26.81 56.864L25.76 56.416ZM9.024 81.136H10.044V79.972H11.328V79H10.044V77.992H9.024V79H7.848V79.972H9.024V81.136ZM5.316 81.136H6.336V79.972H7.512V79H6.336V77.992H5.316V79H4.068V79.972H5.316V81.136ZM9.432 85.936V87.556H6.06V85.936H9.432ZM5.04 88.912H6.06V88.492H9.432V88.912H10.5V85.012H5.04V88.912ZM6.252 83.272C6.756 82.876 7.236 82.408 7.656 81.94C8.124 82.384 8.688 82.852 9.288 83.272H6.252ZM7.5 80.596C6.696 81.784 5.328 82.84 3.984 83.488L3.864 82.816L3.036 83.14V81.292H4.032V80.26H3.036V77.944H1.956V80.26H0.624V81.292H1.956V83.572C1.428 83.776 0.96 83.956 0.552 84.088L0.852 85.192C1.188 85.048 1.572 84.892 1.956 84.724V87.604C1.956 87.772 1.896 87.82 1.752 87.82C1.62 87.82 1.164 87.82 0.696 87.808C0.84 88.108 0.984 88.6 1.008 88.888C1.764 88.9 2.256 88.852 2.592 88.66C2.916 88.492 3.036 88.18 3.036 87.604V84.28L4.044 83.836C4.2 84.064 4.368 84.352 4.44 84.508C4.92 84.244 5.412 83.92 5.892 83.56V84.196H9.576V83.488C10.092 83.836 10.62 84.172 11.112 84.424C11.196 84.148 11.388 83.656 11.556 83.38C10.428 82.912 9.036 82.036 8.22 81.244C8.28 81.172 8.34 81.1 8.388 81.016L7.5 80.596ZM19.656 81.7V83.956C19.656 84.916 19.884 85.3 20.928 85.3H22.356C22.692 85.3 23.04 85.276 23.232 85.216C23.196 84.976 23.172 84.616 23.148 84.328C22.956 84.376 22.56 84.4 22.32 84.4H21.012C20.772 84.4 20.724 84.292 20.724 83.956V83.332H22.896V82.456H20.724V81.7H19.656ZM13.068 85.828C14.148 85.516 15.552 85.108 16.884 84.7L16.764 83.896L16.296 84.028V81.7H15.288V82.456H13.176V83.332H15.288V84.292C14.352 84.544 13.464 84.76 12.804 84.916L13.068 85.828ZM18.576 81.388H23.172V80.38H18.576V79.384C19.932 79.276 21.216 79.12 22.248 78.928L21.756 77.968C19.752 78.364 16.416 78.592 13.644 78.676C13.752 78.916 13.86 79.348 13.884 79.624C15 79.612 16.212 79.564 17.412 79.48V80.38H12.828V81.388H17.412V84.232C16.404 85.78 14.508 87.124 12.432 87.688C12.672 87.916 12.996 88.348 13.164 88.624C14.808 88.084 16.308 87.04 17.412 85.732V88.948H18.576V85.684C19.68 87.004 21.168 88.06 22.824 88.612C22.98 88.324 23.304 87.892 23.544 87.676C21.48 87.112 19.584 85.768 18.576 84.232V81.388ZM33.78 80.308C33.432 81.376 32.808 82.804 32.292 83.692L33.252 84.1C33.792 83.26 34.464 81.916 34.992 80.776L33.78 80.308ZM27.54 83.656C27.312 82.78 26.772 81.268 26.316 80.116L25.236 80.5C25.656 81.676 26.172 83.224 26.376 84.148L27.54 83.656ZM29.436 78.052C29.412 82.228 29.604 86.188 24.588 88.024C24.888 88.252 25.212 88.672 25.368 88.96C27.96 87.964 29.268 86.38 29.952 84.52C30.852 86.704 32.28 88.156 34.716 88.864C34.884 88.552 35.208 88.072 35.46 87.832C32.64 87.148 31.116 85.336 30.408 82.672C30.66 81.208 30.672 79.624 30.684 78.052H29.436ZM38.952 84.52V83.5H41.388V84.52H38.952ZM38.952 81.652H41.388V82.648H38.952V81.652ZM45.024 81.652V82.648H42.54V81.652H45.024ZM45.024 84.52H42.54V83.5H45.024V84.52ZM47.4 86.26H42.54V85.432H46.14V80.728H42.54V79.984H47.004V78.964H42.54V77.932H41.388V78.964H36.996V79.984H41.388V80.728H37.872V85.432H41.388V86.26H36.648V87.268H41.388V88.972H42.54V87.268H47.4V86.26ZM50.412 85.54C50.436 85.192 50.448 84.844 50.448 84.544V84.52H52.788V85.54H50.412ZM52.788 82.636V83.668H50.448V82.636H52.788ZM53.856 81.736H49.44V84.532C49.44 85.708 49.356 87.244 48.576 88.336C48.816 88.456 49.248 88.792 49.428 88.972C49.944 88.264 50.196 87.328 50.328 86.392H52.788V87.748C52.788 87.904 52.74 87.952 52.572 87.964C52.428 87.976 51.9 87.976 51.372 87.952C51.516 88.204 51.672 88.636 51.744 88.912C52.5 88.912 53.04 88.9 53.4 88.72C53.748 88.564 53.856 88.288 53.856 87.772V81.736ZM57.516 87.64C57.516 87.808 57.456 87.856 57.264 87.868C57.084 87.88 56.436 87.88 55.764 87.856C55.92 88.132 56.112 88.612 56.16 88.912C57.06 88.924 57.684 88.888 58.08 88.708C58.488 88.54 58.62 88.24 58.62 87.652V81.508H57.516V87.64ZM56.16 81.844H55.128V86.728H56.16V81.844ZM56.724 79.756C57.06 79.3 57.396 78.772 57.72 78.256L56.508 77.884C56.268 78.448 55.848 79.192 55.452 79.756H51.996L52.608 79.528C52.404 79.072 51.9 78.4 51.456 77.92L50.412 78.28C50.784 78.724 51.204 79.324 51.408 79.756H48.66V80.776H59.352V79.756H56.724ZM62.916 77.968C62.436 78.784 61.44 79.768 60.552 80.368C60.72 80.584 61.008 81.028 61.128 81.292C62.172 80.572 63.276 79.432 63.984 78.376L62.916 77.968ZM63.192 80.584C62.52 81.784 61.416 82.984 60.396 83.752C60.588 84.016 60.864 84.628 60.96 84.88C61.32 84.58 61.704 84.232 62.064 83.848V88.96H63.204V82.48C63.564 81.988 63.9 81.484 64.176 80.992L63.192 80.584ZM68.34 87.52V84.736H70.788V83.668H68.34V81.244H71.16V80.188H67.524L68.58 79.792C68.4 79.276 67.968 78.484 67.584 77.884L66.564 78.244C66.936 78.856 67.332 79.672 67.488 80.188H64.26V81.244H67.176V83.668H64.668V84.736H67.176V87.52H63.912V88.588H71.472V87.52H68.34ZM75.504 81.196C74.82 82.66 73.644 84.088 72.408 84.976C72.672 85.168 73.116 85.552 73.332 85.768C73.74 85.42 74.172 85.012 74.568 84.556V88.948H75.672V83.128C76.02 82.624 76.344 82.084 76.62 81.532L75.504 81.196ZM76.608 77.944H75.516V79.072H72.732V80.128H75.516V81.196H76.608V80.128H77.784V79.072H76.608V77.944ZM79.428 81.244H80.544V80.116H83.244V79.072H80.544V77.944H79.428V79.072H78.204V80.116H79.428V81.244ZM79.98 87.76C79.416 87.76 79.32 87.664 79.32 87.16V84.292H83.232V83.236H79.32V81.364H78.216V87.16C78.216 88.444 78.564 88.792 79.848 88.792H81.9C83.064 88.792 83.364 88.24 83.496 86.404C83.196 86.32 82.74 86.14 82.488 85.948C82.416 87.448 82.332 87.76 81.804 87.76H79.98ZM93.648 82.744V83.392H92.016V82.744H93.648ZM93.648 84.736H92.016V84.064H93.648V84.736ZM89.412 84.736V84.064H91.02V84.736H89.412ZM89.412 82.744H91.02V83.392H89.412V82.744ZM91.92 80.104H91.02V80.716H88.008V81.508H91.02V82.048H88.488V85.432H91.02V85.984H87.9V86.812H91.02V87.58H92.016V86.812H95.22V85.984H92.016V85.432H94.632V82.048H92.016V81.508H95.028V80.716H92.016V80.128H93.024V79.504H95.292V78.628H93.024V77.92H91.92V78.628H90.228V79.504H91.92V80.104ZM87.036 80.272H88.128V79.504H89.736V78.628H88.128V77.92H87.036V78.628H84.744V79.504H87.036V80.272ZM85.272 80.392C85.668 80.824 86.16 81.436 86.4 81.82L87.336 81.364C87.096 81.016 86.616 80.452 86.184 80.02L85.272 80.392ZM87.372 84.4L87.192 84.436H86.256C86.868 83.764 87.6 82.852 88.032 82.3L87.324 81.94L87.132 82.024H84.804V82.924H86.4C85.98 83.452 85.512 84.028 85.296 84.22C85.068 84.424 84.876 84.508 84.708 84.556C84.816 84.748 85.02 85.24 85.08 85.492C85.176 85.396 85.512 85.312 85.8 85.312H86.664C86.196 86.584 85.368 87.568 84.348 88.132C84.54 88.288 84.864 88.72 84.972 88.96C85.632 88.576 86.232 88.012 86.736 87.292C87.648 88.612 89.052 88.852 91.344 88.852C92.628 88.852 94.092 88.816 95.22 88.756C95.28 88.456 95.412 87.964 95.568 87.736C94.344 87.856 92.568 87.916 91.356 87.916C89.328 87.904 87.936 87.736 87.204 86.512C87.48 85.972 87.72 85.36 87.876 84.676L87.372 84.4ZM105.78 80.308C105.432 81.376 104.808 82.804 104.292 83.692L105.252 84.1C105.792 83.26 106.464 81.916 106.992 80.776L105.78 80.308ZM99.54 83.656C99.312 82.78 98.772 81.268 98.316 80.116L97.236 80.5C97.656 81.676 98.172 83.224 98.376 84.148L99.54 83.656ZM101.436 78.052C101.412 82.228 101.604 86.188 96.588 88.024C96.888 88.252 97.212 88.672 97.368 88.96C99.96 87.964 101.268 86.38 101.952 84.52C102.852 86.704 104.28 88.156 106.716 88.864C106.884 88.552 107.208 88.072 107.46 87.832C104.64 87.148 103.116 85.336 102.408 82.672C102.66 81.208 102.672 79.624 102.684 78.052H101.436ZM110.952 84.52V83.5H113.388V84.52H110.952ZM110.952 81.652H113.388V82.648H110.952V81.652ZM117.024 81.652V82.648H114.54V81.652H117.024ZM117.024 84.52H114.54V83.5H117.024V84.52ZM119.4 86.26H114.54V85.432H118.14V80.728H114.54V79.984H119.004V78.964H114.54V77.932H113.388V78.964H108.996V79.984H113.388V80.728H109.872V85.432H113.388V86.26H108.648V87.268H113.388V88.972H114.54V87.268H119.4V86.26ZM123.852 79.744C123.708 79.264 123.372 78.544 123.036 78.004L122.076 78.28C122.376 78.844 122.712 79.6 122.844 80.08L123.852 79.744ZM124.056 85.936C124.356 84.748 124.668 83.056 124.896 81.688L123.852 81.508C123.72 82.924 123.42 84.928 123.12 86.152C122.172 86.38 121.284 86.56 120.6 86.704L120.84 87.808C122.088 87.508 123.756 87.088 125.304 86.704L125.196 85.672L124.056 85.936ZM121.152 81.796C121.404 83.104 121.632 84.796 121.68 85.924L122.604 85.744C122.532 84.604 122.304 82.948 122.028 81.628L121.152 81.796ZM120.72 81.136H125.388V80.104H120.72V81.136ZM129.9 87.328H126.648V84.616H129.9V87.328ZM131.496 81.34V80.272H128.592V77.92H127.452V83.572H125.568V88.924H126.648V88.372H129.9V88.876H131.028V83.572H128.592V81.34H131.496ZM3.504 102.196C2.82 103.66 1.644 105.088 0.408 105.976C0.672 106.168 1.116 106.552 1.332 106.768C1.74 106.42 2.172 106.012 2.568 105.556V109.948H3.672V104.128C4.02 103.624 4.344 103.084 4.62 102.532L3.504 102.196ZM4.608 98.944H3.516V100.072H0.732V101.128H3.516V102.196H4.608V101.128H5.784V100.072H4.608V98.944ZM7.428 102.244H8.544V101.116H11.244V100.072H8.544V98.944H7.428V100.072H6.204V101.116H7.428V102.244ZM7.98 108.76C7.416 108.76 7.32 108.664 7.32 108.16V105.292H11.232V104.236H7.32V102.364H6.216V108.16C6.216 109.444 6.564 109.792 7.848 109.792H9.9C11.064 109.792 11.364 109.24 11.496 107.404C11.196 107.32 10.74 107.14 10.488 106.948C10.416 108.448 10.332 108.76 9.804 108.76H7.98ZM21.648 103.744V104.392H20.016V103.744H21.648ZM21.648 105.736H20.016V105.064H21.648V105.736ZM17.412 105.736V105.064H19.02V105.736H17.412ZM17.412 103.744H19.02V104.392H17.412V103.744ZM19.92 101.104H19.02V101.716H16.008V102.508H19.02V103.048H16.488V106.432H19.02V106.984H15.9V107.812H19.02V108.58H20.016V107.812H23.22V106.984H20.016V106.432H22.632V103.048H20.016V102.508H23.028V101.716H20.016V101.128H21.024V100.504H23.292V99.628H21.024V98.92H19.92V99.628H18.228V100.504H19.92V101.104ZM15.036 101.272H16.128V100.504H17.736V99.628H16.128V98.92H15.036V99.628H12.744V100.504H15.036V101.272ZM13.272 101.392C13.668 101.824 14.16 102.436 14.4 102.82L15.336 102.364C15.096 102.016 14.616 101.452 14.184 101.02L13.272 101.392ZM15.372 105.4L15.192 105.436H14.256C14.868 104.764 15.6 103.852 16.032 103.3L15.324 102.94L15.132 103.024H12.804V103.924H14.4C13.98 104.452 13.512 105.028 13.296 105.22C13.068 105.424 12.876 105.508 12.708 105.556C12.816 105.748 13.02 106.24 13.08 106.492C13.176 106.396 13.512 106.312 13.8 106.312H14.664C14.196 107.584 13.368 108.568 12.348 109.132C12.54 109.288 12.864 109.72 12.972 109.96C13.632 109.576 14.232 109.012 14.736 108.292C15.648 109.612 17.052 109.852 19.344 109.852C20.628 109.852 22.092 109.816 23.22 109.756C23.28 109.456 23.412 108.964 23.568 108.736C22.344 108.856 20.568 108.916 19.356 108.916C17.328 108.904 15.936 108.736 15.204 107.512C15.48 106.972 15.72 106.36 15.876 105.676L15.372 105.4ZM26.952 105.52V104.5H29.388V105.52H26.952ZM26.952 102.652H29.388V103.648H26.952V102.652ZM33.024 102.652V103.648H30.54V102.652H33.024ZM33.024 105.52H30.54V104.5H33.024V105.52ZM35.4 107.26H30.54V106.432H34.14V101.728H30.54V100.984H35.004V99.964H30.54V98.932H29.388V99.964H24.996V100.984H29.388V101.728H25.872V106.432H29.388V107.26H24.648V108.268H29.388V109.972H30.54V108.268H35.4V107.26ZM39.852 100.744C39.708 100.264 39.372 99.544 39.036 99.004L38.076 99.28C38.376 99.844 38.712 100.6 38.844 101.08L39.852 100.744ZM40.056 106.936C40.356 105.748 40.668 104.056 40.896 102.688L39.852 102.508C39.72 103.924 39.42 105.928 39.12 107.152C38.172 107.38 37.284 107.56 36.6 107.704L36.84 108.808C38.088 108.508 39.756 108.088 41.304 107.704L41.196 106.672L40.056 106.936ZM37.152 102.796C37.404 104.104 37.632 105.796 37.68 106.924L38.604 106.744C38.532 105.604 38.304 103.948 38.028 102.628L37.152 102.796ZM36.72 102.136H41.388V101.104H36.72V102.136ZM45.9 108.328H42.648V105.616H45.9V108.328ZM47.496 102.34V101.272H44.592V98.92H43.452V104.572H41.568V109.924H42.648V109.372H45.9V109.876H47.028V104.572H44.592V102.34H47.496ZM57.024 102.136H58.044V100.972H59.328V100H58.044V98.992H57.024V100H55.848V100.972H57.024V102.136ZM53.316 102.136H54.336V100.972H55.512V100H54.336V98.992H53.316V100H52.068V100.972H53.316V102.136ZM57.432 106.936V108.556H54.06V106.936H57.432ZM53.04 109.912H54.06V109.492H57.432V109.912H58.5V106.012H53.04V109.912ZM54.252 104.272C54.756 103.876 55.236 103.408 55.656 102.94C56.124 103.384 56.688 103.852 57.288 104.272H54.252ZM55.5 101.596C54.696 102.784 53.328 103.84 51.984 104.488L51.864 103.816L51.036 104.14V102.292H52.032V101.26H51.036V98.944H49.956V101.26H48.624V102.292H49.956V104.572C49.428 104.776 48.96 104.956 48.552 105.088L48.852 106.192C49.188 106.048 49.572 105.892 49.956 105.724V108.604C49.956 108.772 49.896 108.82 49.752 108.82C49.62 108.82 49.164 108.82 48.696 108.808C48.84 109.108 48.984 109.6 49.008 109.888C49.764 109.9 50.256 109.852 50.592 109.66C50.916 109.492 51.036 109.18 51.036 108.604V105.28L52.044 104.836C52.2 105.064 52.368 105.352 52.44 105.508C52.92 105.244 53.412 104.92 53.892 104.56V105.196H57.576V104.488C58.092 104.836 58.62 105.172 59.112 105.424C59.196 105.148 59.388 104.656 59.556 104.38C58.428 103.912 57.036 103.036 56.22 102.244C56.28 102.172 56.34 102.1 56.388 102.016L55.5 101.596ZM67.656 102.7V104.956C67.656 105.916 67.884 106.3 68.928 106.3H70.356C70.692 106.3 71.04 106.276 71.232 106.216C71.196 105.976 71.172 105.616 71.148 105.328C70.956 105.376 70.56 105.4 70.32 105.4H69.012C68.772 105.4 68.724 105.292 68.724 104.956V104.332H70.896V103.456H68.724V102.7H67.656ZM61.068 106.828C62.148 106.516 63.552 106.108 64.884 105.7L64.764 104.896L64.296 105.028V102.7H63.288V103.456H61.176V104.332H63.288V105.292C62.352 105.544 61.464 105.76 60.804 105.916L61.068 106.828ZM66.576 102.388H71.172V101.38H66.576V100.384C67.932 100.276 69.216 100.12 70.248 99.928L69.756 98.968C67.752 99.364 64.416 99.592 61.644 99.676C61.752 99.916 61.86 100.348 61.884 100.624C63 100.612 64.212 100.564 65.412 100.48V101.38H60.828V102.388H65.412V105.232C64.404 106.78 62.508 108.124 60.432 108.688C60.672 108.916 60.996 109.348 61.164 109.624C62.808 109.084 64.308 108.04 65.412 106.732V109.948H66.576V106.684C67.68 108.004 69.168 109.06 70.824 109.612C70.98 109.324 71.304 108.892 71.544 108.676C69.48 108.112 67.584 106.768 66.576 105.232V102.388ZM77.748 100.936H75.048L75.924 100.444C75.732 100.012 75.36 99.376 75.024 98.872L74.148 99.316C74.472 99.808 74.832 100.492 75.024 100.936H72.792V101.824H77.748V100.936ZM77.22 104.116H73.308V104.98H77.22V104.116ZM76.284 106.636V108.352H74.34V106.636H76.284ZM77.244 105.736H73.38V109.792H74.34V109.252H77.244V105.736ZM73.308 103.408H77.244V102.532H73.308V103.408ZM83.448 102.988H81.096V99.16H79.944V102.988H77.724V104.08H79.944V109.948H81.096V104.08H83.448V102.988ZM93.768 102.46H90.456V100.444H93.768V102.46ZM94.848 99.496H89.424V103.408H94.848V99.496ZM89.112 105.496C88.896 105.22 87.876 104.176 87.528 103.876V103.324H88.932V102.268H87.528V100.408C88.08 100.276 88.608 100.12 89.064 99.94L88.296 99.088C87.384 99.484 85.848 99.832 84.504 100.048C84.624 100.288 84.78 100.672 84.828 100.912C85.344 100.84 85.896 100.756 86.448 100.648V102.268H84.6V103.324H86.304C85.848 104.596 85.08 106.024 84.372 106.84C84.54 107.104 84.804 107.56 84.912 107.872C85.452 107.2 86.004 106.168 86.448 105.076V109.924H87.528V104.98C87.888 105.472 88.284 106.036 88.464 106.372L89.112 105.496ZM92.652 108.676V107.296H94.944V106.336H92.652V104.992C93.54 104.884 94.392 104.74 95.076 104.56L94.392 103.732C93.12 104.068 90.9 104.296 89.04 104.416C89.148 104.644 89.28 105.028 89.304 105.256C90.012 105.232 90.78 105.184 91.548 105.112V106.336H89.316V107.296H91.548V108.676H88.68V109.672H95.436V108.676H92.652ZM98.952 105.52V104.5H101.388V105.52H98.952ZM98.952 102.652H101.388V103.648H98.952V102.652ZM105.024 102.652V103.648H102.54V102.652H105.024ZM105.024 105.52H102.54V104.5H105.024V105.52ZM107.4 107.26H102.54V106.432H106.14V101.728H102.54V100.984H107.004V99.964H102.54V98.932H101.388V99.964H96.996V100.984H101.388V101.728H97.872V106.432H101.388V107.26H96.648V108.268H101.388V109.972H102.54V108.268H107.4V107.26ZM113.616 105.856C113.496 105.22 113.148 104.176 112.824 103.372L111.924 103.6C112.044 103.912 112.176 104.272 112.284 104.62L110.436 104.872C111.42 103.852 112.404 102.604 113.232 101.368L112.284 100.756C111.996 101.26 111.672 101.764 111.336 102.232L110.052 102.34C110.76 101.476 111.468 100.396 112.032 99.352L111.012 98.908C110.46 100.192 109.548 101.512 109.248 101.86C108.972 102.208 108.744 102.448 108.504 102.484C108.636 102.772 108.804 103.276 108.864 103.492C109.032 103.396 109.332 103.336 110.628 103.18C110.172 103.768 109.752 104.224 109.56 104.416C109.14 104.848 108.852 105.112 108.552 105.172C108.684 105.472 108.852 106 108.912 106.204C109.176 106.072 109.608 105.964 112.536 105.496C112.596 105.736 112.644 105.952 112.68 106.132L113.616 105.856ZM109.26 106.66C109.092 107.608 108.828 108.676 108.492 109.396C108.768 109.468 109.224 109.612 109.452 109.72C109.74 109.012 110.064 107.884 110.244 106.852L109.26 106.66ZM110.724 106.792C110.868 107.632 111.024 108.724 111.06 109.456L111.996 109.204C111.948 108.484 111.768 107.416 111.6 106.576L110.724 106.792ZM112.164 106.576C112.44 107.308 112.752 108.256 112.884 108.856L113.748 108.532C113.604 107.92 113.28 107.008 112.98 106.3L112.164 106.576ZM117.12 106.156C116.736 105.436 115.812 104.368 115.008 103.636L114.228 104.2C115.044 104.968 115.92 106.084 116.292 106.804L117.12 106.156ZM115.272 101.104C115.488 100.48 115.692 99.82 115.86 99.16L114.756 98.944C114.396 100.552 113.76 102.172 112.92 103.192C113.196 103.348 113.676 103.672 113.892 103.828C114.216 103.372 114.54 102.796 114.828 102.16H117.996C117.876 106.516 117.708 108.256 117.372 108.628C117.252 108.784 117.108 108.82 116.892 108.82C116.592 108.82 115.92 108.82 115.188 108.76C115.38 109.072 115.524 109.564 115.548 109.864C116.232 109.9 116.94 109.924 117.36 109.864C117.804 109.804 118.104 109.684 118.392 109.288C118.848 108.712 118.992 106.9 119.136 101.668C119.136 101.512 119.148 101.104 119.148 101.104H115.272ZM123.216 109.156C124.836 109.156 126.168 108.22 126.168 106.624C126.168 105.436 125.364 104.668 124.344 104.416V104.356C125.28 104.008 125.868 103.3 125.868 102.28C125.868 100.828 124.752 100 123.168 100C122.148 100 121.332 100.444 120.636 101.068L121.356 101.932C121.86 101.44 122.436 101.116 123.12 101.104C123.96 101.116 124.476 101.596 124.476 102.376C124.476 103.264 123.9 103.924 122.16 103.924V104.944C124.152 104.944 124.776 105.58 124.776 106.552C124.776 107.476 124.092 108.028 123.096 108.028C122.184 108.028 121.524 107.584 121.008 107.056L120.336 107.944C120.924 108.604 121.824 109.156 123.216 109.156ZM130.264 109.156C131.992 109.156 133.12 107.62 133.12 104.548C133.12 101.5 131.992 100 130.264 100C128.536 100 127.408 101.488 127.408 104.548C127.408 107.62 128.536 109.156 130.264 109.156ZM130.264 108.064C129.364 108.064 128.728 107.104 128.728 104.548C128.728 102.016 129.364 101.092 130.264 101.092C131.164 101.092 131.8 102.016 131.8 104.548C131.8 107.104 131.164 108.064 130.264 108.064ZM139.088 99.136V100.168H141.104C141.56 101.332 142.268 102.448 143.144 103.372H136.232C137.096 102.34 137.804 101.044 138.284 99.616L137.12 99.34C136.544 101.152 135.464 102.76 134.083 103.744C134.36 103.924 134.828 104.344 135.032 104.56C135.368 104.296 135.704 103.972 136.016 103.624V104.452H138.272C138.008 106.36 137.372 108.1 134.6 109.024C134.864 109.252 135.188 109.72 135.32 110.02C138.392 108.892 139.172 106.78 139.484 104.452H142.244C142.124 107.248 141.968 108.376 141.692 108.664C141.56 108.796 141.416 108.832 141.188 108.832C140.9 108.832 140.216 108.82 139.496 108.748C139.688 109.072 139.844 109.54 139.855 109.876C140.588 109.912 141.32 109.924 141.716 109.876C142.148 109.816 142.436 109.72 142.7 109.384C143.12 108.916 143.276 107.524 143.432 103.876C143.432 103.828 143.444 103.744 143.444 103.672C143.78 103.996 144.152 104.284 144.536 104.536C144.716 104.212 145.088 103.744 145.34 103.516C143.744 102.652 142.496 100.948 141.932 99.136H139.088ZM148.844 104.968H150.284V104.02H148.844V102.88H149.936V101.944H147.392C147.74 101.512 148.1 101.032 148.412 100.516C149.096 101.02 149.768 101.62 150.2 102.088L150.644 101.164C150.224 100.744 149.564 100.18 148.868 99.724C148.952 99.556 149.036 99.4 149.108 99.244L148.316 98.86C147.8 99.988 146.936 101.056 146.083 101.74C146.216 102.016 146.432 102.628 146.492 102.868C146.66 102.712 146.84 102.544 147.02 102.352V102.88H147.992V104.02H146.408V104.968H147.992V108.208C147.332 108.352 146.732 108.472 146.264 108.568L146.479 109.564C147.536 109.312 148.976 108.964 150.32 108.628L150.272 107.728C149.792 107.836 149.312 107.944 148.844 108.04V104.968ZM146.564 105.7C146.732 106.396 146.912 107.272 146.948 107.86L147.656 107.644C147.596 107.068 147.416 106.192 147.224 105.508L146.564 105.7ZM149.66 107.716C149.84 107.176 150.056 106.348 150.26 105.628L149.492 105.388C149.408 106.012 149.204 106.924 149.048 107.5L149.66 107.716ZM152.084 105.376H153.392V106.06H152.084V105.376ZM152.084 104.044H153.392V104.704H152.084V104.044ZM155.696 104.704H154.328V104.044H155.696V104.704ZM155.696 106.06H154.328V105.376H155.696V106.06ZM154.388 108.136H156.824V107.332H154.388V106.768H156.68V103.348H151.124V106.768H153.332V107.332H150.98V108.136H153.332V108.832H150.488V109.66H157.232V108.832H154.388V108.136ZM154.988 100.864C154.892 101.188 154.712 101.62 154.568 101.98H153.092L153.14 101.968C153.068 101.68 152.912 101.2 152.72 100.864H154.988ZM155.576 101.98C155.744 101.692 155.924 101.344 156.08 101.02L155.264 100.864H156.98V99.988H154.556C154.46 99.652 154.244 99.196 154.016 98.872L152.996 99.124C153.14 99.376 153.296 99.688 153.392 99.988H150.824V100.864H152.516L151.784 101.02C151.916 101.308 152.048 101.68 152.12 101.98H150.512V102.856H157.268V101.98H155.576ZM163.388 103.504V105.904H160.628V103.504H163.388ZM164.492 106.96V102.448H159.548V107.896H160.628V106.96H164.492ZM169.028 99.76H158.372V100.876H166.436V108.436C166.436 108.688 166.352 108.76 166.088 108.772C165.8 108.772 164.804 108.784 163.892 108.736C164.072 109.06 164.299 109.612 164.36 109.936C165.56 109.936 166.4 109.924 166.916 109.72C167.42 109.552 167.6 109.18 167.6 108.46V100.876H169.028V99.76ZM173.804 104.056L172.712 104.392V102.304H173.912V101.272H172.712V98.956H171.692V101.272H170.3V102.304H171.692V104.692C171.104 104.86 170.564 105.016 170.132 105.112L170.396 106.204L171.692 105.796V108.604C171.692 108.772 171.632 108.82 171.488 108.82C171.356 108.82 170.9 108.82 170.432 108.808C170.564 109.096 170.696 109.576 170.732 109.84C171.488 109.84 171.968 109.804 172.292 109.624C172.604 109.456 172.712 109.156 172.712 108.604V105.484C173.12 105.352 173.54 105.208 173.948 105.088L173.804 104.056ZM175.472 109.66H178.484V108.748H175.472V109.66ZM175.652 103.048V100.996C176.276 100.912 176.924 100.792 177.548 100.66C177.584 101.5 177.632 102.292 177.692 103.048H175.652ZM181.052 104.08V103.048H178.7C178.628 102.22 178.58 101.344 178.556 100.432C179.312 100.252 180.02 100.048 180.62 99.82L179.756 98.992C178.544 99.484 176.467 99.94 174.62 100.24L174.632 100.264L174.608 100.252V107.164C174.608 107.632 174.296 107.86 174.068 107.968C174.224 108.184 174.416 108.616 174.476 108.856C174.692 108.688 175.064 108.508 177.404 107.62C177.368 107.416 177.308 107.02 177.308 106.756L175.652 107.32V104.08H177.788C178.124 107.452 178.808 109.768 180.08 109.78C180.536 109.792 180.992 109.3 181.244 107.476C181.064 107.392 180.656 107.128 180.476 106.924C180.404 107.968 180.26 108.532 180.068 108.532C179.528 108.52 179.06 106.672 178.796 104.08H181.052ZM190.448 103.372H187.712L188.288 103.228C188.228 102.94 188.036 102.496 187.808 102.16H190.448C190.316 102.496 190.112 102.928 189.968 103.228L190.448 103.372ZM186.788 102.28C186.992 102.604 187.172 103.048 187.244 103.372H185.732V104.2H188.636V104.884H186.128V105.688H188.636V106.432H185.636V107.26H188.636V108.448H189.74V107.26H192.86V106.432H189.74V105.688H192.32V104.884H189.74V104.2H192.788V103.372H190.94C191.132 103.072 191.348 102.676 191.588 102.292L191.084 102.16H192.932V101.32H189.74V100.564H192.224V99.748H189.74V98.932H188.636V99.748H186.164V100.564H188.636V101.32H185.468V102.16H187.292L186.788 102.28ZM184.928 100.756C184.616 100.276 184.004 99.508 183.488 98.932L182.636 99.436C183.128 100.024 183.752 100.852 184.052 101.356L184.928 100.756ZM184.771 104.596L184.58 104.62H183.584C184.184 103.804 184.94 102.604 185.372 101.92L184.664 101.644L184.544 101.692H182.276V102.592H183.884C183.44 103.3 182.888 104.128 182.66 104.38C182.468 104.596 182.276 104.68 182.096 104.728C182.204 104.932 182.42 105.424 182.468 105.676C182.564 105.58 182.9 105.496 183.176 105.496H184.148C183.788 107.224 183.08 108.496 182.083 109.216C182.312 109.372 182.672 109.744 182.828 109.972C183.38 109.54 183.86 108.964 184.244 108.196C185.18 109.516 186.632 109.756 188.96 109.756C190.304 109.756 191.804 109.72 192.968 109.648C193.028 109.36 193.172 108.856 193.34 108.616C192.068 108.736 190.232 108.796 188.972 108.796C186.836 108.796 185.396 108.604 184.652 107.272C184.916 106.552 185.12 105.724 185.252 104.788L184.771 104.596ZM198.692 106.888C200.06 106.444 200.9 105.412 200.9 104.08C200.9 103.168 200.504 102.58 199.747 102.58C199.196 102.58 198.728 102.928 198.728 103.54C198.728 104.164 199.196 104.5 199.736 104.5C199.796 104.5 199.855 104.5 199.904 104.488C199.844 105.208 199.304 105.76 198.38 106.108L198.692 106.888ZM208.64 105.52V104.5H211.076V105.52H208.64ZM208.64 102.652H211.076V103.648H208.64V102.652ZM214.712 102.652V103.648H212.228V102.652H214.712ZM214.712 105.52H212.228V104.5H214.712V105.52ZM217.088 107.26H212.228V106.432H215.828V101.728H212.228V100.984H216.692V99.964H212.228V98.932H211.076V99.964H206.684V100.984H211.076V101.728H207.56V106.432H211.076V107.26H206.336V108.268H211.076V109.972H212.228V108.268H217.088V107.26ZM221.492 99.592H218.552V100.432H221.492V99.592ZM225.68 100.54H227.348C227.18 100.84 227 101.152 226.844 101.368L227.72 101.68C228.056 101.236 228.464 100.54 228.764 99.904L227.996 99.652L227.84 99.7H224.096C224.18 99.496 224.252 99.304 224.324 99.1L223.328 98.884C223.064 99.724 222.572 100.552 221.948 101.092C222.2 101.212 222.608 101.5 222.788 101.656C223.1 101.356 223.4 100.972 223.664 100.54H224.66V100.696C224.66 101.212 224.384 101.884 221.78 102.22V101.428H218.3V102.304H221.348C221.552 102.508 221.804 102.88 221.912 103.132C223.976 102.844 224.924 102.328 225.356 101.776C226.112 102.472 227.204 102.904 228.572 103.096C228.68 102.808 228.956 102.412 229.172 102.184C227.588 102.088 226.304 101.68 225.656 101.02C225.68 100.912 225.68 100.816 225.68 100.732V100.54ZM220.94 106.6H226.568V107.296H220.94V106.6ZM220.94 105.244H226.568V105.916H220.94V105.244ZM220.94 103.888H226.568V104.572H220.94V103.888ZM227.684 108.004V103.18H219.86V108.004H221.792C220.964 108.472 219.56 108.88 218.336 109.12C218.576 109.324 218.972 109.732 219.164 109.96C220.364 109.624 221.864 109.048 222.836 108.46L221.84 108.004H225.428L224.732 108.568C225.968 108.988 227.228 109.528 227.96 109.924L228.968 109.312C228.152 108.916 226.82 108.412 225.584 108.004H227.684ZM235.304 105.856C235.184 105.22 234.836 104.176 234.512 103.372L233.612 103.6C233.732 103.912 233.864 104.272 233.972 104.62L232.124 104.872C233.108 103.852 234.092 102.604 234.92 101.368L233.972 100.756C233.684 101.26 233.36 101.764 233.024 102.232L231.74 102.34C232.448 101.476 233.156 100.396 233.72 99.352L232.7 98.908C232.148 100.192 231.236 101.512 230.936 101.86C230.66 102.208 230.432 102.448 230.192 102.484C230.324 102.772 230.492 103.276 230.552 103.492C230.72 103.396 231.02 103.336 232.316 103.18C231.86 103.768 231.44 104.224 231.248 104.416C230.828 104.848 230.54 105.112 230.24 105.172C230.372 105.472 230.54 106 230.6 106.204C230.864 106.072 231.296 105.964 234.224 105.496C234.284 105.736 234.332 105.952 234.368 106.132L235.304 105.856ZM230.948 106.66C230.78 107.608 230.516 108.676 230.18 109.396C230.456 109.468 230.912 109.612 231.14 109.72C231.428 109.012 231.752 107.884 231.932 106.852L230.948 106.66ZM232.412 106.792C232.556 107.632 232.712 108.724 232.748 109.456L233.684 109.204C233.636 108.484 233.456 107.416 233.288 106.576L232.412 106.792ZM233.852 106.576C234.128 107.308 234.44 108.256 234.572 108.856L235.436 108.532C235.292 107.92 234.968 107.008 234.668 106.3L233.852 106.576ZM238.808 106.156C238.424 105.436 237.5 104.368 236.696 103.636L235.916 104.2C236.732 104.968 237.608 106.084 237.98 106.804L238.808 106.156ZM236.96 101.104C237.176 100.48 237.38 99.82 237.548 99.16L236.444 98.944C236.084 100.552 235.448 102.172 234.608 103.192C234.884 103.348 235.364 103.672 235.58 103.828C235.904 103.372 236.228 102.796 236.516 102.16H239.684C239.564 106.516 239.396 108.256 239.06 108.628C238.94 108.784 238.796 108.82 238.58 108.82C238.28 108.82 237.608 108.82 236.876 108.76C237.068 109.072 237.212 109.564 237.236 109.864C237.92 109.9 238.628 109.924 239.048 109.864C239.492 109.804 239.792 109.684 240.08 109.288C240.536 108.712 240.68 106.9 240.824 101.668C240.824 101.512 240.836 101.104 240.836 101.104H236.96ZM242.852 109H244.172V104.836C244.172 103.876 244.064 102.856 243.992 101.944H244.052L244.976 103.792L247.904 109H249.332V100.156H248.012V104.284C248.012 105.244 248.12 106.312 248.192 107.224H248.132L247.208 105.352L244.28 100.156H242.852V109ZM253.464 109H254.856V101.332H257.46V100.156H250.872V101.332H253.464V109ZM260.8 110.476H261.76V109.108C263.08 108.88 263.848 107.968 263.848 106.684C263.848 103.888 260.14 104.296 260.14 102.544C260.14 101.812 260.62 101.38 261.388 101.38C262.072 101.38 262.48 101.644 262.984 102.112L263.692 101.308C263.2 100.78 262.624 100.372 261.76 100.264V98.92H260.8V100.276C259.588 100.48 258.808 101.356 258.808 102.604C258.808 105.172 262.516 104.836 262.516 106.78C262.516 107.56 262.06 108.028 261.124 108.028C260.368 108.028 259.708 107.668 259.096 107.164L258.472 108.112C259.072 108.652 259.96 109.06 260.8 109.144V110.476ZM267.884 109.156C269.432 109.156 270.86 108.052 270.86 106.096C270.86 104.164 269.648 103.288 268.172 103.288C267.692 103.288 267.344 103.408 266.96 103.6L267.164 101.332H270.44V100.156H265.964L265.7 104.356L266.372 104.8C266.888 104.464 267.224 104.296 267.788 104.296C268.796 104.296 269.468 104.968 269.468 106.144C269.468 107.32 268.712 108.028 267.716 108.028C266.792 108.028 266.156 107.584 265.652 107.08L264.992 107.98C265.616 108.592 266.492 109.156 267.884 109.156ZM274.932 109.156C276.66 109.156 277.788 107.62 277.788 104.548C277.788 101.5 276.66 100 274.932 100C273.204 100 272.076 101.488 272.076 104.548C272.076 107.62 273.204 109.156 274.932 109.156ZM274.932 108.064C274.032 108.064 273.396 107.104 273.396 104.548C273.396 102.016 274.032 101.092 274.932 101.092C275.832 101.092 276.468 102.016 276.468 104.548C276.468 107.104 275.832 108.064 274.932 108.064ZM281.775 109.156C283.503 109.156 284.631 107.62 284.631 104.548C284.631 101.5 283.503 100 281.775 100C280.047 100 278.919 101.488 278.919 104.548C278.919 107.62 280.047 109.156 281.775 109.156ZM281.775 108.064C280.875 108.064 280.239 107.104 280.239 104.548C280.239 102.016 280.875 101.092 281.775 101.092C282.675 101.092 283.311 102.016 283.311 104.548C283.311 107.104 282.675 108.064 281.775 108.064ZM5.4 121.852H1.836V122.56H10.176V121.852H6.528V121.324H11.136V120.592H6.528V119.92H5.4V120.592H0.912V121.324H5.4V121.852ZM10.86 125.032C11.028 124.54 11.232 123.796 11.388 123.136L10.62 122.992L10.44 123.028H0.78V123.82H10.164C10.08 124.204 9.984 124.588 9.912 124.864L10.86 125.032ZM1.584 125.392V126.028H10.392V125.392H6.504V124.888H9.36V124.264H2.496V124.888H5.412V125.392H1.584ZM4.14 128.512V129.58H2.4V128.512H4.14ZM5.136 127.78H1.44V130.72H2.4V130.324H5.136V127.78ZM11.496 127.3V126.472H0.504V127.3H8.964V127.912H5.544V128.692H6.588L5.94 129.16C6.336 129.508 6.804 130.012 6.996 130.36L7.752 129.784C7.536 129.46 7.104 129.016 6.708 128.692H8.964V129.988C8.964 130.108 8.928 130.132 8.808 130.132C8.688 130.132 8.292 130.132 7.896 130.12C8.016 130.372 8.124 130.684 8.184 130.948C8.82 130.948 9.276 130.948 9.588 130.816C9.912 130.684 9.996 130.48 9.996 130.012V128.692H11.088V127.912H9.996V127.3H11.496ZM22.632 120.232H21.636V123.88H20.4V123.352H21.348V122.788H20.4V122.32H21.216V121.756H20.4V121.288H21.288V120.724H20.4V120.112H19.704V120.724H18.816V121.288H19.704V121.756H18.888V122.32H19.704V122.788H18.768V123.352H19.704V123.88H18.468V119.92H17.496V123.88H16.248V123.352H17.196V122.788H16.248V122.32H17.076V121.756H16.248V121.288H17.136V120.724H16.248V120.112H15.552V120.724H14.688V121.288H15.552V121.756H14.76V122.32H15.552V122.788H14.64V123.352H15.552V123.88H14.34V120.232H13.38V124.66H22.632V120.232ZM23.136 125.164H12.912V125.956H23.136V125.164ZM19.8 128.716C19.632 129.088 19.38 129.52 19.188 129.82L19.308 129.856H16.692L16.884 129.796C16.788 129.496 16.596 129.076 16.368 128.716H19.8ZM15.252 127.144H20.856V128.02H15.252V127.144ZM20.256 129.856C20.472 129.544 20.7 129.16 20.928 128.776L20.724 128.716H21.96V126.448H14.208V128.716H15.468L15.252 128.776C15.456 129.088 15.66 129.508 15.792 129.856H12.732V130.696H23.268V129.856H20.256ZM26.952 126.52V125.5H29.388V126.52H26.952ZM26.952 123.652H29.388V124.648H26.952V123.652ZM33.024 123.652V124.648H30.54V123.652H33.024ZM33.024 126.52H30.54V125.5H33.024V126.52ZM35.4 128.26H30.54V127.432H34.14V122.728H30.54V121.984H35.004V120.964H30.54V119.932H29.388V120.964H24.996V121.984H29.388V122.728H25.872V127.432H29.388V128.26H24.648V129.268H29.388V130.972H30.54V129.268H35.4V128.26ZM39.852 121.744C39.708 121.264 39.372 120.544 39.036 120.004L38.076 120.28C38.376 120.844 38.712 121.6 38.844 122.08L39.852 121.744ZM40.056 127.936C40.356 126.748 40.668 125.056 40.896 123.688L39.852 123.508C39.72 124.924 39.42 126.928 39.12 128.152C38.172 128.38 37.284 128.56 36.6 128.704L36.84 129.808C38.088 129.508 39.756 129.088 41.304 128.704L41.196 127.672L40.056 127.936ZM37.152 123.796C37.404 125.104 37.632 126.796 37.68 127.924L38.604 127.744C38.532 126.604 38.304 124.948 38.028 123.628L37.152 123.796ZM36.72 123.136H41.388V122.104H36.72V123.136ZM45.9 129.328H42.648V126.616H45.9V129.328ZM47.496 123.34V122.272H44.592V119.92H43.452V125.572H41.568V130.924H42.648V130.372H45.9V130.876H47.028V125.572H44.592V123.34H47.496ZM57.024 123.136H58.044V121.972H59.328V121H58.044V119.992H57.024V121H55.848V121.972H57.024V123.136ZM53.316 123.136H54.336V121.972H55.512V121H54.336V119.992H53.316V121H52.068V121.972H53.316V123.136ZM57.432 127.936V129.556H54.06V127.936H57.432ZM53.04 130.912H54.06V130.492H57.432V130.912H58.5V127.012H53.04V130.912ZM54.252 125.272C54.756 124.876 55.236 124.408 55.656 123.94C56.124 124.384 56.688 124.852 57.288 125.272H54.252ZM55.5 122.596C54.696 123.784 53.328 124.84 51.984 125.488L51.864 124.816L51.036 125.14V123.292H52.032V122.26H51.036V119.944H49.956V122.26H48.624V123.292H49.956V125.572C49.428 125.776 48.96 125.956 48.552 126.088L48.852 127.192C49.188 127.048 49.572 126.892 49.956 126.724V129.604C49.956 129.772 49.896 129.82 49.752 129.82C49.62 129.82 49.164 129.82 48.696 129.808C48.84 130.108 48.984 130.6 49.008 130.888C49.764 130.9 50.256 130.852 50.592 130.66C50.916 130.492 51.036 130.18 51.036 129.604V126.28L52.044 125.836C52.2 126.064 52.368 126.352 52.44 126.508C52.92 126.244 53.412 125.92 53.892 125.56V126.196H57.576V125.488C58.092 125.836 58.62 126.172 59.112 126.424C59.196 126.148 59.388 125.656 59.556 125.38C58.428 124.912 57.036 124.036 56.22 123.244C56.28 123.172 56.34 123.1 56.388 123.016L55.5 122.596ZM67.656 123.7V125.956C67.656 126.916 67.884 127.3 68.928 127.3H70.356C70.692 127.3 71.04 127.276 71.232 127.216C71.196 126.976 71.172 126.616 71.148 126.328C70.956 126.376 70.56 126.4 70.32 126.4H69.012C68.772 126.4 68.724 126.292 68.724 125.956V125.332H70.896V124.456H68.724V123.7H67.656ZM61.068 127.828C62.148 127.516 63.552 127.108 64.884 126.7L64.764 125.896L64.296 126.028V123.7H63.288V124.456H61.176V125.332H63.288V126.292C62.352 126.544 61.464 126.76 60.804 126.916L61.068 127.828ZM66.576 123.388H71.172V122.38H66.576V121.384C67.932 121.276 69.216 121.12 70.248 120.928L69.756 119.968C67.752 120.364 64.416 120.592 61.644 120.676C61.752 120.916 61.86 121.348 61.884 121.624C63 121.612 64.212 121.564 65.412 121.48V122.38H60.828V123.388H65.412V126.232C64.404 127.78 62.508 129.124 60.432 129.688C60.672 129.916 60.996 130.348 61.164 130.624C62.808 130.084 64.308 129.04 65.412 127.732V130.948H66.576V127.684C67.68 129.004 69.168 130.06 70.824 130.612C70.98 130.324 71.304 129.892 71.544 129.676C69.48 129.112 67.584 127.768 66.576 126.232V123.388ZM77.748 121.936H75.048L75.924 121.444C75.732 121.012 75.36 120.376 75.024 119.872L74.148 120.316C74.472 120.808 74.832 121.492 75.024 121.936H72.792V122.824H77.748V121.936ZM77.22 125.116H73.308V125.98H77.22V125.116ZM76.284 127.636V129.352H74.34V127.636H76.284ZM77.244 126.736H73.38V130.792H74.34V130.252H77.244V126.736ZM73.308 124.408H77.244V123.532H73.308V124.408ZM83.448 123.988H81.096V120.16H79.944V123.988H77.724V125.08H79.944V130.948H81.096V125.08H83.448V123.988ZM93.768 123.46H90.456V121.444H93.768V123.46ZM94.848 120.496H89.424V124.408H94.848V120.496ZM89.112 126.496C88.896 126.22 87.876 125.176 87.528 124.876V124.324H88.932V123.268H87.528V121.408C88.08 121.276 88.608 121.12 89.064 120.94L88.296 120.088C87.384 120.484 85.848 120.832 84.504 121.048C84.624 121.288 84.78 121.672 84.828 121.912C85.344 121.84 85.896 121.756 86.448 121.648V123.268H84.6V124.324H86.304C85.848 125.596 85.08 127.024 84.372 127.84C84.54 128.104 84.804 128.56 84.912 128.872C85.452 128.2 86.004 127.168 86.448 126.076V130.924H87.528V125.98C87.888 126.472 88.284 127.036 88.464 127.372L89.112 126.496ZM92.652 129.676V128.296H94.944V127.336H92.652V125.992C93.54 125.884 94.392 125.74 95.076 125.56L94.392 124.732C93.12 125.068 90.9 125.296 89.04 125.416C89.148 125.644 89.28 126.028 89.304 126.256C90.012 126.232 90.78 126.184 91.548 126.112V127.336H89.316V128.296H91.548V129.676H88.68V130.672H95.436V129.676H92.652ZM98.952 126.52V125.5H101.388V126.52H98.952ZM98.952 123.652H101.388V124.648H98.952V123.652ZM105.024 123.652V124.648H102.54V123.652H105.024ZM105.024 126.52H102.54V125.5H105.024V126.52ZM107.4 128.26H102.54V127.432H106.14V122.728H102.54V121.984H107.004V120.964H102.54V119.932H101.388V120.964H96.996V121.984H101.388V122.728H97.872V127.432H101.388V128.26H96.648V129.268H101.388V130.972H102.54V129.268H107.4V128.26ZM113.616 126.856C113.496 126.22 113.148 125.176 112.824 124.372L111.924 124.6C112.044 124.912 112.176 125.272 112.284 125.62L110.436 125.872C111.42 124.852 112.404 123.604 113.232 122.368L112.284 121.756C111.996 122.26 111.672 122.764 111.336 123.232L110.052 123.34C110.76 122.476 111.468 121.396 112.032 120.352L111.012 119.908C110.46 121.192 109.548 122.512 109.248 122.86C108.972 123.208 108.744 123.448 108.504 123.484C108.636 123.772 108.804 124.276 108.864 124.492C109.032 124.396 109.332 124.336 110.628 124.18C110.172 124.768 109.752 125.224 109.56 125.416C109.14 125.848 108.852 126.112 108.552 126.172C108.684 126.472 108.852 127 108.912 127.204C109.176 127.072 109.608 126.964 112.536 126.496C112.596 126.736 112.644 126.952 112.68 127.132L113.616 126.856ZM109.26 127.66C109.092 128.608 108.828 129.676 108.492 130.396C108.768 130.468 109.224 130.612 109.452 130.72C109.74 130.012 110.064 128.884 110.244 127.852L109.26 127.66ZM110.724 127.792C110.868 128.632 111.024 129.724 111.06 130.456L111.996 130.204C111.948 129.484 111.768 128.416 111.6 127.576L110.724 127.792ZM112.164 127.576C112.44 128.308 112.752 129.256 112.884 129.856L113.748 129.532C113.604 128.92 113.28 128.008 112.98 127.3L112.164 127.576ZM117.12 127.156C116.736 126.436 115.812 125.368 115.008 124.636L114.228 125.2C115.044 125.968 115.92 127.084 116.292 127.804L117.12 127.156ZM115.272 122.104C115.488 121.48 115.692 120.82 115.86 120.16L114.756 119.944C114.396 121.552 113.76 123.172 112.92 124.192C113.196 124.348 113.676 124.672 113.892 124.828C114.216 124.372 114.54 123.796 114.828 123.16H117.996C117.876 127.516 117.708 129.256 117.372 129.628C117.252 129.784 117.108 129.82 116.892 129.82C116.592 129.82 115.92 129.82 115.188 129.76C115.38 130.072 115.524 130.564 115.548 130.864C116.232 130.9 116.94 130.924 117.36 130.864C117.804 130.804 118.104 130.684 118.392 130.288C118.848 129.712 118.992 127.9 119.136 122.668C119.136 122.512 119.148 122.104 119.148 122.104H115.272ZM123.216 130.156C124.764 130.156 126.192 129.052 126.192 127.096C126.192 125.164 124.98 124.288 123.504 124.288C123.024 124.288 122.676 124.408 122.292 124.6L122.496 122.332H125.772V121.156H121.296L121.032 125.356L121.704 125.8C122.22 125.464 122.556 125.296 123.12 125.296C124.128 125.296 124.8 125.968 124.8 127.144C124.8 128.32 124.044 129.028 123.048 129.028C122.124 129.028 121.488 128.584 120.984 128.08L120.324 128.98C120.948 129.592 121.824 130.156 123.216 130.156ZM132.244 120.136V121.168H134.26C134.716 122.332 135.424 123.448 136.3 124.372H129.388C130.252 123.34 130.96 122.044 131.44 120.616L130.276 120.34C129.7 122.152 128.62 123.76 127.24 124.744C127.516 124.924 127.984 125.344 128.188 125.56C128.524 125.296 128.86 124.972 129.172 124.624V125.452H131.428C131.164 127.36 130.528 129.1 127.756 130.024C128.02 130.252 128.344 130.72 128.476 131.02C131.548 129.892 132.328 127.78 132.64 125.452H135.4C135.28 128.248 135.124 129.376 134.848 129.664C134.716 129.796 134.572 129.832 134.344 129.832C134.056 129.832 133.372 129.82 132.652 129.748C132.844 130.072 133 130.54 133.012 130.876C133.744 130.912 134.476 130.924 134.872 130.876C135.304 130.816 135.592 130.72 135.856 130.384C136.276 129.916 136.432 128.524 136.588 124.876C136.588 124.828 136.6 124.744 136.6 124.672C136.936 124.996 137.308 125.284 137.692 125.536C137.872 125.212 138.244 124.744 138.496 124.516C136.9 123.652 135.652 121.948 135.088 120.136H132.244ZM142 125.968H143.44V125.02H142V123.88H143.092V122.944H140.548C140.896 122.512 141.256 122.032 141.568 121.516C142.252 122.02 142.924 122.62 143.356 123.088L143.8 122.164C143.38 121.744 142.72 121.18 142.024 120.724C142.108 120.556 142.192 120.4 142.264 120.244L141.472 119.86C140.956 120.988 140.092 122.056 139.24 122.74C139.372 123.016 139.588 123.628 139.648 123.868C139.816 123.712 139.996 123.544 140.176 123.352V123.88H141.148V125.02H139.564V125.968H141.148V129.208C140.488 129.352 139.888 129.472 139.42 129.568L139.636 130.564C140.692 130.312 142.132 129.964 143.476 129.628L143.428 128.728C142.948 128.836 142.468 128.944 142 129.04V125.968ZM139.72 126.7C139.888 127.396 140.068 128.272 140.104 128.86L140.812 128.644C140.752 128.068 140.572 127.192 140.38 126.508L139.72 126.7ZM142.816 128.716C142.996 128.176 143.212 127.348 143.416 126.628L142.648 126.388C142.564 127.012 142.36 127.924 142.204 128.5L142.816 128.716ZM145.24 126.376H146.548V127.06H145.24V126.376ZM145.24 125.044H146.548V125.704H145.24V125.044ZM148.852 125.704H147.484V125.044H148.852V125.704ZM148.852 127.06H147.484V126.376H148.852V127.06ZM147.544 129.136H149.98V128.332H147.544V127.768H149.836V124.348H144.28V127.768H146.488V128.332H144.136V129.136H146.488V129.832H143.644V130.66H150.388V129.832H147.544V129.136ZM148.144 121.864C148.048 122.188 147.868 122.62 147.724 122.98H146.248L146.296 122.968C146.224 122.68 146.068 122.2 145.876 121.864H148.144ZM148.732 122.98C148.9 122.692 149.08 122.344 149.236 122.02L148.42 121.864H150.136V120.988H147.712C147.616 120.652 147.4 120.196 147.172 119.872L146.152 120.124C146.296 120.376 146.452 120.688 146.548 120.988H143.98V121.864H145.672L144.94 122.02C145.072 122.308 145.204 122.68 145.276 122.98H143.668V123.856H150.424V122.98H148.732ZM156.544 124.504V126.904H153.784V124.504H156.544ZM157.648 127.96V123.448H152.704V128.896H153.784V127.96H157.648ZM162.184 120.76H151.528V121.876H159.592V129.436C159.592 129.688 159.508 129.76 159.244 129.772C158.956 129.772 157.96 129.784 157.048 129.736C157.228 130.06 157.456 130.612 157.516 130.936C158.716 130.936 159.556 130.924 160.072 130.72C160.576 130.552 160.756 130.18 160.756 129.46V121.876H162.184V120.76ZM166.96 125.056L165.868 125.392V123.304H167.068V122.272H165.868V119.956H164.848V122.272H163.456V123.304H164.848V125.692C164.26 125.86 163.72 126.016 163.288 126.112L163.552 127.204L164.848 126.796V129.604C164.848 129.772 164.788 129.82 164.644 129.82C164.512 129.82 164.056 129.82 163.588 129.808C163.72 130.096 163.852 130.576 163.888 130.84C164.644 130.84 165.124 130.804 165.448 130.624C165.76 130.456 165.868 130.156 165.868 129.604V126.484C166.276 126.352 166.696 126.208 167.104 126.088L166.96 125.056ZM168.628 130.66H171.64V129.748H168.628V130.66ZM168.808 124.048V121.996C169.432 121.912 170.08 121.792 170.704 121.66C170.74 122.5 170.788 123.292 170.848 124.048H168.808ZM174.208 125.08V124.048H171.856C171.784 123.22 171.736 122.344 171.712 121.432C172.468 121.252 173.176 121.048 173.776 120.82L172.912 119.992C171.7 120.484 169.624 120.94 167.776 121.24L167.788 121.264L167.764 121.252V128.164C167.764 128.632 167.452 128.86 167.224 128.968C167.38 129.184 167.572 129.616 167.632 129.856C167.848 129.688 168.22 129.508 170.56 128.62C170.524 128.416 170.464 128.02 170.464 127.756L168.808 128.32V125.08H170.944C171.28 128.452 171.964 130.768 173.236 130.78C173.692 130.792 174.148 130.3 174.4 128.476C174.22 128.392 173.812 128.128 173.632 127.924C173.56 128.968 173.416 129.532 173.224 129.532C172.684 129.52 172.216 127.672 171.952 125.08H174.208ZM183.604 124.372H180.868L181.444 124.228C181.384 123.94 181.192 123.496 180.964 123.16H183.604C183.472 123.496 183.268 123.928 183.124 124.228L183.604 124.372ZM179.944 123.28C180.148 123.604 180.328 124.048 180.4 124.372H178.888V125.2H181.792V125.884H179.284V126.688H181.792V127.432H178.792V128.26H181.792V129.448H182.896V128.26H186.016V127.432H182.896V126.688H185.476V125.884H182.896V125.2H185.944V124.372H184.096C184.288 124.072 184.504 123.676 184.744 123.292L184.24 123.16H186.088V122.32H182.896V121.564H185.38V120.748H182.896V119.932H181.792V120.748H179.32V121.564H181.792V122.32H178.624V123.16H180.448L179.944 123.28ZM178.084 121.756C177.772 121.276 177.16 120.508 176.644 119.932L175.792 120.436C176.284 121.024 176.908 121.852 177.208 122.356L178.084 121.756ZM177.928 125.596L177.736 125.62H176.74C177.34 124.804 178.096 123.604 178.528 122.92L177.82 122.644L177.7 122.692H175.432V123.592H177.04C176.596 124.3 176.044 125.128 175.816 125.38C175.624 125.596 175.432 125.68 175.252 125.728C175.36 125.932 175.576 126.424 175.624 126.676C175.72 126.58 176.056 126.496 176.332 126.496H177.304C176.944 128.224 176.236 129.496 175.24 130.216C175.468 130.372 175.828 130.744 175.984 130.972C176.536 130.54 177.016 129.964 177.4 129.196C178.336 130.516 179.788 130.756 182.116 130.756C183.46 130.756 184.96 130.72 186.124 130.648C186.184 130.36 186.328 129.856 186.496 129.616C185.224 129.736 183.388 129.796 182.128 129.796C179.992 129.796 178.552 129.604 177.808 128.272C178.072 127.552 178.276 126.724 178.408 125.788L177.928 125.596ZM191.848 127.888C193.216 127.444 194.056 126.412 194.056 125.08C194.056 124.168 193.66 123.58 192.904 123.58C192.352 123.58 191.884 123.928 191.884 124.54C191.884 125.164 192.352 125.5 192.892 125.5C192.952 125.5 193.012 125.5 193.06 125.488C193 126.208 192.46 126.76 191.536 127.108L191.848 127.888ZM201.796 126.52V125.5H204.232V126.52H201.796ZM201.796 123.652H204.232V124.648H201.796V123.652ZM207.868 123.652V124.648H205.384V123.652H207.868ZM207.868 126.52H205.384V125.5H207.868V126.52ZM210.244 128.26H205.384V127.432H208.984V122.728H205.384V121.984H209.848V120.964H205.384V119.932H204.232V120.964H199.84V121.984H204.232V122.728H200.716V127.432H204.232V128.26H199.492V129.268H204.232V130.972H205.384V129.268H210.244V128.26ZM214.648 120.592H211.708V121.432H214.648V120.592ZM218.836 121.54H220.504C220.336 121.84 220.156 122.152 220 122.368L220.876 122.68C221.212 122.236 221.62 121.54 221.92 120.904L221.152 120.652L220.996 120.7H217.252C217.336 120.496 217.408 120.304 217.48 120.1L216.484 119.884C216.22 120.724 215.728 121.552 215.104 122.092C215.356 122.212 215.764 122.5 215.944 122.656C216.256 122.356 216.556 121.972 216.82 121.54H217.816V121.696C217.816 122.212 217.54 122.884 214.936 123.22V122.428H211.456V123.304H214.504C214.708 123.508 214.96 123.88 215.068 124.132C217.132 123.844 218.08 123.328 218.512 122.776C219.268 123.472 220.36 123.904 221.728 124.096C221.836 123.808 222.112 123.412 222.328 123.184C220.744 123.088 219.46 122.68 218.812 122.02C218.836 121.912 218.836 121.816 218.836 121.732V121.54ZM214.096 127.6H219.724V128.296H214.096V127.6ZM214.096 126.244H219.724V126.916H214.096V126.244ZM214.096 124.888H219.724V125.572H214.096V124.888ZM220.84 129.004V124.18H213.016V129.004H214.948C214.12 129.472 212.716 129.88 211.492 130.12C211.732 130.324 212.128 130.732 212.32 130.96C213.52 130.624 215.02 130.048 215.992 129.46L214.996 129.004H218.584L217.888 129.568C219.124 129.988 220.384 130.528 221.116 130.924L222.124 130.312C221.308 129.916 219.976 129.412 218.74 129.004H220.84ZM228.46 126.856C228.34 126.22 227.992 125.176 227.668 124.372L226.768 124.6C226.888 124.912 227.02 125.272 227.128 125.62L225.28 125.872C226.264 124.852 227.248 123.604 228.076 122.368L227.128 121.756C226.84 122.26 226.516 122.764 226.18 123.232L224.896 123.34C225.604 122.476 226.312 121.396 226.876 120.352L225.856 119.908C225.304 121.192 224.392 122.512 224.092 122.86C223.816 123.208 223.588 123.448 223.348 123.484C223.48 123.772 223.648 124.276 223.708 124.492C223.876 124.396 224.176 124.336 225.472 124.18C225.016 124.768 224.596 125.224 224.404 125.416C223.984 125.848 223.696 126.112 223.396 126.172C223.528 126.472 223.696 127 223.756 127.204C224.02 127.072 224.452 126.964 227.38 126.496C227.44 126.736 227.488 126.952 227.524 127.132L228.46 126.856ZM224.104 127.66C223.936 128.608 223.672 129.676 223.336 130.396C223.612 130.468 224.068 130.612 224.296 130.72C224.584 130.012 224.908 128.884 225.088 127.852L224.104 127.66ZM225.568 127.792C225.712 128.632 225.868 129.724 225.904 130.456L226.84 130.204C226.792 129.484 226.612 128.416 226.444 127.576L225.568 127.792ZM227.008 127.576C227.284 128.308 227.596 129.256 227.728 129.856L228.592 129.532C228.448 128.92 228.124 128.008 227.824 127.3L227.008 127.576ZM231.964 127.156C231.58 126.436 230.656 125.368 229.852 124.636L229.072 125.2C229.888 125.968 230.764 127.084 231.136 127.804L231.964 127.156ZM230.116 122.104C230.332 121.48 230.536 120.82 230.704 120.16L229.6 119.944C229.24 121.552 228.604 123.172 227.764 124.192C228.04 124.348 228.52 124.672 228.736 124.828C229.06 124.372 229.384 123.796 229.672 123.16H232.84C232.72 127.516 232.552 129.256 232.216 129.628C232.096 129.784 231.952 129.82 231.736 129.82C231.436 129.82 230.764 129.82 230.032 129.76C230.224 130.072 230.368 130.564 230.392 130.864C231.076 130.9 231.784 130.924 232.204 130.864C232.648 130.804 232.948 130.684 233.236 130.288C233.692 129.712 233.836 127.9 233.98 122.668C233.98 122.512 233.992 122.104 233.992 122.104H230.116ZM236.008 130H237.328V125.836C237.328 124.876 237.22 123.856 237.148 122.944H237.208L238.132 124.792L241.06 130H242.488V121.156H241.168V125.284C241.168 126.244 241.276 127.312 241.348 128.224H241.288L240.364 126.352L237.436 121.156H236.008V130ZM246.62 130H248.012V122.332H250.616V121.156H244.028V122.332H246.62V130ZM253.956 131.476H254.916V130.108C256.236 129.88 257.004 128.968 257.004 127.684C257.004 124.888 253.296 125.296 253.296 123.544C253.296 122.812 253.776 122.38 254.544 122.38C255.228 122.38 255.636 122.644 256.14 123.112L256.848 122.308C256.356 121.78 255.78 121.372 254.916 121.264V119.92H253.956V121.276C252.744 121.48 251.964 122.356 251.964 123.604C251.964 126.172 255.672 125.836 255.672 127.78C255.672 128.56 255.216 129.028 254.28 129.028C253.524 129.028 252.864 128.668 252.252 128.164L251.628 129.112C252.228 129.652 253.116 130.06 253.956 130.144V131.476ZM258.856 130H263.896V128.86H262.168V121.156H261.124C260.62 121.48 260.032 121.684 259.204 121.84V122.716H260.788V128.86H258.856V130ZM266.3 126.556L268.04 123.892C268.292 123.436 268.532 122.98 268.748 122.524H268.796C268.772 123.016 268.736 123.76 268.736 124.24V126.556H266.3ZM268.736 130H270.032V127.624H271.148V126.556H270.032V121.156H268.424L264.908 126.7V127.624H268.736V130ZM274.932 130.156C276.66 130.156 277.788 128.62 277.788 125.548C277.788 122.5 276.66 121 274.932 121C273.204 121 272.076 122.488 272.076 125.548C272.076 128.62 273.204 130.156 274.932 130.156ZM274.932 129.064C274.032 129.064 273.396 128.104 273.396 125.548C273.396 123.016 274.032 122.092 274.932 122.092C275.832 122.092 276.468 123.016 276.468 125.548C276.468 128.104 275.832 129.064 274.932 129.064Z" fill="#FFA0B2"/>
<path d="M22.512 10.696H14.016L14.088 10.672C13.776 9.76 12.984 8.392 12.336 7.36L9.6 8.32C10.032 9.04 10.488 9.904 10.824 10.696H1.464V13.48H22.512V10.696ZM14.28 15.16C16.416 16.72 19.08 18.976 20.256 20.464L22.704 18.616C21.384 17.08 18.6 14.968 16.536 13.552L14.28 15.16ZM7.152 13.696C5.76 15.424 3.432 17.176 1.296 18.256C1.944 18.736 3.024 19.768 3.552 20.344C5.688 19.048 8.28 16.864 9.912 14.752L7.152 13.696ZM15.144 17.824C14.448 19.696 13.392 21.256 12.024 22.552C10.704 21.256 9.672 19.696 8.952 17.944L6.384 18.736C7.296 20.872 8.472 22.72 9.888 24.256C7.536 25.816 4.584 26.848 1.104 27.52C1.656 28.144 2.496 29.416 2.832 30.064C6.36 29.2 9.456 27.976 12 26.176C14.424 28 17.424 29.224 21.216 29.944C21.576 29.176 22.32 28 22.944 27.376C19.416 26.848 16.536 25.816 14.232 24.304C15.792 22.768 17.064 20.896 18.024 18.664L15.144 17.824ZM38.064 15.736V17.032H35.136V15.736H38.064ZM43.608 17.032H40.512V15.736H43.608V17.032ZM40.512 20.368V19.024H43.608V20.368H40.512ZM35.136 20.368V19.024H38.064V20.368H35.136ZM35.136 22.432H38.064V25.936H40.512V22.432H43.608V23.608C43.608 23.872 43.536 23.968 43.248 23.968C42.984 23.968 42.168 23.968 41.4 23.944C41.688 24.52 42 25.408 42.072 26.056C43.488 26.056 44.52 26.032 45.216 25.696C45.96 25.312 46.152 24.76 46.152 23.632V13.672H43.32C42.912 13.432 42.408 13.192 41.88 12.928C43.44 11.968 44.952 10.816 46.152 9.664L44.472 8.32L43.896 8.464H32.88V10.576H41.472C40.848 11.032 40.176 11.488 39.504 11.872C38.52 11.464 37.512 11.08 36.648 10.768L34.824 12.28C35.832 12.664 36.936 13.168 38.04 13.672H32.616V26.008H35.136V22.432ZM30.984 11.248C30.264 10.288 28.944 8.8 27.792 7.648L25.68 8.968C26.76 10.144 28.152 11.824 28.824 12.832L30.984 11.248ZM30.48 18.976L30.024 19.048H28.272C29.544 17.44 31.08 15.232 31.968 13.912L30.24 13.12L29.952 13.24H25.08V15.52H28.176C27.264 16.792 26.304 18.112 25.848 18.544C25.392 19.024 24.984 19.216 24.6 19.312C24.84 19.816 25.368 21.04 25.512 21.616C25.728 21.424 26.424 21.256 26.976 21.256H29.016C28.224 24.52 26.664 26.872 24.456 28.192C25.008 28.552 25.944 29.56 26.304 30.112C27.456 29.32 28.512 28.264 29.352 26.872C31.2 29.224 33.936 29.68 38.28 29.68C41.088 29.68 44.112 29.632 46.584 29.464C46.728 28.696 47.112 27.4 47.52 26.824C44.808 27.088 40.896 27.232 38.328 27.232C34.536 27.208 31.92 26.92 30.456 24.688C31.08 23.2 31.536 21.472 31.824 19.48L30.48 18.976Z" fill="#FFA0B2"/>
<line y1="42.75" x2="477" y2="42.75" stroke="#FFA0B2" stroke-width="0.5"/>
</svg>
